<svg width="1000" height="667" viewBox="0 0 1000 667" fill="none" xmlns="http://www.w3.org/2000/svg">
<g clip-path="url(#clip0)">
<path d="M356.345 253.458V232.529C356.345 228.592 356.487 223.28 356.776 216.589C357.062 209.904 357.287 206.394 357.453 206.065H356.098C353.307 212.387 350.146 218.294 346.62 223.791L326.678 253.458H356.345ZM424.174 289.773H404.354V324.613H356.345V289.773H284.576V254.074L359.422 144.637H404.354V253.458H424.174V289.773Z" fill="black" fill-opacity="0.05"/>
<path d="M485.233 234.872C485.233 255.224 486.506 269.218 489.051 276.848C491.593 284.481 495.86 288.299 501.851 288.299C507.926 288.299 512.212 284.357 514.716 276.478C517.219 268.6 518.471 254.731 518.471 234.872C518.471 214.928 517.198 200.956 514.655 192.955C512.111 184.952 507.842 180.95 501.851 180.95C495.86 180.95 491.593 184.81 489.051 192.523C486.506 200.237 485.233 214.355 485.233 234.872ZM566.848 234.872C566.848 266.713 561.514 290.041 550.848 304.855C540.176 319.669 523.846 327.075 501.851 327.075C480.35 327.075 464.14 319.341 453.226 303.871C442.311 288.402 436.854 265.4 436.854 234.872C436.854 202.863 442.188 179.393 452.858 164.456C463.526 149.519 479.856 142.051 501.851 142.051C523.272 142.051 539.461 149.829 550.416 165.379C561.374 180.934 566.848 204.095 566.848 234.872" fill="black" fill-opacity="0.05"/>
<path d="M651.79 253.458V232.529C651.79 228.592 651.935 223.28 652.221 216.589C652.511 209.904 652.734 206.394 652.902 206.065H651.545C648.757 212.387 645.592 218.294 642.067 223.791L622.124 253.458H651.79ZM719.62 289.773H699.799V324.613H651.79V289.773H580.023V254.074L654.871 144.637H699.799V253.458H719.62V289.773Z" fill="black" fill-opacity="0.05"/>
<path d="M736.468 96.0002H267.213C256.21 96.0002 247.288 104.922 247.288 115.925V121.155V381.936V412.821C247.288 423.826 256.21 432.747 267.213 432.747H736.468C747.473 432.747 756.393 423.826 756.393 412.821V381.936V121.155V115.925C756.393 104.922 747.473 96.0002 736.468 96.0002ZM736.468 98.3678C746.15 98.3678 754.026 106.245 754.026 115.925V121.155V381.936V412.821C754.026 422.503 746.15 430.381 736.468 430.381H267.213C257.531 430.381 249.656 422.503 249.656 412.821V381.936V121.155V115.925C249.656 106.245 257.531 98.3678 267.213 98.3678H736.468Z" fill="black"/>
<path d="M247.289 121.156V115.926C247.289 104.921 256.211 96.0011 267.214 96.0011H736.469C747.474 96.0011 756.394 104.921 756.394 115.926V121.156H247.289Z" fill="#FFEC00"/>
<path d="M736.468 96.0001H267.213C256.21 96.0001 247.288 104.922 247.288 115.925V121.155H756.393V115.925C756.393 104.922 747.473 96.0001 736.468 96.0001ZM736.468 98.3677C746.15 98.3677 754.026 106.245 754.026 115.925V118.789H249.656V115.925C249.656 106.245 257.531 98.3677 267.213 98.3677H736.468Z" fill="black"/>
<path d="M284.956 108.097C284.956 110.712 282.837 112.83 280.222 112.83C277.608 112.83 275.487 110.712 275.487 108.097C275.487 105.482 277.608 103.362 280.222 103.362C282.837 103.362 284.956 105.482 284.956 108.097Z" fill="white"/>
<path d="M280.222 104.546C278.264 104.546 276.671 106.139 276.671 108.096C276.671 110.054 278.264 111.647 280.222 111.647C282.179 111.647 283.772 110.054 283.772 108.096C283.772 106.139 282.179 104.546 280.222 104.546ZM280.222 114.014C276.96 114.014 274.304 111.36 274.304 108.096C274.304 104.834 276.96 102.178 280.222 102.178C283.486 102.178 286.14 104.834 286.14 108.096C286.14 111.36 283.486 114.014 280.222 114.014Z" fill="black"/>
<path d="M299.16 108.097C299.16 110.712 297.041 112.83 294.425 112.83C291.81 112.83 289.691 110.712 289.691 108.097C289.691 105.482 291.81 103.362 294.425 103.362C297.041 103.362 299.16 105.482 299.16 108.097Z" fill="white"/>
<path d="M294.426 104.546C292.468 104.546 290.875 106.139 290.875 108.096C290.875 110.054 292.468 111.647 294.426 111.647C296.384 111.647 297.976 110.054 297.976 108.096C297.976 106.139 296.384 104.546 294.426 104.546ZM294.426 114.014C291.162 114.014 288.508 111.36 288.508 108.096C288.508 104.834 291.162 102.178 294.426 102.178C297.688 102.178 300.344 104.834 300.344 108.096C300.344 111.36 297.688 114.014 294.426 114.014Z" fill="black"/>
<path d="M313.364 108.097C313.364 110.712 311.245 112.83 308.631 112.83C306.016 112.83 303.896 110.712 303.896 108.097C303.896 105.482 306.016 103.362 308.631 103.362C311.245 103.362 313.364 105.482 313.364 108.097Z" fill="white"/>
<path d="M308.63 104.546C306.672 104.546 305.08 106.139 305.08 108.096C305.08 110.054 306.672 111.647 308.63 111.647C310.588 111.647 312.18 110.054 312.18 108.096C312.18 106.139 310.588 104.546 308.63 104.546ZM308.63 114.014C305.366 114.014 302.712 111.36 302.712 108.096C302.712 104.834 305.366 102.178 308.63 102.178C311.892 102.178 314.548 104.834 314.548 108.096C314.548 111.36 311.892 114.014 308.63 114.014Z" fill="black"/>
<path d="M294.706 375.597C243.82 362.548 229.617 389.67 231.194 419.812C233.1 456.195 204.367 430.859 136.509 446.64C68.6503 462.421 35.5096 489.446 54.4466 519.332C73.3855 549.217 -63.9236 550.795 -40.2458 613.919C-16.568 677.043 -84.7884 859.644 168.5 711C168.5 711 311.979 679.326 370.718 703C429.454 726.67 502 727 502 727C502 727 627.082 712.469 673.5 703C719.916 693.532 761.609 723.843 870.5 727C979.391 730.156 970 669.5 970 669.5C985.781 694.75 1130.32 628.222 997.761 519.332C865.2 410.441 839.162 463.211 794.58 432.747C770.39 416.217 776.04 402.152 756.394 381.936C745.658 370.89 724.644 364.177 693.58 356.686C663.335 349.397 613.792 336.396 565.158 330.147C550.9 328.313 536.72 327.061 523.129 326.705C497.413 326.028 470.769 328.255 446.559 331.889C414.33 336.729 386.409 344.068 370.718 350.375C343.24 361.424 310.764 379.715 294.706 375.597Z" fill="#B9D0FF"/>
<path d="M390.174 476.396C390.174 482.346 385.971 488.133 379.139 488.133C368.233 488.133 364.558 483.442 364.558 477.493C364.558 471.543 370.184 464.659 376.132 464.659C385.052 464.659 390.174 470.446 390.174 476.396Z" fill="#FFEC00"/>
<path d="M376.133 465.709C370.563 465.709 365.609 472.299 365.609 477.493C365.609 483.856 370.162 487.083 379.139 487.083C385.388 487.083 389.124 481.649 389.124 476.398C389.124 471.215 384.57 465.709 376.133 465.709ZM379.139 489.184C366.221 489.184 363.507 482.827 363.507 477.493C363.507 471.243 369.333 463.607 376.133 463.607C385.936 463.607 391.224 470.195 391.224 476.398C391.224 482.681 386.704 489.184 379.139 489.184" fill="black"/>
<path d="M658.357 426.314L654.528 437.603L659.656 439.344C664.208 440.888 667.133 439.748 668.43 435.923C669.038 434.133 668.896 432.552 668.002 431.184C667.109 429.814 665.503 428.737 663.192 427.953L658.357 426.314ZM661.964 415.683L666.355 417.173C668.447 417.882 670.208 418.004 671.646 417.534C673.079 417.064 674.084 415.982 674.659 414.29C675.681 411.275 673.905 408.99 669.327 407.438L665.232 406.05L661.964 415.683ZM654.384 390.105L673.207 396.491C680.54 398.979 684.586 395.239 687.405 398.614C690.223 401.992 692.707 410.405 690.33 417.229C689.28 420.235 687.657 422.554 685.383 424.163C683.111 425.769 680.601 426.45 677.861 426.203L677.736 426.572C680.781 428.588 681.5 425.316 682.303 427.884C683.104 430.454 684.919 436.694 683.04 442.232C681.385 447.111 678.241 450.33 673.611 451.889C668.982 453.448 663.491 453.153 657.144 450.998L636.145 443.875L634.537 436.462L654.384 390.105Z" fill="#FFEC00"/>
<path d="M663.431 414.962L666.725 416.077C668.566 416.704 670.099 416.822 671.284 416.431C672.362 416.079 673.107 415.255 673.562 413.915C673.88 412.979 674.724 410.49 668.956 408.534L665.957 407.516L663.431 414.962ZM669.779 418.971C668.624 418.971 667.357 418.737 665.98 418.272L661.593 416.783C661.299 416.683 661.059 416.474 660.924 416.199C660.79 415.924 660.769 415.603 660.866 415.313L664.134 405.676C664.338 405.072 665.001 404.75 665.602 404.95L669.7 406.341C676.279 408.576 676.624 412.098 675.755 414.66C675.059 416.711 673.799 418.046 672.006 418.634C671.321 418.858 670.576 418.971 669.779 418.971ZM655.995 436.88L660.028 438.244C665.106 439.968 666.597 437.711 667.333 435.549C667.825 434.103 667.728 432.878 667.033 431.814C666.287 430.676 664.87 429.745 662.818 429.049L659.081 427.782L655.995 436.88ZM663.212 441.173C662.092 441.173 660.792 440.951 659.281 440.44L654.157 438.701C653.55 438.493 653.225 437.836 653.429 437.232L657.26 425.94C657.359 425.65 657.569 425.411 657.844 425.274C658.121 425.139 658.441 425.119 658.727 425.216L663.562 426.854C666.116 427.722 667.934 428.963 668.97 430.55C670.063 432.227 670.253 434.159 669.528 436.292C668.712 438.694 666.962 441.173 663.212 441.173V441.173ZM637.136 442.987L657.512 449.901C663.588 451.961 668.881 452.263 673.24 450.792C677.552 449.341 680.397 446.42 681.945 441.858C683.769 436.479 681.834 430.269 681.196 428.229C681.187 428.199 681.177 428.171 681.17 428.14C680.382 428.428 679.025 428.811 677.095 427.537C676.655 427.243 676.468 426.698 676.638 426.197L676.762 425.832C676.932 425.327 677.383 424.997 677.964 425.051C680.443 425.272 682.654 424.673 684.716 423.217C686.768 421.767 688.248 419.682 689.234 416.848C691.486 410.384 689.053 402.401 686.515 399.356C685.487 398.128 684.342 398.175 681.855 398.394C679.515 398.605 676.599 398.866 672.832 397.587L655.027 391.548L635.747 436.579L637.136 442.987ZM667.333 454.024C664.093 454.024 660.561 453.378 656.768 452.094L635.772 444.971C635.386 444.84 635.096 444.516 635.01 444.118L633.406 436.708C633.354 436.474 633.374 436.227 633.47 436.006L653.32 389.65C653.56 389.094 654.19 388.819 654.756 389.01L673.577 395.394C676.88 396.517 679.408 396.288 681.647 396.088C684.11 395.869 686.444 395.66 688.291 397.872C691.25 401.42 693.986 410.251 691.42 417.608C690.286 420.87 688.478 423.395 686.053 425.109C685.094 425.783 684.099 426.309 683.062 426.691C683.212 426.959 683.318 427.256 683.408 427.539C684.101 429.757 686.204 436.509 684.138 442.603C682.367 447.821 678.95 451.314 673.981 452.985C671.928 453.68 669.708 454.024 667.333 454.024" fill="black"/>
<path d="M408.249 437.505L388.298 441.761L377.351 432.551L376.51 415.822C375.981 414.746 375.051 412.577 373.714 409.315C372.378 406.056 371.326 403.32 370.553 401.102C370.72 403 370.843 405.381 370.914 408.239C370.989 411.096 371.023 413.732 371.017 416.146C371.01 418.559 370.931 428.343 370.778 445.499L350.826 449.755L339.881 440.543L322.037 390.593L327.367 377.907L338.315 387.119L351.788 416.986C354.802 423.58 357.033 428.866 358.477 432.847C358.227 429.863 358.047 425.776 357.938 420.587C357.83 415.399 357.837 411.08 357.966 407.628L358.436 382.826L363.127 370.278L374.074 379.491L384.455 401.978C386.175 405.571 388.034 409.745 390.031 414.501C392.026 419.257 393.443 422.824 394.28 425.208C393.974 421.967 393.817 416.27 393.804 408.113L394.027 375.234L399.359 362.549L410.306 371.761L408.249 437.505Z" fill="#FFEC00"/>
<path d="M408.249 437.505H408.272H408.249ZM340.886 439.843L351.146 448.475L369.604 444.54C369.75 427.975 369.827 418.51 369.834 416.142C369.84 413.739 369.804 411.113 369.731 408.268C369.66 405.48 369.54 403.099 369.374 401.203C369.323 400.608 369.722 400.067 370.306 399.944C370.882 399.824 371.476 400.148 371.672 400.713C372.438 402.916 373.493 405.658 374.807 408.867C376.136 412.107 377.064 414.271 377.572 415.298C377.643 415.444 377.684 415.601 377.691 415.761L378.507 431.978L388.616 440.483L407.094 436.539L409.105 372.296L399.827 364.49L395.21 375.474L394.989 408.119C395 416.204 395.159 421.922 395.457 425.098C395.513 425.693 395.118 426.236 394.532 426.365C393.958 426.491 393.36 426.165 393.162 425.6C392.342 423.264 390.922 419.682 388.94 414.96C386.961 410.249 385.094 406.054 383.389 402.487L373.11 380.226L363.649 372.266L359.615 383.05L359.151 407.653C359.022 411.078 359.013 415.416 359.121 420.561C359.23 425.691 359.409 429.79 359.655 432.749C359.705 433.339 359.308 433.876 358.73 434.003C358.157 434.132 357.566 433.81 357.364 433.253C355.932 429.305 353.693 423.999 350.71 417.479L337.345 387.853L327.835 379.848L323.304 390.627L340.886 439.843ZM350.826 450.938C350.551 450.938 350.28 450.84 350.064 450.661L339.117 441.448C338.958 441.312 338.837 441.138 338.766 440.939L320.922 390.988C320.822 390.711 320.83 390.406 320.946 390.133L326.276 377.449C326.422 377.104 326.724 376.844 327.09 376.756C327.453 376.67 327.843 376.76 328.129 377.001L339.076 386.213C339.211 386.328 339.319 386.472 339.392 386.631L352.866 416.498C354.407 419.869 355.752 422.923 356.896 425.637C356.84 424.089 356.791 422.414 356.754 420.614C356.645 415.418 356.656 411.035 356.784 407.585L357.253 382.803C357.255 382.669 357.281 382.538 357.328 382.412L362.018 369.865C362.153 369.504 362.455 369.23 362.827 369.135C363.199 369.041 363.596 369.127 363.888 369.373L374.833 378.585C374.968 378.697 375.075 378.835 375.148 378.993L385.532 401.48C387.246 405.068 389.129 409.3 391.122 414.044C391.706 415.437 392.243 416.734 392.732 417.93C392.664 415.205 392.627 411.942 392.621 408.115L392.844 375.227C392.846 375.072 392.876 374.916 392.936 374.774L398.268 362.09C398.414 361.744 398.715 361.486 399.082 361.398C399.439 361.31 399.833 361.401 400.121 361.643L411.066 370.855C411.345 371.089 411.498 371.433 411.489 371.798L409.432 437.542C409.415 438.089 409.028 438.551 408.496 438.663L388.545 442.92C388.187 442.991 387.815 442.901 387.536 442.667L376.589 433.457C376.338 433.245 376.187 432.94 376.168 432.611L375.341 416.122C374.79 414.971 373.898 412.886 372.619 409.766C372.443 409.337 372.271 408.92 372.105 408.508C372.176 411.261 372.206 413.808 372.2 416.148C372.193 418.562 372.114 428.349 371.962 445.51C371.957 446.062 371.567 446.541 371.027 446.657L351.075 450.913C350.993 450.928 350.909 450.938 350.826 450.938" fill="black"/>
<path d="M397.303 428.293L377.352 432.549L365.564 406.61C365.034 405.534 364.104 403.365 362.768 400.103C361.432 396.844 360.38 394.108 359.607 391.89C359.773 393.788 359.897 396.169 359.968 399.027C360.043 401.885 360.077 404.52 360.071 406.934C360.063 409.347 359.985 419.132 359.831 436.287L339.88 440.543L311.091 381.381L327.368 377.907L340.842 407.775C343.855 414.368 346.086 419.654 347.531 423.635C347.28 420.651 347.101 416.564 346.992 411.376C346.884 406.187 346.891 401.868 347.02 398.416L347.49 373.614L363.127 370.279L373.509 392.766C375.229 396.36 377.088 400.533 379.085 405.289C381.08 410.045 382.497 413.612 383.333 415.997C383.028 412.755 382.871 407.058 382.858 398.901L383.081 366.023L399.36 362.549L397.303 428.293Z" fill="white"/>
<path d="M397.303 428.293H397.327H397.303ZM312.814 382.221L340.538 439.191L358.656 435.327C358.804 418.763 358.88 409.298 358.888 406.93C358.893 404.527 358.858 401.901 358.785 399.057C358.716 396.273 358.594 393.897 358.427 391.993C358.377 391.398 358.775 390.857 359.361 390.733C359.928 390.614 360.531 390.938 360.726 391.503C361.486 393.689 362.543 396.434 363.863 399.655C365.212 402.948 366.116 405.053 366.625 406.086L378.036 431.194L396.15 427.327L398.128 364.02L384.258 366.983L384.04 398.907C384.053 406.981 384.213 412.695 384.512 415.886C384.566 416.481 384.17 417.024 383.586 417.153C382.998 417.279 382.414 416.953 382.216 416.388C381.398 414.056 379.977 410.473 377.993 405.746C376.013 401.031 374.143 396.835 372.44 393.275L362.448 371.634L348.654 374.576L348.203 398.441C348.075 401.855 348.066 406.189 348.175 411.349C348.283 416.479 348.461 420.578 348.71 423.535C348.759 424.127 348.364 424.664 347.783 424.791C347.216 424.915 346.619 424.598 346.417 424.041C344.989 420.103 342.751 414.795 339.764 408.267L326.681 379.264L312.814 382.221ZM339.88 441.726C339.434 441.726 339.015 441.473 338.815 441.059L310.024 381.898C309.865 381.568 309.866 381.188 310.026 380.861C310.185 380.533 310.486 380.297 310.842 380.221L327.119 376.749C327.673 376.64 328.218 376.913 328.446 377.419L341.918 407.286C343.462 410.659 344.808 413.711 345.947 416.423C345.893 414.875 345.846 413.2 345.807 411.402C345.699 406.195 345.71 401.812 345.837 398.373L346.305 373.59C346.316 373.041 346.705 372.573 347.243 372.455L362.88 369.12C363.43 369.012 363.969 369.281 364.201 369.781L374.583 392.268C376.296 395.849 378.18 400.08 380.176 404.832C380.765 406.238 381.302 407.531 381.787 408.722C381.718 405.968 381.678 402.689 381.673 398.901L381.897 366.017C381.901 365.459 382.29 364.98 382.833 364.864L399.111 361.39C399.466 361.319 399.839 361.407 400.116 361.641C400.396 361.873 400.552 362.221 400.541 362.586L398.486 428.33C398.469 428.873 398.083 429.337 397.55 429.45L377.598 433.71C377.041 433.814 376.502 433.543 376.273 433.041L364.486 407.099C363.967 406.047 363.043 403.895 361.673 400.554C361.497 400.125 361.325 399.704 361.158 399.291C361.229 402.047 361.261 404.597 361.255 406.938C361.246 409.35 361.167 419.137 361.016 436.298C361.01 436.85 360.621 437.329 360.078 437.445L340.127 441.699C340.044 441.716 339.962 441.726 339.88 441.726" fill="black"/>
<path d="M168.258 481.903L155.124 483.6L146.412 476.879L148.748 434.24L169.205 423.754L177.919 430.473L179.3 441.175L163.264 443.246L164.481 452.666L170.556 444.036L179.268 450.754L180.651 461.457L165.864 463.368L168.258 481.903Z" fill="#FFEC00"/>
<path d="M164.588 444.269L165.264 449.495L169.382 443.65L164.588 444.269ZM147.628 476.324L155.459 482.364L166.932 480.882L164.689 463.521C164.65 463.208 164.734 462.894 164.925 462.643C165.118 462.398 165.401 462.235 165.711 462.194L179.325 460.436L178.157 451.395L170.813 445.727L165.447 453.347C165.167 453.743 164.667 453.925 164.195 453.815C163.722 453.695 163.37 453.3 163.304 452.817L162.088 443.399C162.005 442.75 162.462 442.156 163.112 442.072L177.976 440.152L176.806 431.108L169.076 425.149L149.891 434.984L147.628 476.324ZM155.124 484.782C154.865 484.782 154.609 484.698 154.403 484.537L145.689 477.818C145.38 477.582 145.21 477.206 145.23 476.819L147.566 434.176C147.588 433.755 147.834 433.378 148.208 433.186L168.665 422.699C169.073 422.495 169.563 422.534 169.928 422.817L178.64 429.534C178.889 429.725 179.052 430.008 179.091 430.318L180.475 441.022C180.559 441.67 180.102 442.265 179.453 442.349L171.618 443.362L179.99 449.819C180.239 450.01 180.403 450.294 180.443 450.603L181.826 461.307C181.865 461.619 181.781 461.934 181.588 462.181C181.395 462.43 181.113 462.591 180.802 462.634L167.19 464.389L169.43 481.75C169.514 482.4 169.058 482.993 168.408 483.077L155.275 484.775C155.225 484.782 155.176 484.782 155.124 484.782" fill="black"/>
<path d="M205.302 444.233C208.139 443.868 206.582 440.516 209.036 441.538C211.491 442.558 217.712 447.869 219.296 450.115C220.877 452.359 221.871 455.056 222.279 458.208C222.99 463.722 221.877 468.167 218.94 471.545C216 474.922 211.167 477.044 204.437 477.914C198.674 478.659 193.857 478.379 189.979 477.072L181.267 470.353L188.566 466.133C190.64 466.78 192.947 467.239 195.489 467.505C198.029 467.77 200.187 467.789 201.965 467.559C204.443 467.239 206.275 466.471 207.467 465.253C208.659 464.035 209.126 462.402 208.86 460.351C208.616 458.463 207.752 457.074 206.266 456.192C204.778 455.309 202.659 455.043 199.913 455.399C197.821 455.668 195.609 456.357 193.28 457.456L179.359 448.94L186.561 429.355L206.006 418.998L214.718 425.717L216.153 436.825L199.339 438.996L199.573 445.594C201.285 445.028 202.511 444.68 203.249 444.551C203.988 444.422 204.673 444.315 205.302 444.233Z" fill="#FFEC00"/>
<path d="M205.303 444.235H205.326H205.303ZM190.542 476.013C194.203 477.203 198.824 477.45 204.287 476.741C210.688 475.916 215.318 473.905 218.047 470.769C220.78 467.628 221.779 463.569 221.104 458.362C220.726 455.416 219.79 452.87 218.328 450.797C216.919 448.796 210.853 443.576 208.581 442.631C208.547 442.616 208.517 442.603 208.491 442.593C208.465 442.657 208.44 442.726 208.418 442.79C208.124 443.608 207.576 445.133 205.457 445.408H205.455C204.841 445.487 204.173 445.592 203.454 445.715C202.983 445.799 201.991 446.039 199.945 446.716C199.591 446.831 199.202 446.776 198.897 446.563C198.592 446.352 198.403 446.007 198.392 445.635L198.158 439.041C198.135 438.429 198.582 437.901 199.189 437.823L214.828 435.803L213.608 426.355L205.887 420.402L187.517 430.186L180.806 448.437L193.361 456.119C195.584 455.124 197.736 454.489 199.763 454.225C202.816 453.834 205.133 454.145 206.87 455.176C208.678 456.249 209.743 457.939 210.037 460.2C210.347 462.614 209.769 464.592 208.317 466.082C206.934 467.49 204.847 468.38 202.118 468.734C200.254 468.974 197.982 468.957 195.365 468.682C192.964 468.431 190.729 468.002 188.715 467.413L183.389 470.493L190.542 476.013ZM198.556 479.502C195.18 479.502 192.183 479.064 189.602 478.195C189.477 478.154 189.361 478.09 189.258 478.01L180.544 471.289C180.231 471.049 180.061 470.668 180.085 470.274C180.113 469.881 180.334 469.526 180.675 469.329L187.974 465.107C188.262 464.94 188.607 464.907 188.921 465.002C190.913 465.625 193.164 466.071 195.612 466.327C198.051 466.58 200.136 466.604 201.813 466.385C204.006 466.103 205.623 465.444 206.625 464.424C207.557 463.469 207.907 462.187 207.688 460.505C207.491 458.981 206.827 457.903 205.661 457.211C204.414 456.471 202.533 456.26 200.067 456.574C198.107 456.827 195.994 457.484 193.786 458.528C193.426 458.699 193.003 458.676 192.664 458.466L178.741 449.951C178.26 449.655 178.053 449.06 178.247 448.532L185.451 428.944C185.552 428.672 185.749 428.444 186.005 428.309L205.449 417.952C205.859 417.736 206.359 417.774 206.728 418.062L215.442 424.781C215.689 424.97 215.852 425.255 215.893 425.564L217.329 436.673C217.368 436.984 217.284 437.299 217.091 437.549C216.9 437.796 216.617 437.957 216.305 438L200.561 440.035L200.703 443.991C201.712 443.684 202.485 443.484 203.044 443.385C203.802 443.252 204.506 443.144 205.152 443.059C205.807 442.973 205.921 442.734 206.191 441.987C206.389 441.435 206.662 440.675 207.458 440.323C208.03 440.07 208.693 440.115 209.49 440.443C212.204 441.575 218.597 447.07 220.263 449.432C221.95 451.826 223.024 454.725 223.452 458.057C224.209 463.894 222.99 468.693 219.835 472.322C216.713 475.908 211.583 478.186 204.588 479.09C202.462 479.365 200.45 479.502 198.556 479.502Z" fill="black"/>
<path d="M159.545 475.184L146.412 476.88L140.035 427.519L169.206 423.754L170.587 434.454L154.551 436.528L155.768 445.946L170.556 444.035L171.939 454.738L157.151 456.649L159.545 475.184Z" fill="white"/>
<path d="M141.361 428.542L147.434 475.557L158.218 474.164L155.976 456.803C155.894 456.154 156.35 455.56 157 455.476L170.612 453.717L169.534 445.36L155.918 447.121C155.618 447.168 155.293 447.076 155.046 446.883C154.797 446.693 154.634 446.41 154.593 446.099L153.374 436.679C153.335 436.369 153.421 436.054 153.612 435.803C153.805 435.556 154.087 435.394 154.398 435.352L169.263 433.434L168.183 425.075L141.361 428.542ZM146.412 478.066C146.152 478.066 145.897 477.98 145.69 477.817C145.441 477.628 145.278 477.344 145.237 477.033L138.86 427.673C138.821 427.361 138.905 427.046 139.098 426.795C139.29 426.55 139.571 426.389 139.884 426.346L169.053 422.577C169.7 422.479 170.294 422.953 170.38 423.599L171.763 434.302C171.802 434.615 171.718 434.929 171.525 435.178C171.334 435.427 171.052 435.588 170.739 435.629L155.875 437.548L156.788 444.623L170.404 442.859C170.711 442.822 171.031 442.908 171.278 443.099C171.527 443.288 171.69 443.573 171.731 443.881L173.112 454.585C173.197 455.236 172.738 455.83 172.089 455.912L158.476 457.671L160.719 475.033C160.803 475.682 160.344 476.277 159.695 476.359L146.564 478.055C146.511 478.063 146.463 478.066 146.412 478.066Z" fill="black"/>
<path d="M196.589 437.514C199.426 437.149 202.071 437.475 204.527 438.497C206.98 439.519 209 441.151 210.583 443.397C212.165 445.641 213.159 448.338 213.567 451.489C214.278 457.003 213.166 461.448 210.228 464.827C207.287 468.203 202.455 470.325 195.724 471.196C189.962 471.941 185.144 471.66 181.266 470.353L179.855 459.414C181.927 460.061 184.235 460.52 186.776 460.786C189.316 461.052 191.474 461.07 193.252 460.84C195.73 460.52 197.562 459.751 198.755 458.534C199.947 457.316 200.413 455.684 200.149 453.632C199.904 451.744 199.039 450.355 197.553 449.474C196.065 448.59 193.946 448.325 191.201 448.68C189.108 448.95 186.896 449.638 184.568 450.737L179.359 448.938L177.849 422.637L206.005 418.996L207.441 430.106L190.626 432.277L190.86 438.875C192.573 438.308 193.799 437.961 194.538 437.832C195.275 437.703 195.96 437.596 196.589 437.514" fill="white"/>
<path d="M196.59 437.514H196.613H196.59ZM182.344 469.451C185.917 470.501 190.358 470.696 195.574 470.02C201.973 469.197 206.605 467.185 209.336 464.05C212.067 460.911 213.066 456.852 212.391 451.641C212.012 448.697 211.077 446.15 209.615 444.078C208.172 442.03 206.306 440.52 204.071 439.59C201.825 438.656 199.364 438.345 196.742 438.688H196.74C196.128 438.766 195.46 438.871 194.741 438.996C194.071 439.112 192.888 439.451 191.23 439.996C190.876 440.116 190.489 440.056 190.184 439.844C189.879 439.631 189.69 439.287 189.678 438.914L189.445 432.32C189.422 431.708 189.869 431.182 190.476 431.104L206.115 429.082L204.983 420.321L179.094 423.67L180.494 448.081L184.503 449.466C186.777 448.431 188.978 447.772 191.05 447.505C194.095 447.115 196.42 447.424 198.157 448.456C199.965 449.528 201.03 451.22 201.324 453.481C201.634 455.895 201.056 457.875 199.602 459.361C198.224 460.767 196.139 461.658 193.405 462.015C191.541 462.251 189.269 462.24 186.652 461.963C184.743 461.763 182.935 461.452 181.258 461.033L182.344 469.451ZM189.843 472.781C186.467 472.781 183.47 472.343 180.889 471.476C180.461 471.33 180.152 470.954 180.094 470.507L178.681 459.565C178.628 459.165 178.784 458.764 179.094 458.506C179.403 458.248 179.824 458.166 180.208 458.283C182.207 458.907 184.46 459.352 186.899 459.61C189.338 459.865 191.423 459.884 193.102 459.667C195.295 459.384 196.914 458.723 197.912 457.707C198.844 456.751 199.192 455.469 198.975 453.786C198.778 452.261 198.114 451.184 196.948 450.49C195.701 449.753 193.818 449.539 191.354 449.854C189.392 450.106 187.281 450.765 185.074 451.81C184.795 451.941 184.474 451.963 184.182 451.858L178.973 450.06C178.518 449.902 178.204 449.487 178.177 449.008L176.667 422.704C176.631 422.085 177.083 421.544 177.698 421.461L205.855 417.823C206.499 417.733 207.096 418.197 207.18 418.845L208.615 429.953C208.655 430.265 208.571 430.58 208.378 430.829C208.187 431.078 207.904 431.237 207.592 431.28L191.848 433.314L191.99 437.271C193.008 436.962 193.781 436.764 194.333 436.666C195.089 436.532 195.793 436.423 196.439 436.339C199.469 435.946 202.346 436.307 204.981 437.402C207.635 438.51 209.845 440.297 211.55 442.712C213.236 445.105 214.311 448.006 214.739 451.336C215.496 457.175 214.277 461.976 211.122 465.603C207.998 469.189 202.87 471.467 195.875 472.369C193.749 472.646 191.737 472.781 189.843 472.781" fill="black"/>
<path d="M655.597 419.092L651.684 430.631L656.926 432.407C661.577 433.987 664.566 432.82 665.891 428.913C666.511 427.084 666.367 425.469 665.455 424.069C664.54 422.671 662.9 421.57 660.538 420.769L655.597 419.092ZM659.283 408.231L663.771 409.755C665.908 410.477 667.709 410.603 669.176 410.12C670.641 409.641 671.669 408.536 672.255 406.807C673.301 403.724 671.486 401.392 666.808 399.803L662.623 398.387L659.283 408.231ZM651.538 382.092L670.771 388.619C678.263 391.16 683.451 394.157 686.331 397.606C689.213 401.055 689.859 405.124 688.268 409.809C687.222 412.892 685.539 415.252 683.217 416.895C680.892 418.536 678.33 419.233 675.526 418.98L675.399 419.358C678.512 421.417 680.48 423.76 681.298 426.386C682.118 429.012 681.961 432.001 680.823 435.358C679.129 440.346 675.916 443.635 671.186 445.229C666.455 446.822 660.844 446.519 654.358 444.32L632.898 437.039L651.538 382.092Z" fill="white"/>
<path d="M660.783 407.491L664.15 408.631C666.027 409.269 667.593 409.399 668.808 408.994C669.909 408.633 670.669 407.793 671.135 406.426C671.46 405.466 672.323 402.925 666.431 400.926L663.362 399.887L660.783 407.491ZM667.27 411.588C666.091 411.588 664.794 411.351 663.388 410.875L658.904 409.352C658.606 409.251 658.361 409.035 658.222 408.757C658.084 408.474 658.061 408.15 658.162 407.853L661.501 398.006C661.602 397.707 661.82 397.463 662.1 397.323C662.381 397.186 662.703 397.166 663.004 397.263L667.191 398.685C673.914 400.965 674.264 404.566 673.377 407.184C672.667 409.279 671.376 410.643 669.547 411.244C668.847 411.476 668.084 411.588 667.27 411.588ZM653.184 429.891L657.305 431.287C662.493 433.045 664.019 430.739 664.771 428.53C665.271 427.054 665.172 425.805 664.464 424.714C663.702 423.552 662.252 422.601 660.156 421.888L656.338 420.593L653.184 429.891ZM660.558 434.278C659.415 434.278 658.086 434.05 656.542 433.527L651.305 431.751C650.683 431.542 650.352 430.868 650.562 430.25L654.477 418.714C654.578 418.414 654.794 418.169 655.072 418.03C655.361 417.894 655.681 417.871 655.978 417.972L660.916 419.648C663.526 420.533 665.385 421.802 666.442 423.423C667.56 425.137 667.751 427.11 667.013 429.29C666.18 431.744 664.391 434.278 660.558 434.278V434.278ZM634.397 436.301L654.736 443.198C660.946 445.302 666.354 445.609 670.805 444.106C675.213 442.623 678.121 439.638 679.701 434.978C680.751 431.882 680.908 429.11 680.167 426.737C679.439 424.392 677.614 422.242 674.745 420.342C674.298 420.046 674.105 419.485 674.279 418.974L674.404 418.601C674.58 418.085 675.05 417.748 675.634 417.802C678.149 418.027 680.423 417.422 682.533 415.93C684.636 414.444 686.188 412.255 687.148 409.429C688.608 405.124 688.043 401.506 685.422 398.364C682.697 395.099 677.64 392.198 670.393 389.741L652.278 383.593L634.397 436.301ZM664.767 447.409C661.455 447.409 657.85 446.754 653.977 445.44L632.518 438.162C632.22 438.059 631.973 437.845 631.836 437.564C631.698 437.282 631.675 436.956 631.776 436.661L650.418 381.716C650.519 381.416 650.734 381.171 651.013 381.032C651.299 380.896 651.619 380.873 651.921 380.972L671.153 387.497C678.819 390.098 684.23 393.243 687.24 396.848C690.39 400.621 691.114 405.113 689.39 410.188C688.267 413.497 686.418 416.08 683.901 417.862C682.175 419.08 680.313 419.827 678.335 420.099C680.384 421.888 681.756 423.877 682.428 426.033C683.319 428.895 683.158 432.157 681.945 435.74C680.133 441.07 676.641 444.641 671.563 446.35C669.465 447.057 667.195 447.409 664.767 447.409" fill="black"/>
<path d="M383.482 477.118C383.482 483.818 378.051 489.248 371.351 489.248C364.65 489.248 359.219 483.818 359.219 477.118C359.219 470.417 364.65 464.986 371.351 464.986C378.051 464.986 383.482 470.417 383.482 477.118Z" fill="white"/>
<path d="M371.351 466.169C365.315 466.169 360.404 471.082 360.404 477.118C360.404 483.152 365.315 488.065 371.351 488.065C377.389 488.065 382.3 483.152 382.3 477.118C382.3 471.082 377.389 466.169 371.351 466.169ZM371.351 490.433C364.01 490.433 358.036 484.459 358.036 477.118C358.036 469.776 364.01 463.802 371.351 463.802C378.693 463.802 384.667 469.776 384.667 477.118C384.667 484.459 378.693 490.433 371.351 490.433Z" fill="black"/>
<path d="M517.862 450.82L521.356 447.664L528.631 445.737L521.245 443.712L517.862 450.82ZM543.484 449.811L540.551 443.76L547.978 459.078L544.88 470.375L531.979 466.839L523.916 483.33L511.996 480.06L504.571 464.741L506.971 469.69L504.612 478.037L492.735 474.78L485.309 459.459L490.699 455.52L493.798 444.221L502.305 442.441L509.413 440.468L498.825 437.565L491.401 422.246L511.846 424.425L527.208 401.028L534.633 416.345L526.596 432.744L533.123 431.486L546.424 406.294L551.757 418.166L548.62 425.501L556.044 440.818L552.872 452.385L543.484 449.811Z" fill="#FFEC00"/>
<path d="M521.888 445.114L521.242 446.471L524.084 445.718L521.888 445.114ZM517.864 452.003C517.615 452.003 517.366 451.925 517.157 451.771C516.702 451.432 516.55 450.822 516.794 450.311L520.178 443.203C520.423 442.684 521.003 442.424 521.557 442.57L528.944 444.595C529.461 444.736 529.816 445.207 529.813 445.741C529.811 446.278 529.451 446.744 528.935 446.881L521.935 448.735L518.654 451.7C518.431 451.902 518.147 452.003 517.864 452.003ZM512.826 479.063L523.283 481.928L530.917 466.319C531.166 465.81 531.746 465.548 532.292 465.698L544.052 468.923L546.717 459.192L542.44 450.367C542.435 450.356 542.427 450.341 542.42 450.328L539.485 444.273C539.202 443.686 539.448 442.978 540.035 442.692C540.627 442.407 541.334 442.655 541.617 443.242L544.318 448.814L552.045 450.931L554.786 440.936L547.554 426.016C547.406 425.709 547.396 425.35 547.531 425.035L550.466 418.176L546.337 408.992L534.172 432.041C534.003 432.357 533.702 432.581 533.348 432.651L526.822 433.908C526.378 433.985 525.925 433.821 525.656 433.463C525.382 433.107 525.338 432.626 525.532 432.224L533.316 416.343L527.054 403.42L512.837 425.074C512.594 425.445 512.156 425.651 511.722 425.602L493.397 423.648L499.657 436.566L509.726 439.325C510.241 439.467 510.597 439.933 510.597 440.467C510.597 440.998 510.243 441.468 509.73 441.608L502.622 443.583L494.748 445.23L491.841 455.833C491.77 456.091 491.613 456.317 491.398 456.475L486.805 459.832L493.565 473.779L503.793 476.583L505.708 469.8L503.507 465.26C503.223 464.67 503.47 463.963 504.057 463.678C504.652 463.392 505.352 463.639 505.639 464.229L512.826 479.063ZM523.917 484.513C523.812 484.513 523.709 484.498 523.604 484.47L511.684 481.202C511.353 481.111 511.081 480.882 510.932 480.575L507.263 473.006L505.751 478.357C505.573 478.986 504.922 479.351 504.301 479.177L492.421 475.921C492.092 475.829 491.819 475.601 491.669 475.294L484.244 459.976C483.995 459.463 484.149 458.844 484.611 458.505L489.666 454.809L492.655 443.907C492.773 443.478 493.12 443.152 493.556 443.061L502.062 441.285L504.965 440.474L498.514 438.707C498.182 438.616 497.909 438.387 497.761 438.08L490.337 422.761C490.149 422.376 490.185 421.917 490.432 421.563C490.679 421.211 491.096 421.028 491.527 421.067L511.256 423.171L526.219 400.377C526.451 400.021 526.867 399.813 527.286 399.845C527.711 399.873 528.089 400.128 528.274 400.511L535.701 415.831C535.858 416.156 535.858 416.54 535.697 416.866L528.705 431.133L532.343 430.433L545.377 405.743C545.587 405.344 546.019 405.138 546.461 405.112C546.914 405.125 547.318 405.396 547.503 405.81L552.835 417.68C552.972 417.983 552.974 418.325 552.845 418.63L549.921 425.469L557.11 440.304C557.235 440.56 557.262 440.858 557.187 441.131L554.014 452.698C553.839 453.328 553.183 453.691 552.562 453.527L545.689 451.642L549.043 458.563C549.167 458.818 549.195 459.114 549.12 459.389L546.023 470.689C545.938 470.991 545.736 471.251 545.465 471.406C545.195 471.558 544.868 471.601 544.567 471.519L532.613 468.239L524.98 483.849C524.778 484.262 524.361 484.513 523.917 484.513" fill="black"/>
<path d="M510.437 435.502L517.776 437.514L521.206 430.418L513.821 428.393L510.437 435.502ZM533.127 433.688L529.741 440.795L540.551 443.759L537.454 455.056L524.555 451.521L516.492 468.01L504.572 464.742L512.586 448.24L505.114 446.191L497.188 462.717L485.309 459.46L493.282 442.947L483.274 440.201L486.372 428.902L498.558 432.245L501.989 425.15L491.401 422.247L494.571 410.68L507.34 414.18L515.287 397.757L527.209 401.027L519.172 417.426L526.554 419.451L534.502 403.026L546.425 406.295L538.433 422.707L548.618 425.5L545.448 437.066L533.127 433.688Z" fill="white"/>
<path d="M512.113 434.732L517.141 436.11L519.519 431.184L514.462 429.797L512.113 434.732ZM517.777 438.696C517.674 438.696 517.569 438.683 517.464 438.657L510.126 436.643C509.785 436.551 509.508 436.312 509.36 435.994C509.214 435.674 509.22 435.309 509.37 434.992L512.752 427.886C512.997 427.367 513.581 427.107 514.131 427.253L521.516 429.278C521.857 429.37 522.136 429.611 522.284 429.93C522.43 430.25 522.424 430.618 522.273 430.935L518.844 438.03C518.642 438.445 518.224 438.696 517.777 438.696ZM506.261 463.978L515.859 466.611L523.491 451C523.744 450.489 524.318 450.225 524.867 450.377L536.628 453.604L539.098 444.586L529.431 441.936C529.091 441.844 528.814 441.607 528.666 441.287C528.52 440.967 528.526 440.603 528.675 440.285L532.059 433.179C532.304 432.662 532.89 432.398 533.44 432.546L544.62 435.612L547.167 426.329L538.121 423.851C537.783 423.757 537.5 423.517 537.356 423.196C537.212 422.874 537.215 422.507 537.371 422.19L544.738 407.06L535.138 404.427L527.62 419.965C527.371 420.48 526.789 420.734 526.242 420.592L518.859 418.567C518.518 418.472 518.235 418.236 518.091 417.914C517.947 417.59 517.953 417.223 518.108 416.905L525.516 401.788L515.92 399.158L508.406 414.698C508.157 415.209 507.571 415.468 507.028 415.324L495.402 412.134L492.854 421.418L502.302 424.008C502.639 424.098 502.92 424.339 503.066 424.659C503.212 424.979 503.206 425.346 503.055 425.664L499.624 432.758C499.377 433.272 498.799 433.532 498.247 433.385L487.2 430.356L484.728 439.372L493.596 441.803C493.934 441.897 494.215 442.136 494.359 442.456C494.505 442.778 494.502 443.145 494.348 443.461L486.994 458.696L496.549 461.315L504.047 445.679C504.296 445.163 504.876 444.904 505.426 445.049L512.899 447.094C513.24 447.188 513.519 447.429 513.665 447.749C513.809 448.069 513.805 448.438 513.652 448.754L506.261 463.978ZM516.493 469.196C516.388 469.196 516.285 469.181 516.18 469.155L504.26 465.885C503.921 465.793 503.641 465.552 503.495 465.232C503.351 464.912 503.354 464.543 503.508 464.225L510.901 449.003L505.754 447.592L498.256 463.229C498.009 463.744 497.431 464.006 496.875 463.86L484.996 460.602C484.659 460.51 484.378 460.27 484.232 459.952C484.086 459.632 484.092 459.262 484.243 458.947L491.599 443.712L482.961 441.341C482.33 441.169 481.96 440.517 482.132 439.888L485.23 428.591C485.402 427.957 486.057 427.596 486.686 427.76L497.921 430.843L500.304 425.913L491.088 423.386C490.457 423.214 490.086 422.561 490.259 421.932L493.431 410.367C493.513 410.064 493.714 409.806 493.987 409.653C494.26 409.495 494.582 409.452 494.885 409.538L506.704 412.78L514.219 397.242C514.468 396.729 515.046 396.469 515.596 396.617L527.521 399.885C527.861 399.98 528.142 400.218 528.29 400.538C528.432 400.862 528.428 401.23 528.273 401.547L520.863 416.664L525.918 418.05L533.437 402.51C533.684 401.998 534.264 401.734 534.814 401.883L546.736 405.151C547.075 405.245 547.358 405.486 547.5 405.806C547.646 406.128 547.64 406.495 547.487 406.813L540.122 421.942L548.932 424.358C549.235 424.442 549.493 424.642 549.649 424.916C549.804 425.187 549.845 425.509 549.761 425.812L546.59 437.377C546.416 438.009 545.763 438.371 545.136 438.206L533.768 435.09L531.417 440.027L540.863 442.615C541.494 442.789 541.866 443.441 541.694 444.07L538.595 455.369C538.513 455.672 538.312 455.93 538.041 456.085C537.771 456.241 537.444 456.286 537.143 456.2L525.189 452.922L517.554 468.534C517.352 468.945 516.935 469.196 516.493 469.196" fill="black"/>
<path d="M311.09 421.194C311.09 421.194 348.165 434.275 370.983 421.194C393.804 408.113 403.082 401.763 420.8 406.152C438.519 410.543 420.8 449.755 420.8 449.755L376.825 459.216L325.486 446.641L311.09 421.194Z" fill="#B9D0FF"/>
<path d="M454.979 455.517C454.979 455.517 470.021 447.232 497.765 455.517C525.512 463.803 552.735 470.445 571.672 468.01C590.609 465.577 566.849 487.473 566.849 487.473L527.681 502.86L465.445 477.348L454.979 455.517Z" fill="#B9D0FF"/>
<path d="M606.785 421.739C606.785 421.739 667.542 449.796 700.682 426.916C733.823 404.031 740.134 464.984 740.134 464.984L649.821 477.348L609.943 446.232L606.785 421.739Z" fill="#B9D0FF"/>
<path d="M132.958 466.367C132.958 466.367 138.636 473.494 169.415 474.589C225.672 476.588 237.901 450.318 237.901 450.318L249.737 487.821L200.922 502.86L140.035 497.241L132.958 466.367Z" fill="#B9D0FF"/>
<path d="M350.342 483.601C350.342 483.601 376.571 474.005 399.358 483.601C422.146 493.195 412.09 497.928 412.09 497.928L354.375 502.86L350.342 483.601Z" fill="#B9D0FF"/>
<path d="M805.872 501.05L790.524 497.634L783.723 486.938L797.116 468.009C797.919 464.41 798.728 461.136 799.544 458.185C798.346 459.122 796.903 460.06 795.222 461L787.702 464.827L782.003 453.434L804.7 442.057L811.526 434.396L818.325 445.091L805.872 501.05Z" fill="#FFEC00"/>
<path d="M791.258 496.585L804.971 499.638L817.064 445.312L811.367 436.353L805.582 442.847C805.482 442.958 805.363 443.049 805.228 443.119L783.59 453.963L788.226 463.231L794.685 459.944C796.28 459.052 797.681 458.138 798.812 457.251C799.212 456.937 799.776 456.912 800.199 457.197C800.625 457.481 800.818 458.005 800.684 458.496C799.875 461.423 799.063 464.71 798.271 468.264C798.237 468.419 798.172 468.561 798.082 468.692L785.145 486.972L791.258 496.585ZM805.872 502.235C805.786 502.235 805.699 502.226 805.613 502.207L790.268 498.79C789.959 498.721 789.693 498.533 789.525 498.269L782.724 487.575C782.465 487.167 782.48 486.645 782.755 486.252L796.014 467.517C796.527 465.221 797.049 463.034 797.575 460.985C797.011 461.335 796.42 461.685 795.799 462.031L788.237 465.881C787.958 466.023 787.627 466.046 787.33 465.95C787.03 465.853 786.783 465.638 786.641 465.355L780.944 453.965C780.652 453.379 780.887 452.669 781.471 452.376L803.966 441.101L810.64 433.607C810.886 433.33 811.245 433.186 811.619 433.218C811.99 433.246 812.325 433.448 812.523 433.761L819.325 444.455C819.493 444.721 819.548 445.043 819.482 445.348L807.026 501.307C806.957 501.616 806.77 501.88 806.506 502.05C806.315 502.172 806.094 502.235 805.872 502.235Z" fill="black"/>
<path d="M799.07 490.354L783.723 486.939L790.316 457.313C791.117 453.716 791.928 450.44 792.742 447.491C791.544 448.428 790.101 449.366 788.42 450.304L780.9 454.131L775.201 442.74L797.898 431.363L811.525 434.397L799.07 490.354Z" fill="white"/>
<path d="M785.135 486.039L798.171 488.942L810.113 435.296L798.051 432.608L776.789 443.267L781.425 452.539L787.884 449.25C789.471 448.36 790.873 447.448 792.015 446.557C792.415 446.239 792.973 446.222 793.398 446.505C793.825 446.787 794.017 447.311 793.883 447.802C793.074 450.731 792.262 454.016 791.472 457.57L785.135 486.039ZM799.069 491.538C798.983 491.538 798.899 491.53 798.813 491.51L783.465 488.094C782.829 487.95 782.425 487.319 782.567 486.681L789.159 457.057C789.692 454.673 790.229 452.41 790.774 450.289C790.211 450.639 789.619 450.987 788.996 451.337L781.435 455.187C781.156 455.331 780.824 455.352 780.529 455.256C780.229 455.159 779.982 454.944 779.84 454.661L774.143 443.269C773.851 442.685 774.087 441.975 774.671 441.682L797.368 430.304C797.609 430.181 797.884 430.147 798.154 430.207L811.781 433.239C812.088 433.308 812.354 433.497 812.524 433.759C812.692 434.025 812.747 434.347 812.681 434.652L800.226 490.609C800.155 490.918 799.969 491.184 799.705 491.352C799.514 491.474 799.294 491.538 799.069 491.538Z" fill="black"/>
<path d="M763.016 483.268C763.016 483.268 805.625 481.539 828.112 492.718C850.602 503.897 801.11 509.764 801.11 509.764L763.016 500.798V483.268Z" fill="#B9D0FF"/>
<path d="M582.407 302.705C582.407 302.705 584.009 300.03 584.468 297.285C584.926 294.539 582.179 291.791 580.004 290.189C577.831 288.587 572.336 284.009 575.77 281.949C579.203 279.89 597.056 274.397 601.404 271.059C605.754 267.722 605.754 261.578 604.608 258.832C603.465 256.087 591.335 245.329 568.217 245.329C545.1 245.329 517.406 256.543 513.285 256.772C509.165 257.002 509.394 249.22 509.394 249.22L508.913 245.329H493.487L491.078 249.22C491.078 249.22 492.001 254.494 487.651 254.947C483.303 255.4 462.04 243.998 446.681 238.005C437.297 234.342 422.678 231.557 418.3 231.595C411.403 231.653 401.134 237.088 398.845 245.557C396.558 254.026 404.338 271.649 406.17 275.884C408.001 280.118 409.375 282.407 408.459 284.696C407.542 286.985 405.255 295.224 404.797 297.513C404.338 299.802 404.338 303.912 404.797 304.26C405.255 304.608 411.605 310.337 412.09 310.448C412.579 310.558 415.792 311.179 414.518 308.271C416 309.873 416.698 312.619 418.072 310.448C419.446 308.278 418.072 298.428 418.072 293.622C418.072 288.815 426.202 282.596 426.876 282.177C427.552 281.761 434.093 282.177 435.867 282.177C437.642 282.177 439.814 279.89 435.867 278.155C431.918 276.42 428.371 277.372 425.396 277.142C422.422 276.914 417.613 275.997 419.674 269.59C420.561 266.828 421.023 262.662 421.263 258.815L421.504 258.832C429.974 267.301 450.228 275.884 450.228 275.884L463.389 284.696L503.7 294.767L533.655 289.272L542.126 281.514C542.126 281.514 541.735 275.527 550.137 275.527C554.49 275.527 560.709 274.872 561.793 274.017" fill="white"/>
<path d="M405.51 303.315C405.52 303.323 405.531 303.33 405.544 303.341C405.533 303.332 405.522 303.326 405.51 303.315ZM417.098 312.434C416.261 312.434 415.675 311.885 415.166 311.202C414.131 312.001 412.525 311.764 411.829 311.601C411.389 311.502 411.191 311.457 405.634 306.559C404.831 305.851 404.225 305.312 404.077 305.198C402.561 304.053 403.622 297.349 403.637 297.281C404.103 294.947 406.4 286.656 407.36 284.255C407.925 282.845 407.281 281.286 405.892 278.181C405.636 277.612 405.365 277.006 405.082 276.353L404.945 276.031C398.586 261.357 396.149 251 397.704 245.247C400.045 236.588 410.431 230.479 418.29 230.412H418.387C423.203 230.412 437.852 233.289 447.113 236.903C453.254 239.299 460.177 242.484 466.873 245.565C475.898 249.718 485.236 254.023 487.53 253.77C488.333 253.686 488.915 253.392 489.31 252.871C490.109 251.814 490.01 249.982 489.911 249.422C489.862 249.136 489.918 248.842 490.072 248.595L492.481 244.704C492.696 244.358 493.078 244.144 493.488 244.144H508.912C509.509 244.144 510.012 244.59 510.087 245.181L510.57 249.074C510.547 250.382 510.751 253.893 512.056 255.16C512.389 255.482 512.75 255.63 513.222 255.591C514.216 255.537 517.283 254.595 521.165 253.403C532.44 249.939 551.313 244.144 568.217 244.144C591.88 244.144 604.444 255.363 605.702 258.376C607.087 261.702 606.906 268.327 602.127 271.998C599.387 274.099 592.021 276.845 585.522 279.265C581.482 280.77 577.667 282.192 576.38 282.963C575.872 283.268 575.861 283.525 575.855 283.643C575.797 284.792 577.796 287.09 580.705 289.237C582.395 290.48 586.252 293.77 585.635 297.48C585.146 300.412 583.495 303.197 583.422 303.313C583.084 303.877 582.359 304.056 581.8 303.721C581.242 303.384 581.059 302.658 581.394 302.099C581.407 302.072 582.885 299.574 583.299 297.09C583.714 294.608 580.344 291.908 579.299 291.14C577.074 289.499 573.359 286.328 573.49 283.534C573.527 282.784 573.845 281.726 575.163 280.934C576.638 280.049 580.372 278.657 584.695 277.047C590.725 274.803 598.229 272.005 600.684 270.12C604.57 267.139 604.441 261.505 603.516 259.289C602.434 256.688 590.37 246.51 568.217 246.51C551.667 246.51 533.007 252.243 521.859 255.666C517.51 257.002 514.635 257.884 513.351 257.955C512.234 258.015 511.204 257.638 510.401 256.856C508.12 254.631 508.197 249.733 508.212 249.183L507.869 246.51H494.146L492.307 249.484C492.402 250.455 492.445 252.652 491.199 254.3C490.409 255.342 489.226 255.973 487.775 256.122C484.94 256.39 477.635 253.119 465.883 247.713C459.22 244.648 452.329 241.479 446.252 239.106C436.74 235.394 422.172 232.739 418.31 232.78C412.123 232.83 402.158 237.837 399.989 245.866C399.018 249.458 399.467 257.44 407.116 275.091L407.257 275.415C407.536 276.057 407.801 276.656 408.052 277.216C409.538 280.536 410.521 282.733 409.557 285.134C408.655 287.393 406.4 295.539 405.958 297.743C405.561 299.725 405.582 302.684 405.754 303.517C406.051 303.772 406.57 304.229 407.199 304.784C408.702 306.108 411.756 308.801 412.51 309.327C413.012 309.422 413.465 309.407 413.66 309.351C413.622 309.295 413.587 309.093 413.433 308.743C413.201 308.215 413.386 307.596 413.869 307.281C414.354 306.961 414.996 307.04 415.387 307.466C415.872 307.991 416.265 308.588 416.609 309.117C416.744 309.325 416.922 309.593 417.077 309.806C417.801 308.629 417.423 303.064 417.173 299.381C417.027 297.223 416.888 295.183 416.888 293.62C416.888 287.865 426.162 281.228 426.255 281.17C426.907 280.77 428.196 280.725 433.54 280.925C434.53 280.963 435.38 280.994 435.866 280.994C436.351 280.994 436.853 280.631 436.899 280.412C436.918 280.317 436.712 279.817 435.391 279.239C432.879 278.135 430.541 278.226 428.271 278.318C427.24 278.357 426.269 278.402 425.305 278.322C423.255 278.164 420.358 277.7 418.872 275.486C417.824 273.925 417.713 271.82 418.546 269.226C419.274 266.967 419.789 263.439 420.083 258.743C420.102 258.428 420.246 258.134 420.483 257.927C420.721 257.721 421.043 257.612 421.342 257.635L421.584 257.652C421.87 257.668 422.14 257.792 422.342 257.996C430.549 266.203 450.491 274.709 450.691 274.796L463.877 283.598L503.738 293.557L533.11 288.17L540.957 280.979C541.027 280.09 541.347 278.397 542.724 276.927C544.33 275.213 546.825 274.345 550.136 274.345C554.796 274.345 560.246 273.633 561.07 273.079C561.596 272.72 562.344 272.825 562.719 273.341C563.093 273.856 563.026 274.55 562.53 274.945C560.823 276.293 552.85 276.71 550.136 276.71C547.506 276.71 545.593 277.328 544.452 278.546C543.239 279.841 543.302 281.423 543.306 281.44C543.329 281.797 543.188 282.145 542.924 282.389L534.457 290.147C534.293 290.296 534.089 290.397 533.87 290.437L503.914 295.934C503.748 295.96 503.577 295.954 503.415 295.917L463.102 285.844C462.971 285.808 462.844 285.754 462.731 285.677L449.57 276.866C448.969 276.633 431.447 269.16 422.278 261.166C421.956 264.951 421.46 267.901 420.8 269.952C420.199 271.82 420.212 273.237 420.835 274.167C421.749 275.527 423.927 275.844 425.486 275.965C426.308 276.021 427.214 275.99 428.178 275.952C430.594 275.861 433.33 275.748 436.343 277.07C439.273 278.357 439.4 280.021 439.216 280.897C438.891 282.439 437.259 283.362 435.866 283.362C435.361 283.362 434.477 283.328 433.452 283.291C431.681 283.225 427.996 283.089 427.334 283.263C426.1 284.064 419.256 289.802 419.256 293.62C419.256 295.103 419.39 297.103 419.535 299.22C419.946 305.292 420.137 309.396 419.072 311.081C418.861 311.414 418.221 312.424 417.113 312.434H417.098Z" fill="black"/>
<path d="M522.44 208.592C522.44 208.592 526.79 201.969 535.543 203.479C544.299 204.988 530.606 213.82 524.579 213.266L520.379 223.698L513.284 231.594L501.882 229.077L489.253 228.849L483.759 223.698L481.128 212.178C481.128 212.178 466.537 208.079 467.224 202.584C467.911 197.091 479.741 204.645 479.741 204.645C479.741 204.645 481.961 199.195 483.709 198.618C485.455 198.04 485.133 191.314 485.133 191.314L515.803 188.794L522.44 197.492V208.592Z" fill="white"/>
<path d="M489.731 227.676L501.904 227.895L512.864 230.288L519.36 223.064L523.479 212.824C523.676 212.343 524.144 212.059 524.687 212.089C528.763 212.45 536.901 207.82 537.202 205.551C537.253 205.156 536.306 204.81 535.344 204.645C527.459 203.264 523.468 209.184 523.429 209.242C523.143 209.682 522.6 209.871 522.1 209.727C521.6 209.577 521.256 209.115 521.256 208.593V197.893L515.256 190.028L486.35 192.399C486.392 195.257 486.062 199.09 484.078 199.74C483.427 199.974 481.881 202.525 480.835 205.091C480.704 205.415 480.432 205.665 480.097 205.772C479.764 205.879 479.397 205.832 479.102 205.643C475.901 203.599 470.606 201.097 468.87 201.911C468.742 201.973 468.476 202.096 468.398 202.733C467.973 206.113 477.007 209.787 481.449 211.037C481.864 211.157 482.186 211.492 482.282 211.915L484.833 223.083L489.731 227.676ZM513.285 232.778C513.201 232.778 513.114 232.768 513.03 232.75L501.627 230.234L489.231 230.034C488.939 230.028 488.658 229.912 488.445 229.714L482.95 224.565C482.777 224.402 482.658 224.193 482.605 223.964L480.127 213.12C476.897 212.136 465.327 208.209 466.049 202.437C466.247 200.844 467.146 200.107 467.863 199.77C470.812 198.385 476.526 201.357 479.193 202.924C480.122 200.897 481.688 198.037 483.339 197.494C483.741 197.073 484.082 194.129 483.951 191.372C483.921 190.734 484.4 190.185 485.035 190.133L515.707 187.618C516.109 187.591 516.498 187.758 516.744 188.076L523.38 196.772C523.538 196.981 523.622 197.232 523.622 197.492V205.563C525.881 203.605 529.912 201.308 535.746 202.312C539.377 202.939 539.686 204.803 539.547 205.86C539.046 209.682 530.436 214.314 525.372 214.468L521.479 224.14C521.428 224.271 521.353 224.387 521.262 224.49L514.166 232.385C513.94 232.637 513.618 232.778 513.285 232.778Z" fill="black"/>
<path d="M565.924 331.262C558.535 330.311 551.161 329.497 543.862 328.847C541.419 328.632 538.984 328.432 536.561 328.256C533.517 328.029 530.487 327.838 527.478 327.679C524.009 327.496 520.569 327.357 517.157 327.268C501.722 326.86 485.997 327.356 470.526 328.512C468.089 328.696 465.656 328.894 463.233 329.109C460.53 329.349 457.839 329.605 455.158 329.882C446.017 330.826 437.03 331.977 428.316 333.285H428.319C428.319 333.285 414.179 328.069 414.524 304.035C414.868 280.004 440.958 275.866 450.229 275.884C457.103 275.897 487.994 283.781 506.19 284.123C524.388 284.468 545.329 281.033 555.973 281.377C566.615 281.72 580.003 293.051 580.003 307.125C580.003 321.202 567.858 331.509 565.915 331.262" fill="#FF7878"/>
<path d="M450.162 277.067C438.341 277.067 416.013 282.699 415.708 304.052C415.407 325.203 426.625 331.222 428.474 332.064C437.325 330.739 446.262 329.609 455.038 328.705C457.724 328.428 460.421 328.17 463.129 327.928C465.56 327.717 467.995 327.516 470.438 327.331C486.73 326.116 502.465 325.699 517.189 326.083C520.61 326.174 524.059 326.313 527.542 326.498C530.559 326.657 533.593 326.85 536.648 327.075C539.077 327.252 541.52 327.453 543.966 327.67C551.016 328.293 558.45 329.109 566.07 330.088C567.904 329.749 578.819 320.178 578.819 307.127C578.819 293.928 566.3 282.893 555.933 282.56C551.269 282.409 544.529 283.002 536.753 283.687C527.157 284.535 516.316 285.495 506.169 285.308C495.003 285.096 479.444 282.137 466.943 279.758C459.359 278.317 452.811 277.073 450.228 277.067H450.162ZM428.317 334.469C428.173 334.469 428.027 334.439 427.892 334.391C427.284 334.159 412.992 328.422 413.34 304.018C413.672 280.82 437.529 274.699 450.162 274.699H450.232C453.035 274.703 459.369 275.908 467.385 277.434C479.799 279.794 495.248 282.732 506.215 282.942C516.197 283.133 527.007 282.175 536.543 281.329C544.393 280.638 551.175 280.05 556.01 280.193C567.413 280.561 581.187 292.658 581.187 307.127C581.187 316.899 575.59 325.312 570.356 329.923C568.954 331.155 567.047 332.568 565.766 332.437C565.748 332.435 565.731 332.431 565.712 332.427C558.143 331.458 550.758 330.648 543.76 330.028C541.319 329.811 538.892 329.611 536.474 329.435C533.436 329.21 530.415 329.019 527.417 328.86C523.96 328.68 520.528 328.542 517.125 328.45C502.483 328.067 486.825 328.484 470.615 329.695C468.182 329.875 465.757 330.073 463.337 330.288C460.642 330.526 457.954 330.786 455.279 331.059C446.434 331.973 437.422 333.112 428.491 334.454C428.433 334.464 428.375 334.469 428.317 334.469" fill="black"/>
<path d="M559.523 316.537C542.211 316.537 516.852 314.374 490.865 309.665C449.967 302.253 415.448 311.413 415.102 311.506C414.466 311.673 413.82 311.302 413.65 310.673C413.479 310.043 413.85 309.395 414.481 309.223C414.827 309.128 449.837 299.82 491.288 307.335C533.253 314.941 570.515 315.414 578.749 312.41C579.366 312.189 580.046 312.506 580.268 313.116C580.493 313.73 580.177 314.409 579.565 314.634C576.151 315.88 569.056 316.537 559.523 316.537Z" fill="black"/>
<path d="M413.843 307.992C413.755 307.992 413.663 307.979 413.573 307.951C413.379 307.888 408.801 306.392 408.267 302.838C407.797 299.716 408.243 294.887 408.262 294.685C408.307 294.197 408.72 293.849 409.229 293.884C409.716 293.927 410.075 294.363 410.03 294.852C410.025 294.899 409.587 299.669 410.023 302.572C410.393 305.032 414.077 306.246 414.114 306.259C414.58 306.409 414.837 306.911 414.689 307.375C414.567 307.753 414.219 307.992 413.843 307.992Z" fill="black"/>
<path d="M581.491 305.147C581.24 305.147 580.988 305.038 580.814 304.83C580.499 304.456 580.546 303.895 580.92 303.58C581.639 302.977 581.813 299.41 581.525 296.455C581.476 295.968 581.832 295.534 582.32 295.487C582.798 295.448 583.243 295.794 583.29 296.285C583.453 297.933 583.844 303.443 582.064 304.939C581.897 305.077 581.691 305.147 581.491 305.147Z" fill="black"/>
<path d="M502.012 225.741C501.383 225.741 500.859 225.247 500.831 224.61C500.578 218.971 500.117 210.057 499.848 207.526C499.096 207.455 497.77 207.401 497.117 207.483C496.618 209.334 495.515 216.948 494.662 223.845C494.581 224.492 494.008 224.973 493.342 224.874C492.695 224.794 492.232 224.202 492.313 223.555C494.433 206.405 495.064 205.932 495.523 205.587C496.711 204.694 500.814 205.183 501.396 205.475C502.197 205.872 502.363 205.954 503.194 224.505C503.224 225.159 502.719 225.711 502.066 225.739C502.047 225.741 502.03 225.741 502.012 225.741Z" fill="black"/>
<path d="M491.777 216.45C491.959 217.52 489.719 217.294 487.08 217.739C484.441 218.187 482.399 219.135 482.219 218.063C482.037 216.992 483.784 214.309 486.425 213.863C489.063 213.418 491.596 215.379 491.777 216.45Z" fill="#FF9393"/>
<path d="M487.383 199.801C483.821 199.801 480.922 202.698 480.922 206.26C480.922 209.821 483.821 212.721 487.383 212.721C490.945 212.721 493.844 209.821 493.844 206.26C493.844 202.698 490.945 199.801 487.383 199.801ZM487.383 215.088C482.515 215.088 478.557 211.13 478.557 206.26C478.557 201.395 482.515 197.433 487.383 197.433C492.251 197.433 496.21 201.395 496.21 206.26C496.21 211.13 492.251 215.088 487.383 215.088Z" fill="black"/>
<path d="M503.72 217.641C503.46 218.804 505.927 218.686 508.792 219.324C511.659 219.964 513.84 221.119 514.098 219.957C514.358 218.794 512.599 215.753 509.732 215.113C506.866 214.475 503.98 216.479 503.72 217.641Z" fill="#FF9393"/>
<path d="M503.076 207.053C502.986 208.775 503.572 210.433 504.725 211.714C505.882 212.997 507.465 213.752 509.189 213.843C510.907 213.911 512.565 213.347 513.849 212.191C515.131 211.036 515.885 209.453 515.979 207.727C516.164 204.173 513.422 201.126 509.863 200.939C506.329 200.787 503.263 203.499 503.076 207.053ZM509.539 216.219C509.382 216.219 509.224 216.215 509.065 216.205C506.711 216.082 504.545 215.051 502.966 213.297C501.39 211.547 500.589 209.282 500.71 206.93C500.967 202.071 505.032 198.27 509.99 198.577C514.848 198.829 518.595 202.994 518.341 207.854C518.217 210.209 517.186 212.372 515.432 213.952C513.799 215.425 511.721 216.219 509.539 216.219Z" fill="black"/>
<path d="M487.385 181.299C487.385 181.299 482.502 178.895 478.554 182.158C474.605 185.418 472.584 192.972 476.512 195.547C480.443 198.121 481.173 198.514 483.709 198.618C486.245 198.721 485.764 196.404 488.682 194.688C491.599 192.972 494.862 193.144 495.719 195.032C496.578 196.921 496.92 199.12 499.324 198.622C501.729 198.121 500.87 194.001 503.445 193.659C506.02 193.316 506.587 195.205 509.393 195.375C512.198 195.547 511.684 194.258 513.917 196.275C516.148 198.293 517.692 197.031 518.208 198.693C518.721 200.353 520.267 202.757 521.296 204.645C522.328 206.532 522.44 208.592 522.44 208.592C522.44 208.592 526.791 204.372 529.535 203.479C529.535 203.479 527.819 200.831 529.535 198.618C531.251 196.404 533.496 193.488 530.915 191.598C528.336 189.71 526.447 191.942 525.588 189.882C524.731 187.821 523.7 176.492 515.805 176.32C507.907 176.15 507.737 181.985 504.132 181.126C500.525 180.269 500.183 174.596 496.406 176.316C492.629 178.038 495.715 184.218 492.627 184.046C489.539 183.874 490.883 182.137 487.385 181.299Z" fill="black"/>
<path d="M498.123 235.716C497.205 235.716 496.462 234.724 496.462 233.498C496.462 232.276 497.205 231.284 498.123 231.284C499.04 231.284 499.783 232.276 499.783 233.498C499.783 234.724 499.04 235.716 498.123 235.716ZM522.44 221.295C522.328 219.579 525.285 215.459 524.58 214.774C523.872 214.086 521.297 216.146 520.095 217.348C518.894 218.55 517.52 221.982 514.258 222.499C510.997 223.013 507.907 223.526 506.019 223.871C504.13 224.213 502.014 224.557 502.014 224.557C502.014 224.557 500.52 226.788 497.262 226.788C494.003 226.788 493.488 225.072 493.488 224.385V223.698C493.488 223.698 489.197 223.356 486.621 220.953C484.046 218.55 481.128 215.802 481.473 213.915C481.473 213.915 479.756 218.377 479.927 221.81C480.099 225.244 480.075 227.818 479.914 229.706C479.756 231.597 478.701 235.544 479.914 236.918C481.128 238.289 481.3 240.18 481.473 242.239C481.643 244.299 488.167 247.96 493.316 249.22C498.467 250.479 497.95 251.164 501.04 251.336C504.13 251.509 505.162 250.021 507.393 249.22C509.625 248.419 512.714 247.56 515.461 245.329C518.207 243.096 520.61 238.634 520.095 234.685C519.581 230.737 522.556 229.193 522.44 226.788C522.328 224.385 522.556 223.013 522.44 221.295" fill="black"/>
<path d="M496.768 228.028C495.404 228.028 494.307 227.617 493.508 226.803C492.272 225.545 492.297 223.847 492.304 223.658C492.327 223.001 492.881 222.517 493.53 222.517C494.18 222.539 494.689 223.082 494.67 223.731C494.67 223.776 494.676 224.624 495.209 225.155C495.557 225.504 496.104 225.65 496.843 225.661C499.531 225.618 500.715 224.796 500.844 224.504C500.814 223.851 501.312 223.351 501.966 223.319C502.662 223.295 503.163 223.853 503.195 224.504C503.214 224.927 503.107 225.573 502.488 226.23C501.453 227.33 499.409 227.989 496.882 228.028H496.768Z" fill="black"/>
<path d="M543.861 328.847C541.419 328.632 538.985 328.432 536.56 328.256C533.517 328.029 530.486 327.838 527.477 327.679C527.477 327.679 534.342 319.569 532.281 302.704C530.223 285.839 525.781 283.421 524.578 283.503C523.374 283.586 522.44 283.502 522.44 283.502C522.44 283.502 522.671 280.348 525.875 279.889C529.079 279.433 530.357 280.576 533.15 279.889C535.946 279.202 544.87 278.974 549.904 298.199C554.941 317.425 543.861 328.847 543.861 328.847Z" fill="white"/>
<path d="M529.629 326.614C531.957 326.747 534.297 326.902 536.647 327.074C538.88 327.237 541.121 327.42 543.37 327.617C545.178 325.453 553.043 314.847 548.764 298.5C543.788 279.52 535.116 280.622 533.432 281.038C531.757 281.455 530.54 281.291 529.365 281.128C528.36 280.995 527.417 280.871 526.041 281.062C524.965 281.214 524.364 281.785 524.033 282.348C524.181 282.343 524.336 282.333 524.495 282.322C525.193 282.322 531.003 282.464 533.458 302.562C535.023 315.375 531.594 323.278 529.629 326.614ZM543.861 330.031C543.827 330.031 543.793 330.029 543.76 330.027C541.319 329.81 538.892 329.612 536.473 329.436C533.436 329.211 530.415 329.019 527.417 328.86C526.969 328.837 526.576 328.562 526.395 328.15C526.217 327.74 526.286 327.261 526.573 326.917C526.638 326.84 533.073 318.925 531.109 302.85C529.032 285.841 524.671 284.69 524.626 284.684C523.387 284.776 522.375 284.688 522.331 284.682C521.689 284.62 521.212 284.061 521.259 283.417C521.362 281.998 522.423 279.187 525.708 278.717C527.407 278.474 528.616 278.64 529.681 278.781C530.767 278.929 531.624 279.047 532.867 278.742C535.772 278.021 545.657 277.312 551.051 297.899C556.196 317.546 545.184 329.187 544.714 329.672C544.488 329.904 544.181 330.031 543.861 330.031Z" fill="black"/>
<path d="M470.527 328.513C468.088 328.696 465.657 328.894 463.233 329.108C460.531 329.347 457.837 329.606 455.159 329.881C455.159 329.881 446.452 321.269 445.767 304.586C445.079 287.9 451.717 278.286 464.306 275.885C464.306 275.885 467.053 275.082 468.884 275.885C470.714 276.686 472.775 277.373 474.834 277.601C476.894 277.829 476.479 280.343 476.479 280.343C476.479 280.343 461.102 296.368 469.799 326.124L470.527 328.513Z" fill="white"/>
<path d="M466.89 276.712C465.956 276.712 465.018 276.907 464.634 277.021C452.209 279.4 446.294 288.649 446.949 304.536C447.53 318.625 454.005 326.808 455.624 328.646C458.117 328.389 460.618 328.152 463.128 327.927C465.07 327.757 467.015 327.598 468.963 327.444L468.666 326.467C460.438 298.324 473.133 282.335 475.331 279.845C475.331 279.538 475.276 279.166 475.125 278.969C475.087 278.921 475.003 278.81 474.702 278.779C472.779 278.561 470.661 277.955 468.407 276.969C467.977 276.778 467.434 276.712 466.89 276.712ZM455.158 331.066C454.848 331.066 454.548 330.944 454.327 330.723C453.957 330.358 445.282 321.588 444.584 304.633C443.884 287.633 450.627 277.293 464.082 274.721C464.297 274.65 467.193 273.852 469.356 274.8C471.393 275.69 473.279 276.237 474.964 276.424C475.823 276.518 476.532 276.907 477.013 277.543C477.913 278.732 477.676 280.354 477.646 280.536C477.608 280.77 477.498 280.989 477.333 281.161C477.183 281.316 462.549 297.105 470.934 325.792L471.658 328.169C471.763 328.513 471.707 328.885 471.503 329.181C471.299 329.477 470.973 329.668 470.616 329.696C468.183 329.874 465.755 330.074 463.337 330.287C460.64 330.527 457.954 330.787 455.28 331.058C455.239 331.064 455.199 331.066 455.158 331.066" fill="black"/>
<path d="M412.091 293.623C412.091 293.623 412.349 294.766 412.121 297.055C411.892 299.344 413.036 306.668 414.516 308.27C415.999 309.874 416.697 312.618 418.071 310.447C419.444 308.277 418.071 298.427 418.071 293.623C418.071 288.816 426.201 282.595 426.877 282.178C427.552 281.76 434.094 282.178 435.868 282.178C437.64 282.178 439.815 279.889 435.868 278.154C431.919 276.421 428.37 277.371 425.396 277.141C422.42 276.913 417.614 275.998 419.673 269.589C420.562 266.829 421.024 262.662 421.264 258.814C421.578 253.739 421.505 249.219 421.505 249.219" fill="white"/>
<path d="M417.098 312.434C415.951 312.434 415.279 311.406 414.628 310.411C414.336 309.967 414.021 309.477 413.649 309.074C411.794 307.068 410.71 299.267 410.942 296.939C411.145 294.919 410.937 293.883 410.935 293.873C410.8 293.237 411.206 292.606 411.839 292.469C412.475 292.337 413.104 292.728 413.245 293.36C413.276 293.497 413.54 294.764 413.299 297.175C413.061 299.542 414.311 306.304 415.388 307.467C415.872 307.991 416.263 308.588 416.608 309.117C416.744 309.325 416.92 309.591 417.078 309.806C417.8 308.629 417.422 303.067 417.173 299.381C417.025 297.223 416.889 295.183 416.889 293.62C416.889 287.865 426.162 281.229 426.256 281.17C426.905 280.768 428.197 280.719 433.54 280.925C434.529 280.963 435.38 280.995 435.867 280.995C436.352 280.995 436.853 280.631 436.9 280.412C436.919 280.317 436.711 279.817 435.39 279.239C432.876 278.135 430.536 278.226 428.272 278.316C427.239 278.357 426.267 278.401 425.305 278.322C423.256 278.165 420.357 277.701 418.871 275.486C417.823 273.925 417.714 271.82 418.547 269.226C419.273 266.967 419.79 263.439 420.082 258.743C420.39 253.774 420.323 249.284 420.321 249.235C420.312 248.586 420.832 248.047 421.485 248.035C422.168 247.977 422.678 248.548 422.689 249.2C422.689 249.243 422.76 253.826 422.445 258.891C422.14 263.785 421.586 267.506 420.8 269.952C420.199 271.82 420.213 273.237 420.836 274.167C421.749 275.528 423.928 275.844 425.487 275.966C426.307 276.022 427.214 275.99 428.176 275.952C430.593 275.861 433.329 275.747 436.342 277.068C439.271 278.357 439.4 280.021 439.215 280.897C438.891 282.439 437.257 283.362 435.867 283.362C435.361 283.362 434.478 283.328 433.451 283.291C431.682 283.226 427.997 283.089 427.332 283.263C426.101 284.064 419.254 289.802 419.254 293.62C419.254 295.103 419.391 297.104 419.535 299.218C419.945 305.292 420.138 309.396 419.071 311.081C418.861 311.414 418.221 312.425 417.113 312.434H417.098Z" fill="black"/>
<path d="M578.196 310.166C578.065 310.166 577.929 310.149 577.79 310.121C576.278 309.767 575.909 307.772 575.737 305.663C575.509 302.921 573.929 298.44 571.44 295.539C571.054 295.086 570.637 294.555 570.184 293.973C567.476 290.501 563.388 285.255 554.582 284.27C544.472 283.138 544.475 283.037 544.496 281.766C544.503 281.343 544.795 280.95 545.177 280.731C545.952 280.143 550.71 276.651 555.226 275.973C558.181 275.53 560.588 273.531 563.133 271.416C564.176 270.547 565.25 269.655 566.39 268.852C567.704 267.925 569.091 266.104 570.556 264.178C573.218 260.686 576.231 256.729 580.496 255.625C581.136 255.466 581.775 255.844 581.938 256.477C582.1 257.109 581.722 257.755 581.088 257.92C577.618 258.816 574.868 262.426 572.441 265.612C570.858 267.689 569.364 269.649 567.754 270.783C566.693 271.534 565.653 272.398 564.648 273.235C561.96 275.466 559.188 277.772 555.576 278.313C553.141 278.68 550.523 280.061 548.733 281.176C550.023 281.352 551.954 281.592 554.844 281.916C564.64 283.014 569.28 288.964 572.05 292.515C572.478 293.069 572.87 293.57 573.238 293.997C576.081 297.315 577.833 302.279 578.093 305.468C578.174 306.439 578.288 307.046 578.389 307.416C578.544 307.222 578.741 306.933 578.986 306.524C580.513 303.95 578.842 298.657 578.069 296.832C577.813 296.232 578.093 295.539 578.696 295.281C579.291 295.024 579.989 295.307 580.247 295.906C580.579 296.688 583.435 303.669 581.02 307.729C580.335 308.887 579.407 310.166 578.196 310.166Z" fill="black"/>
<path d="M579.157 296.368C579.157 296.368 582.177 303.463 580.003 307.126C577.83 310.789 577.143 308.354 576.914 305.565C576.686 302.778 575.082 297.97 572.335 294.768C569.591 291.564 565.492 284.3 554.711 283.093C543.933 281.887 545.806 281.745 545.806 281.745C545.806 281.745 550.82 277.83 555.4 277.143C559.976 276.456 560.832 274.382 564.721 271.637" fill="white"/>
<path d="M578.196 310.166C578.065 310.166 577.929 310.149 577.79 310.121C576.278 309.767 575.909 307.772 575.737 305.663C575.509 302.921 573.929 298.44 571.44 295.539C571.054 295.086 570.637 294.555 570.184 293.973C567.476 290.501 563.388 285.255 554.582 284.27C544.472 283.138 544.475 283.037 544.496 281.766C544.503 281.343 544.795 280.95 545.177 280.731C545.952 280.143 550.71 276.651 555.226 275.973C558.116 275.539 559.313 274.519 561.129 272.975C561.934 272.29 562.849 271.513 564.043 270.669C564.569 270.289 565.316 270.42 565.688 270.955C566.068 271.489 565.939 272.226 565.406 272.604C564.299 273.385 563.427 274.124 562.662 274.779C560.691 276.454 559.134 277.779 555.576 278.313C553.141 278.68 550.523 280.061 548.733 281.176C550.023 281.352 551.954 281.592 554.844 281.916C564.64 283.014 569.28 288.964 572.05 292.515C572.478 293.069 572.87 293.57 573.238 293.997C576.081 297.315 577.833 302.279 578.093 305.468C578.174 306.439 578.288 307.046 578.389 307.416C578.544 307.222 578.741 306.933 578.986 306.524C580.513 303.95 578.842 298.657 578.069 296.832C577.813 296.232 578.093 295.539 578.696 295.281C579.291 295.024 579.989 295.307 580.247 295.906C580.579 296.688 583.435 303.669 581.02 307.731C580.335 308.887 579.407 310.166 578.196 310.166Z" fill="black"/>
</g>
<defs>
<clipPath id="clip0">
<rect width="1000" height="666.667" fill="white"/>
</clipPath>
</defs>
</svg>
