<svg width="600" height="600" viewBox="0 0 600 600" fill="none" xmlns="http://www.w3.org/2000/svg">
<path d="M263.8 528.23C223.44 526.23 183.18 520.52 144.04 510.32C130.66 506.83 117.27 502.92 104.23 498.16C111.97 508.09 120.11 517.88 131.51 523.65C139.68 527.78 148.92 529.51 157.81 531.37C166.7 533.23 175.46 534.85 184.34 536.29C250.24 546.97 316.79 543.56 383.16 540.29C415.89 538.67 446.7 530.42 477.42 519.37C502.42 510.37 532.06 494.73 533.74 465.13C520.024 475.251 505.506 484.238 490.33 492C420.84 527.4 340.49 532.11 263.8 528.23Z" fill="#58595B"/>
<path d="M380.84 548.22C345.05 549.82 309.08 551.81 273.25 551.44C237.699 551.065 202.253 547.524 167.33 540.86C164.33 540.3 161.33 539.75 158.33 539.17C166.33 547.04 174.64 554.47 184.08 560.58C195.587 568.303 209.141 572.409 223 572.37C275.4 572.76 328 572.48 380.38 571.06C403.52 570.43 429.24 571.46 451.26 563.31C470.26 556.31 480.83 540.09 489.64 523.03C486.23 524.47 482.84 525.78 479.53 526.97C447.29 538.54 415.15 546.68 380.84 548.22Z" fill="#58595B"/>
<path d="M548.31 392.59C543.565 388.148 538.53 384.026 533.24 380.25C529.55 377.75 525.54 376.2 521.62 374.37C496.62 392.72 470.48 409.71 441.9 421.91C387.58 445.12 328.9 443.4 270.99 441.39C231.81 440.02 191.89 434.98 153.64 424.63L149.13 423.39C133.672 419.047 118.502 413.736 103.71 407.49L88.3799 419.59C84.1783 423.08 80.2284 426.863 76.5599 430.91C68.4299 439.91 62.6399 451.12 54.3599 459.91C68.5399 474.25 85.2499 483.22 104.13 489.91C124.292 497.027 144.887 502.853 165.79 507.35C204.317 515.587 243.549 520.085 282.94 520.78C322.94 521.65 363.99 520.27 403.4 512.96C469.14 500.76 529.73 466.56 574.58 417.1C565.3 409.81 557.13 400.43 548.31 392.59ZM124.81 485.35C114.53 484.27 104.71 479.42 95.5699 474.77C86.1999 470 75.4099 464.58 68.2699 456.65C67.9599 456.31 68.2699 455.55 68.7799 455.77C78.1199 459.71 86.5699 465.93 95.6599 470.46C105.34 475.27 115.89 478.46 125.22 483.84C125.87 484.22 125.64 485.44 124.81 485.35ZM147.67 493C145.181 492.817 142.727 492.309 140.37 491.49C138.001 490.896 135.686 490.103 133.45 489.12C132.67 488.76 133.15 487.72 133.84 487.66C138.39 487.27 144.42 488.14 148.28 490.76C148.502 490.897 148.675 491.103 148.771 491.346C148.867 491.589 148.881 491.856 148.813 492.108C148.744 492.36 148.596 492.584 148.39 492.744C148.184 492.905 147.931 492.995 147.67 493ZM485.59 410.8C482.36 414.29 477.75 416.27 473.66 418.63C468.96 421.337 464.26 424.047 459.56 426.76C452.48 430.82 445.14 435.11 436.79 435.46C435.79 435.46 435.7 434.07 436.56 433.76C445.17 430.66 452.87 426.46 460.73 421.84C467.98 417.58 476.22 410.78 484.46 408.84C484.705 408.784 484.962 408.808 485.193 408.909C485.424 409.009 485.617 409.181 485.743 409.399C485.869 409.617 485.922 409.869 485.895 410.12C485.867 410.37 485.76 410.605 485.59 410.79V410.8ZM503.46 399.32C501.8 402.03 497.96 403.39 495.07 404.17C494.899 404.207 494.72 404.183 494.565 404.102C494.41 404.021 494.288 403.888 494.22 403.727C494.152 403.565 494.143 403.385 494.194 403.218C494.245 403.051 494.354 402.906 494.5 402.81C495.86 401.97 497.17 401.05 498.5 400.2C499.7 399.292 501.011 398.539 502.4 397.96C502.576 397.916 502.761 397.924 502.933 397.983C503.104 398.041 503.255 398.149 503.368 398.291C503.48 398.434 503.548 398.606 503.564 398.787C503.581 398.968 503.544 399.15 503.46 399.31V399.32Z" fill="#939598"/>
<path d="M155.73 361.31C152.37 379.94 153.22 397.86 154.37 416.42C167.94 420.17 181.66 423.42 195.64 425.93C224.37 431.09 253.29 433.1 282.44 433.79C311.38 434.48 340.49 435.43 369.34 432.42C397.436 429.5 424.8 421.661 450.18 409.26C467.171 400.842 483.513 391.172 499.07 380.33C479.45 338.1 452.78 301.06 415.49 272.62C413.49 271.06 412.79 268.46 414.69 266.43C423.024 257.515 430.438 247.782 436.82 237.38C437.281 236.647 437.961 236.078 438.762 235.751C439.564 235.425 440.448 235.358 441.29 235.56C450.73 237 465.46 237.66 465.22 224.27C465.05 214.27 457.68 202.96 449.5 197.59C441.14 192.11 427.38 191.99 422.5 202.27C417.95 211.85 424.41 223.38 430.76 230.41C431.438 231.117 431.817 232.06 431.817 233.04C431.817 234.02 431.438 234.962 430.76 235.67C422.31 244.47 414.16 253.83 405.01 261.94C405.26 264.68 401.8 267.58 398.89 265.94C389.96 260.88 381.39 256.48 371.45 253.69C362.462 251.262 353.287 249.589 344.02 248.69C326.628 246.878 309.085 247.082 291.74 249.3C274.093 251.625 256.77 255.964 240.11 262.23C231.295 265.525 222.7 269.383 214.38 273.78C206.38 278 198.91 283.35 190.83 287.36C190.212 287.664 189.51 287.755 188.835 287.617C188.16 287.48 187.55 287.122 187.1 286.6C186.779 286.492 186.474 286.345 186.19 286.16C171.313 276.482 155.694 267.996 139.48 260.78C137.14 259.78 137.27 256.5 138.72 254.88C145.2 247.68 137.37 238.88 129.36 238.88C121.35 238.88 115.16 245.11 111.9 251.88C108.75 258.42 107.32 268.45 113.09 274.11C117.09 278.11 125.15 278.86 128.52 273.67C129.52 272.11 132.02 271.03 133.71 272.3C146.825 282.155 160.661 291.013 175.1 298.8C175.956 299.312 176.576 300.14 176.829 301.104C177.081 302.069 176.945 303.094 176.45 303.96C166.383 321.782 159.379 341.169 155.73 361.31ZM398.2 309.61C400.214 308.741 402.42 308.413 404.6 308.66C413.74 309.66 418.49 320.35 413.69 328.07C410.8 332.7 405.69 333.79 400.99 332.59C397.963 332.14 395.217 330.565 393.3 328.18C392.244 327.116 391.376 325.882 390.73 324.53C387.78 318.26 391.87 310.17 398.2 309.61ZM282.2 353.27C283.03 350.27 287.63 350.89 287.65 354.01C287.65 361.9 293.25 369.66 301.97 367.41C311.58 364.93 310.08 356.07 309.75 348.41C309.64 345.99 313.1 344.41 314.75 346.34C323.47 356.82 314.81 372.6 302.56 374.79C290.31 376.98 278.79 365.58 282.15 353.27H282.2ZM190.11 345.34C192.87 337.04 202.45 331.18 210.89 335.45C218.58 339.34 219.3 349.8 212.83 355.25C206.36 360.7 195.47 357.25 192.57 349.41C192.132 349.319 191.717 349.14 191.35 348.883C190.984 348.626 190.673 348.297 190.438 347.916C190.203 347.535 190.049 347.11 189.984 346.667C189.919 346.224 189.945 345.772 190.06 345.34H190.11Z" fill="#FFDE00"/>
<path d="M201.6 349.26C204.19 350.91 207.91 350.55 209.1 347.41C210.16 344.61 208.39 342.58 205.95 342.1C205.698 342.264 205.409 342.364 205.11 342.392C204.81 342.42 204.508 342.375 204.23 342.26C204.027 342.184 203.816 342.134 203.6 342.11C202.024 342.479 200.576 343.267 199.41 344.39C198.7 346.24 200 348.25 201.6 349.26Z" fill="white"/>
<path d="M407.4 321.88C407.537 321.671 407.691 321.474 407.86 321.29C407.872 320.053 407.451 318.85 406.67 317.89C403.82 314.56 397.9 317.1 398.78 321.53C399.74 326.43 405.26 325.26 407.4 321.88Z" fill="white"/>
<path d="M580.08 412C576.19 407.37 571.4 403.34 567.02 399.25C561.56 394.15 555.997 389.15 550.33 384.25C543.92 378.71 535.28 370.81 526.23 368.15C526.52 305.98 519.23 243.15 499.23 184.06C489.296 154.401 475.787 126.062 459 99.6699C450.59 86.5799 441.45 73.6699 430.44 62.5899C419.05 51.1499 405.44 42.5899 390.79 35.9499C360.14 21.9499 327.91 13.9499 294.23 19.3299C277.38 22.0399 260.74 26.6899 244.32 31.3299C230.16 35.3299 216.11 39.6799 202.4 45.0099C176.11 55.2099 150.76 68.8599 130.56 88.8399C108.65 110.51 94.6501 138.75 87.1101 168.42C77.5901 205.86 78.3001 244.88 81.3701 283.11C84.6501 323.82 89.1701 364.47 93.5301 405.11C93.5725 405.453 93.6599 405.789 93.7901 406.11C91.1706 407.869 88.6407 409.758 86.2101 411.77C81.1155 415.757 76.3807 420.184 72.0601 425C67.9865 429.653 64.2122 434.559 60.7601 439.69C56.5701 445.77 51.7601 451.98 48.6701 458.69C48.4685 459.137 48.3918 459.631 48.4481 460.119C48.5045 460.607 48.6918 461.07 48.9901 461.46C48.9273 461.808 48.9366 462.165 49.0174 462.509C49.0983 462.853 49.249 463.176 49.4601 463.46C59.1901 477.14 74.4101 485.89 89.5801 492.4C90.9001 492.97 92.2301 493.5 93.5801 494.04C93.5801 494.1 93.5801 494.16 93.6601 494.21C101.11 506.09 109.75 517.79 121.3 525.99C129.52 531.82 139.16 534.99 149.02 537.25C149.106 537.612 149.266 537.952 149.49 538.25C162.66 555.93 183.49 573.49 205.49 578.32C218.34 581.13 232.06 579.99 245.11 579.93L287.7 579.7C316.21 579.55 344.7 579.6 373.24 578.97C387.39 578.66 401.54 578.19 415.66 577.28C427.08 576.55 438.66 575.47 449.66 572.03C475.78 563.86 488.89 542.29 500.37 519.03C500.558 518.645 500.687 518.234 500.75 517.81C522.97 506.33 542.69 488.67 541.63 461.64C541.6 460.926 541.375 460.235 540.98 459.64C556.542 447.473 570.923 433.866 583.93 419C586.8 415.75 583 414.37 580.08 412ZM90.9201 301.84C87.7301 267.47 85.1601 232.67 89.5301 198.27C93.3201 168.41 102.63 138.67 119.94 113.8C136.5 89.9999 160.38 72.9099 186.33 60.5999C211.93 48.4599 239.41 40.7299 266.79 33.7599C283.69 29.4499 300.87 25.2799 318.43 25.4899C335.18 25.6999 351.61 29.6999 367.32 35.2999C382.54 40.7299 397.74 47.2999 410.94 56.7599C424.14 66.2199 434.65 78.8899 443.94 92.1199C461.017 116.646 475.016 143.178 485.62 171.12C509.48 233.41 518.06 300.51 517.86 366.93C513.8 369.93 509.707 372.89 505.58 375.81C488.74 333.81 458.58 296.72 423.24 268.75C430.257 260.909 436.612 252.5 442.24 243.61C454.71 245.05 469.93 243.77 472.73 228.84C475.35 214.84 464.78 198.28 453.37 190.94C441.96 183.6 424.37 184.47 416.72 196.94C409.59 208.65 415.2 222.94 423.11 232.85C415.43 240.85 407.48 248.69 400.48 257.27C385.92 247.27 367.15 243.27 350.02 241.06C330.671 238.55 311.079 238.55 291.73 241.06C272.673 243.449 253.99 248.22 236.12 255.26C220.76 261.37 203.34 268.86 190.4 279.79C190.282 279.68 190.155 279.579 190.02 279.49C176.212 270.546 161.767 262.628 146.8 255.8C147.717 253.706 148.208 251.452 148.244 249.167C148.281 246.882 147.863 244.612 147.014 242.49C146.166 240.368 144.903 238.437 143.301 236.807C141.698 235.178 139.788 233.884 137.68 233C125.21 227.74 112.42 235.48 106.27 246.41C100.53 256.59 98.9701 271.95 108.77 280.33C115.54 286.13 125.91 286.33 132.33 280.62C143.722 289.037 155.665 296.681 168.08 303.5C158.5 321.277 151.876 340.495 148.47 360.4C145.56 377.64 144.15 396.74 147.15 414.4C132.21 410.06 117.42 405.17 102.63 400.01C102.217 399.86 101.774 399.813 101.338 399.872C100.903 399.932 100.488 400.096 100.13 400.35C97.2101 367.48 94.0001 334.67 90.9201 301.84ZM175.1 298.73C160.661 290.943 146.826 282.085 133.71 272.23C132.02 270.96 129.53 272.04 128.52 273.6C125.15 278.79 117.14 278.03 113.09 274.04C107.32 268.38 108.75 258.35 111.9 251.81C115.16 245.02 121.36 238.76 129.36 238.81C137.36 238.86 145.2 247.65 138.72 254.81C137.27 256.43 137.14 259.67 139.48 260.71C155.693 267.928 171.312 276.414 186.19 286.09C186.474 286.274 186.779 286.422 187.1 286.53C187.55 287.052 188.16 287.41 188.835 287.547C189.51 287.685 190.212 287.594 190.83 287.29C198.91 283.29 206.37 277.93 214.38 273.71C222.701 269.313 231.295 265.455 240.11 262.16C256.77 255.894 274.093 251.555 291.74 249.23C309.085 247.012 326.628 246.808 344.02 248.62C353.287 249.519 362.462 251.192 371.45 253.62C381.39 256.41 389.96 260.81 398.89 265.87C401.8 267.52 405.26 264.62 405.01 261.87C414.16 253.76 422.31 244.4 430.76 235.6C431.439 234.892 431.817 233.95 431.817 232.97C431.817 231.99 431.439 231.047 430.76 230.34C424.41 223.34 417.95 211.78 422.5 202.2C427.38 191.92 441.14 192.04 449.5 197.52C457.69 202.89 465.05 214.22 465.22 224.2C465.46 237.59 450.73 236.93 441.29 235.49C440.448 235.288 439.564 235.355 438.762 235.681C437.961 236.008 437.281 236.577 436.82 237.31C430.442 247.715 423.027 257.447 414.69 266.36C412.79 268.36 413.45 270.99 415.49 272.55C452.78 300.99 479.49 338.03 499.07 380.26C483.513 391.102 467.171 400.772 450.18 409.19C424.8 421.591 397.436 429.43 369.34 432.35C340.49 435.35 311.34 434.41 282.44 433.72C253.29 433.03 224.37 431.02 195.64 425.86C181.64 423.34 167.94 420.1 154.37 416.35C153.22 397.79 152.37 379.87 155.73 361.24C159.371 341.074 166.376 321.664 176.45 303.82C176.924 302.961 177.047 301.952 176.796 301.004C176.545 300.056 175.937 299.241 175.1 298.73V298.73ZM451.25 563.31C429.25 571.46 403.51 570.43 380.37 571.06C328 572.48 275.37 572.76 222.99 572.37C209.128 572.411 195.57 568.305 184.06 560.58C174.62 554.47 166.28 547.04 158.31 539.17C161.31 539.75 164.36 540.3 167.31 540.86C202.233 547.524 237.679 551.065 273.23 551.44C309.06 551.81 345.03 549.82 380.82 548.22C415.13 546.68 447.27 538.54 479.5 526.97C482.81 525.78 486.2 524.47 489.61 523.03C480.82 540.09 470.22 556.29 451.25 563.31ZM477.42 519.37C446.7 530.37 415.89 538.67 383.16 540.29C316.79 543.56 250.24 546.97 184.34 536.29C175.46 534.85 166.617 533.21 157.81 531.37C148.92 529.51 139.68 527.78 131.51 523.65C120.11 517.88 111.97 508.09 104.23 498.16C117.23 502.92 130.66 506.83 144.04 510.32C183.18 520.52 223.44 526.19 263.8 528.23C340.49 532.11 420.8 527.4 490.33 491.95C505.505 484.204 520.023 475.234 533.74 465.13C532.06 494.73 502.43 510.37 477.42 519.37V519.37ZM403.42 513.01C364.01 520.32 322.96 521.7 282.96 520.83C243.562 520.136 204.323 515.638 165.79 507.4C144.888 502.915 124.293 497.104 104.13 490C85.2501 483.26 68.5401 474.29 54.3601 460C62.6401 451.21 68.4301 440 76.5601 431C80.2287 426.953 84.1785 423.17 88.3801 419.68L103.71 407.58C118.502 413.826 133.672 419.136 149.13 423.48L153.64 424.72C191.89 435 231.81 440 271 441.39C328.91 443.39 387.59 445.12 441.91 421.91C470.49 409.71 496.66 392.72 521.63 374.37C525.55 376.2 529.56 377.75 533.25 380.25C538.54 384.026 543.575 388.148 548.32 392.59C557.14 400.43 565.32 409.81 574.59 417.15C529.73 466.61 469.14 500.81 403.4 513L403.42 513.01Z" fill="#231F20"/>
<path d="M393.3 328.18C395.217 330.565 397.963 332.14 400.99 332.59C405.73 333.79 410.8 332.7 413.69 328.07C418.49 320.35 413.74 309.65 404.6 308.66C402.421 308.413 400.214 308.741 398.2 309.61C391.87 310.17 387.78 318.26 390.73 324.53C391.376 325.882 392.245 327.116 393.3 328.18V328.18ZM406.67 317.89C407.451 318.85 407.872 320.053 407.86 321.29C407.691 321.474 407.537 321.671 407.4 321.88C405.26 325.26 399.74 326.43 398.78 321.53C397.9 317.1 403.82 314.56 406.67 317.89Z" fill="#231F20"/>
<path d="M302.48 374.84C314.73 372.65 323.39 356.84 314.67 346.39C313.05 344.45 309.59 346.04 309.67 348.46C310 356.07 311.5 364.93 301.89 367.46C293.17 369.71 287.61 361.95 287.57 354.06C287.57 350.94 282.95 350.27 282.12 353.32C278.79 365.58 290.19 377 302.48 374.84Z" fill="#231F20"/>
<path d="M192.52 349.41C195.42 357.23 206.19 360.8 212.78 355.25C219.37 349.7 218.53 339.34 210.84 335.45C202.4 331.18 192.84 337.04 190.06 345.34C189.944 345.769 189.916 346.217 189.978 346.657C190.04 347.097 190.19 347.52 190.42 347.901C190.65 348.281 190.955 348.611 191.316 348.87C191.676 349.13 192.086 349.313 192.52 349.41V349.41ZM199.41 344.41C200.576 343.287 202.024 342.499 203.6 342.13C203.815 342.154 204.027 342.204 204.23 342.28C204.508 342.395 204.81 342.44 205.11 342.412C205.409 342.384 205.697 342.284 205.95 342.12C208.39 342.6 210.16 344.63 209.1 347.43C207.91 350.57 204.19 350.93 201.6 349.28C200 348.25 198.7 346.24 199.41 344.39V344.41Z" fill="#231F20"/>
<path d="M484.46 408.84C476.22 410.77 467.98 417.57 460.73 421.84C452.87 426.46 445.17 430.66 436.56 433.76C435.7 434.07 435.76 435.5 436.79 435.46C445.14 435.11 452.48 430.82 459.56 426.76C464.266 424.093 468.967 421.383 473.66 418.63C477.75 416.27 482.36 414.29 485.59 410.8C485.765 410.615 485.876 410.379 485.906 410.127C485.936 409.874 485.883 409.619 485.756 409.398C485.629 409.178 485.434 409.004 485.201 408.904C484.967 408.803 484.707 408.781 484.46 408.84V408.84Z" fill="#231F20"/>
<path d="M502.42 398C501.031 398.579 499.72 399.332 498.52 400.24C497.17 401.09 495.86 402.01 494.52 402.85C494.374 402.946 494.265 403.09 494.214 403.258C494.163 403.425 494.172 403.605 494.24 403.767C494.308 403.928 494.43 404.061 494.585 404.142C494.74 404.223 494.919 404.247 495.09 404.21C497.98 403.43 501.82 402.07 503.48 399.36C503.568 399.199 503.606 399.016 503.591 398.834C503.576 398.651 503.509 398.477 503.396 398.332C503.283 398.188 503.131 398.079 502.958 398.02C502.784 397.961 502.597 397.954 502.42 398V398Z" fill="#231F20"/>
<path d="M125.22 483.84C115.89 478.42 105.34 475.27 95.66 470.46C86.57 465.93 78.12 459.71 68.78 455.77C68.26 455.55 67.96 456.31 68.27 456.65C75.41 464.58 86.2 470 95.57 474.77C104.71 479.42 114.57 484.27 124.81 485.35C125.64 485.44 125.87 484.22 125.22 483.84Z" fill="#231F20"/>
<path d="M148.28 490.75C144.42 488.13 138.39 487.26 133.84 487.65C133.15 487.71 132.67 488.75 133.45 489.11C135.686 490.093 138.001 490.886 140.37 491.48C142.727 492.299 145.181 492.807 147.67 492.99C147.931 492.985 148.184 492.895 148.39 492.734C148.596 492.574 148.744 492.35 148.813 492.098C148.881 491.846 148.867 491.579 148.771 491.336C148.675 491.093 148.502 490.887 148.28 490.75V490.75Z" fill="#231F20"/>
<path d="M380.46 67.9101C388.46 71.0401 396.23 74.7401 402.73 80.3701C408.8 85.6101 414.28 91.7401 419.73 97.6301C425.197 103.472 430.344 109.604 435.15 116C439.45 121.81 442.95 128.37 447.71 133.8C448.47 134.66 449.83 133.74 449.56 132.72C447.48 124.82 442 117.72 437.1 111.33C432.173 104.964 426.892 98.8811 421.28 93.1101C415.61 87.2201 409.78 81.0201 403.15 76.1901C396.52 71.3601 388.71 68.8601 381 66.1001C379.81 65.6901 379.36 67.4801 380.46 67.9101Z" fill="#231F20"/>
<path d="M460.74 160.25C460.888 160.489 461.116 160.667 461.383 160.753C461.651 160.839 461.94 160.826 462.199 160.718C462.458 160.609 462.67 160.412 462.797 160.161C462.924 159.91 462.957 159.623 462.89 159.35C461.4 153.02 457.89 146.47 454.44 140.97C453.73 139.83 451.77 140.55 452.21 141.91C454.2 148.07 456.9 155 460.74 160.25Z" fill="#231F20"/>
</svg>
