<svg width="1024" height="768" viewBox="0 0 1024 768" fill="none" xmlns="http://www.w3.org/2000/svg">
<path fill-rule="evenodd" clip-rule="evenodd" d="M350 354.115C353.14 385.817 356.28 417.519 359.419 449.221C376.514 439.467 393.609 429.712 410.703 419.958V492.18V511.163C410.703 512.843 409.706 518.613 410.703 520.068C411.549 521.301 417.813 521.336 419.294 521.544C428.959 522.898 438.648 524.102 448.35 525.173C473.921 527.997 501.289 532.043 526.958 528.798C549.27 525.977 570.901 518.041 591.286 508.807C598.443 505.565 605.5 502.095 612.426 498.387C613.894 497.601 619.225 495.745 620.023 494.145C620.675 492.837 619.145 488.244 618.941 486.869C618.08 481.077 617.218 475.284 616.357 469.492L604.326 388.604L627.053 411.299C628.834 413.077 632.214 418.125 634.678 418.913C636.484 419.491 640.957 417.702 642.743 417.359C655.611 414.878 668.48 412.398 681.349 409.919C684.347 409.341 691.104 409.363 693.631 407.552C694.992 406.576 695.056 404.591 695.536 402.71C698.675 390.413 701.814 378.117 704.952 365.822C705.518 363.607 708.672 356.623 707.87 354.393C707.582 353.594 706.191 353.047 705.339 352.526C685.917 340.663 666.493 328.8 647.071 316.937C636.431 310.439 625.791 303.94 615.151 297.441C610.695 294.719 605.22 289.814 600.17 288.291C597.035 287.346 592.474 288.054 589.23 287.961C582.637 287.773 576.046 287.585 569.453 287.397C568.421 287.368 564.806 286.632 563.937 287.24C563.214 287.746 563.514 288.451 563.277 289.657C562.697 292.603 562.693 295.779 562.407 298.769C562.178 301.168 562.633 305.568 561.552 307.74C560.861 309.128 561.737 308.575 560.803 309.246C559.69 310.045 556.138 309.787 554.814 309.941C548.354 310.691 541.894 311.442 535.434 312.192C527.754 313.084 519.988 314.758 512.272 313.987C500.574 312.819 487.961 312.877 476.474 310.412C473.489 309.772 472.414 308.09 470.111 305.791C465.617 301.303 461.168 296.763 456.624 292.322C454.397 290.146 455.351 290.515 453.055 291.341C450.178 292.375 447.26 294.87 444.656 296.457C434.679 302.534 424.702 308.612 414.724 314.689L353.812 351.793C352.541 352.567 351.271 353.341 350 354.115Z" fill="#FFDE00"/>
<path fill-rule="evenodd" clip-rule="evenodd" d="M932.616 358.056C920.059 405.727 894.805 457.706 843.926 472.901C831.557 476.595 819.523 479.384 806.675 477.977C805.452 477.843 804.429 478.015 803.266 478.037C801.182 478.076 802.983 478.825 800.645 478.104C798.822 477.541 797.117 476.134 795.219 475.512C790.169 473.86 784.787 473.541 779.656 472.206C767.049 468.926 754.056 464.877 741.84 460.354C736.088 458.225 730.801 455.259 725.391 452.406C719.891 449.507 714.062 447.706 708.5 445.047C704.105 442.945 696.574 440.205 693.484 436.263C690.189 432.058 694.748 423.107 696.051 418.637C700.482 403.427 705.76 388.44 709.09 372.927C720.591 386.255 736.552 394.509 753.076 399.832C762.042 402.721 771.265 404.809 780.591 406.116C789.057 407.302 798.192 408.738 806.678 407.054C813.085 405.782 821.128 402.837 825.703 397.947C827.336 396.201 829.295 393.001 828.38 390.465C827.219 387.246 823.835 388.761 822.003 386.359C820.408 384.266 820.658 379.372 820.149 376.824C819.25 372.314 818.014 367.928 816.506 363.587C813.579 355.158 809.932 346.71 809.057 337.741C808.298 329.959 810.07 322.601 813.952 315.849C815.785 312.657 820.392 303.973 824.888 304.334C829.826 304.73 823.167 325.538 822.95 329.782C822.087 346.609 824.344 364.538 832.978 379.286C836.284 384.933 841.065 391.508 848.123 392.208C855.6 392.948 861.631 387.066 865.19 381.114C873.873 366.593 869.495 346.667 865.098 331.448C859.703 312.775 845.623 299.905 836.72 283.135C850.012 284.471 857.13 292.915 863.951 303.628C871.462 315.422 877.308 329.582 880.191 343.305C881.647 350.239 880.642 357.201 880.651 364.203C880.655 366.529 880.654 375.11 884.447 374.772C888.499 374.411 889.889 364.733 890.486 361.78C891.852 355.008 893.33 348.235 894.516 341.43C896.616 329.389 897.55 317.056 900.064 305.099C900.489 303.078 901.335 297.47 904.362 298.984C906.694 300.15 906.32 308.824 906.406 310.84C906.615 315.808 906.91 320.776 906.949 325.749C907.009 333.12 905.539 340.75 906.26 348.076C906.731 352.863 909.3 358.152 912.485 351.697C915.643 345.294 916.288 337.31 918.048 330.424C919.899 323.196 921.809 315.86 925.735 309.44C926.824 307.659 927.994 304.831 930.415 305.669C932.173 306.279 933.471 310.447 934.015 311.918C936.468 318.567 936.052 325.959 935.897 332.919C935.708 341.448 934.792 349.787 932.616 358.056ZM687.765 370.427C687.095 370.21 684.244 369.94 683.537 369.878C682.709 369.806 683.649 368.279 681.644 368.713C682.031 369.673 682.718 370.313 683.708 370.634C680.692 371.654 678.468 369.135 676.406 368.811C674.434 368.501 674.351 368.811 672.403 370.894C670.294 368.322 670.689 369.926 668.955 369.927C668.324 369.928 668.297 370.881 667.27 370.767C666.373 370.667 666.279 369.307 665.749 369.147C662.871 368.276 659.911 372.658 656.647 368.857C655.856 372.812 646.796 367.858 643.31 368.553C639.656 369.28 641.232 370.59 638.279 368.351C635.465 366.218 636.25 367.635 632.977 369.381C633.053 369.34 631.129 370.639 631.308 370.66C629.043 370.395 629.171 368.053 626.302 368.177C623.265 368.309 621.968 370.69 619.189 367.76C618.584 369.954 618.46 369.009 617.035 369.562C616.251 369.748 615.566 369.542 614.978 368.945C614.8 369.548 614.409 369.918 613.804 370.054C612.252 370.193 609.34 370.409 607.931 369.662C605.817 368.541 607.517 368.11 606.05 366.849C605.393 370.326 603.953 369.587 600.915 369.912C598.598 370.16 598.088 369.449 595.874 369.103C593.694 368.763 590.877 369.609 588.75 369.969C587.873 370.119 586.697 370.731 585.804 370.516C584.998 370.322 584.653 369.697 584.172 369.533C583.588 369.337 583.713 368.825 582.703 368.578C582.007 368.409 580.762 369.061 580.066 369.174C575.109 369.979 570.347 369.987 565.618 368.037C567.947 372.13 560.174 369.92 558.788 368.225C557.056 370.939 554.961 369.023 551.469 369.235C548.107 369.439 543.05 370.469 541.687 366.282C541.42 367.132 539.512 369.603 538.753 369.98C536.549 371.072 536.286 369.456 534.237 368.798C531.448 367.902 532.03 369.603 530.301 369.948C527.381 370.533 525.804 368.477 523.223 367.384C523.114 369.083 523.058 370.128 521.589 371.186C520.288 366.449 515.645 371.574 516.443 365.243C514.676 366.393 512.19 367.276 511.687 369.603C514.641 368.79 512.002 370.721 511.879 370.785C511.488 370.989 510.169 369.138 509.863 368.877C509.779 369.75 509.696 370.624 509.613 371.497C508.436 370.909 507.331 369.855 506.376 369.327C505.515 368.852 506.749 367.862 505.295 367.794C504.528 367.757 503.729 369.417 502.924 369.559C501.694 369.774 502.285 368.01 501.77 368.069C500.986 368.159 499.709 369.306 499.116 369.284C497.171 369.212 498.487 368.307 497.004 367.892C494.352 367.15 494.522 368.884 492.616 369.509C488.255 370.941 488.694 364.353 484.257 368.747C483.196 369.798 482.512 371.422 481.058 371.331C478.047 371.142 479.104 367.573 479.716 365.825C480.349 366.137 468.715 372.113 468.807 371.879C468.88 370.446 470.71 369.341 469.075 368.068C467.738 370.937 466.331 370.987 463.247 371.521C461.748 371.781 461.453 372.128 459.85 371.504C458.828 371.109 458.141 369.479 457.126 369.389C457.263 369.401 455.398 370.821 455.113 370.948C453.43 371.707 452.365 370.847 450.73 371.159C449.336 371.425 448.786 372.61 447.399 372.286C445.548 371.853 446.636 369.642 444.089 370.259C443.217 370.47 442.694 372.148 441.322 372.494C439.184 373.036 436.562 372.026 434.303 372.553C432.509 372.972 431.177 373.149 429.608 373.236C428.341 373.307 428.862 372.321 426.529 373.485L425.54 370.991C424.372 372.042 423.204 373.091 422.037 374.142C421.815 373.2 421.675 372.247 421.615 371.281C419.873 373.026 417.68 373.324 415.339 373.481C412.803 373.65 410.914 374.203 408.447 374.667C407.667 374.813 405.658 375.047 405.017 374.774C405.111 374.814 403.817 374.276 404.208 374.378C404.039 374.036 403.883 373.688 403.739 373.334C403.521 372.35 402.813 372.307 401.617 373.204C400.998 373.109 399.798 372.297 399.181 372.497C397.59 373.013 397.807 374.247 396.221 374.066C395.193 373.948 394.667 372.428 393.596 372.325C391.957 372.167 390.537 374.002 389.06 374.402C393.55 373.183 383.235 374.129 386.442 374.213C384.34 374.158 382.157 374.054 380.213 374.996C379.14 374.262 380.443 372.786 379.358 372.179C378.374 371.628 378.299 373.083 378.184 373.115C378.804 372.939 378.494 374.177 377.873 374.397C375.938 375.083 374.39 373.339 374.289 371.609C372.645 374.084 372.183 373.089 369.765 373.242C367.38 373.393 365.323 374.643 362.937 374.62C358.219 374.575 355.017 372.935 353.441 368.722C358.47 369.334 363.53 366.101 368.447 366.863C370.063 367.113 371.073 368.327 372.488 368.111C374.233 367.846 375.45 365.943 377.687 365.738C382.62 365.287 387.483 365.726 392.45 364.97C398.383 364.066 404.575 363.531 410.564 363.971C415.193 364.312 418.941 362.542 423.635 362.201C429.704 361.759 435.824 361.681 441.903 361.362C448.149 361.034 454.871 360.037 461.101 360.357C463.045 360.456 464.719 360.647 466.649 360.531C467.465 360.481 468.238 359.927 469.095 360.01C470.21 360.118 470.689 361.26 471.846 361.22C473.812 361.153 475.914 359.533 478.251 359.489C482.094 359.416 485.921 359.425 489.773 359.206C493.166 359.013 496.8 358.221 500.176 358.264C502.558 358.294 503.146 360.323 504.534 360.533C507.03 360.909 519.656 353.724 520.747 360.172C527.32 355.674 536.136 359.483 543.452 358.638C552.852 357.552 562.423 358.52 571.886 358.133C581.515 357.74 591.421 358.104 601.012 359.012C604.985 359.388 608.823 359.741 612.808 359.513C614.583 359.411 616.636 358.958 618.412 359.367C618.842 359.467 622.136 361.765 621.727 361.831C623.527 360.216 622.309 359.98 625.474 359.897C627.914 359.833 630.221 360.36 632.647 360.503C637.002 360.761 641.389 360.158 645.735 360.291C649.362 360.402 652.909 360.937 656.556 360.963C660.487 360.992 665.13 361.103 667.974 364.272C667.674 363.277 667.374 362.282 667.073 361.287C671.461 361.63 675.797 363.196 680.234 362.464C679.111 363.539 677.972 364.417 677.543 365.993C679.935 365.69 681.555 364.02 684.074 364.007C686.189 363.994 686.629 365.055 688.863 363.684C689.138 365.364 689.412 367.044 689.687 368.723C692.78 367.995 690.751 365.689 690.977 363.61C693.49 364.365 695.619 363.498 694.628 367.114C693.864 369.902 690.384 371.276 687.765 370.427ZM683.419 401.483C682.34 404.513 673.012 402.782 670.805 402.461C667.955 402.048 664.694 401.394 662.07 401.069C661.755 400.649 661.377 400.293 660.938 400C660.607 400.46 660.19 400.786 659.685 400.978C658.48 401.242 658.476 402.486 656.892 402.211C656.819 404.052 658.097 403.006 659.077 403.674C656.608 405.329 657.737 403.424 656.352 403.454C656.009 402.967 655.531 402.776 654.918 402.881C654.138 403.083 653.418 403.417 652.76 403.883C652.143 404.535 651.614 404.568 651.174 403.985C650.753 403.561 650.238 403.299 649.63 403.199C647.198 403.595 646.518 404.674 643.779 404.498C639.866 404.246 635.633 405.277 631.781 404.734C629.394 404.398 625.405 400.647 624.322 404.303C622.671 401.593 620.042 399.749 618.463 396.979C625.823 396.554 633.181 396.047 640.548 395.781C646.998 395.549 654.054 396.275 660.081 395.971C665.728 395.686 671.707 395.062 677.472 394.547C683.583 394.001 685.605 395.341 683.419 401.483ZM491.394 401.93C494.066 402.67 496.611 400.993 499.203 401.523C500.06 401.698 501.834 403.258 502.224 403.289C502.938 403.346 505.036 401.814 505.936 401.609C511.63 400.313 518.526 400.451 524.218 401.247C527.235 401.668 527.697 400.288 530.33 399.618C533.066 398.92 536.956 399.457 539.838 399.265C546.616 398.811 553.392 399.134 560.125 398.638C567.037 398.129 573.915 397.854 580.831 397.498C585.541 397.256 596.862 394.569 600.765 398.066C603.985 400.949 599.838 405.955 596.617 407.098C594.209 407.95 593.055 406.153 591.267 406.325C589.232 406.519 589.941 408.925 588.124 406.694C586.998 408.913 579.921 407.967 577.892 408.113C573.473 408.433 569.733 409.32 566.725 405.197C566.929 406.385 567.133 407.575 567.336 408.764C563.347 406.632 559.065 407.314 555.602 408.058C553.887 408.426 548.623 410.968 546.766 409.872C545.487 409.118 547.741 407.828 545.584 407.184C544.453 406.846 542.502 408.723 541.121 408.629C537.299 408.366 538.384 405.796 534.629 409.067C533.357 407.967 532.935 406.097 533.102 404.494C530.375 406.82 530.603 410.697 525.727 409.987C523.91 409.723 523.577 407.869 522.629 407.528C520.611 406.799 520.382 408.109 518.634 409.146C517.974 409.537 517.169 410.166 516.392 410.245C514.796 410.404 514.543 409.671 514.324 409.695C513.262 409.812 511.925 410.352 510.664 409.966C509.533 409.62 509.203 407.624 507.21 408.09C505.303 408.538 505.287 409.833 505.634 411.772C503.753 411.577 502.616 410.53 501.209 409.395C499.788 412.708 496.799 409.964 495.145 412.759C492.99 410.187 491.608 410.895 488.935 408.383C489.067 409.431 489.198 410.479 489.329 411.528C487.243 411.126 486.315 409.655 484.536 411.601C482.809 408.384 477.572 412.968 474.883 409.86C473.684 413.796 465.751 412.855 462.401 412.923C459.432 412.984 457.234 412.741 454.334 413.43C451.77 414.039 448.217 414.671 445.806 414.392C444.231 414.21 442.509 413.921 440.547 414.135C437.717 414.441 435.273 415.906 432.342 415.213C427.929 414.17 425.224 408.373 430.139 405.827C433.503 404.084 439.563 404.73 443.265 404.408C449.4 403.875 456.276 402.758 462.42 403.265C467.212 403.662 471.579 402.519 476.468 402.036C480.149 401.672 486.182 401.018 488.583 404.666C489.504 403.601 489.409 401.381 491.394 401.93ZM424.231 451.866C423.572 448.585 451.621 446.778 454.405 446.564C460.25 446.113 466.111 445.792 471.97 445.643C476.786 445.521 481.281 446.44 486.098 445.701C490.597 445.011 496.028 443.596 499.943 446.781C500.519 442.425 517.403 444.547 520.615 444.559C534.598 444.609 547.978 444.642 561.504 443.776C569.233 443.281 577.441 442.615 585.172 443.002C588.659 443.177 591.467 444.106 594.935 443.299C597.196 442.773 599.634 441.679 601.797 443.226C604.328 445.038 605.41 451.188 603.666 453.755C602.396 455.625 601.272 455.418 599.242 455.094C596.123 454.598 593.805 453.876 590.624 455.144C591.14 454.938 588.493 455.529 588.713 455.512C585.109 455.781 580.167 458.298 577.063 455.397C578.307 455.615 580.114 453.394 578.546 453.211C577.368 453.075 576.621 454.337 575.702 454.76C572.558 456.206 570.95 455.754 569.072 452.72C565.286 455.997 564.878 455.09 563.216 451.055C561.937 452.04 561.662 454.371 560.654 455.136C560.505 455.25 561.124 456.666 560.397 456.608C559.722 456.553 559.501 455.447 558.983 455.36C558.651 455.304 558.478 454.334 558.161 454.275C557.817 454.211 557.464 454.83 557.075 454.812C556.034 454.763 553.059 456.977 554.126 453.87C552.549 455.875 551.872 454.597 551.302 452.772C549.482 454.156 547.663 455.539 545.842 456.922C544.996 454.569 543.54 455.21 541.707 456.031C542.259 454.398 541.913 452.852 540.528 453.988C539.726 454.646 539.187 456.734 538.366 457.621C535.044 454.256 533.835 455.179 529.244 455.617C527.492 455.783 525.314 456.107 523.749 455.048C522.373 454.118 521.594 450.704 519.241 453.462C519.765 452.849 518.944 457.561 518.798 458.309C517.761 457.61 516.879 456.749 516.153 455.729C514.798 458.41 511.243 456.004 508.329 456.552C503.742 457.415 499.011 458.868 494.96 455.454C494.673 456.556 491.354 457.96 491.35 458.003C491.546 456.051 492.777 456.737 490.263 456.367C489.8 456.299 489.275 457.131 488.838 457.222C487.339 457.532 485.588 457.238 484.077 457.195C477.793 457.014 472.039 458.407 465.833 458.912C463.741 459.081 461.26 459.415 459.295 458.627C457.272 457.813 457.328 456.89 455.28 457.414C455.928 457.248 454.001 459.273 454.106 459.196C453.831 459.397 452.682 458.409 452.274 458.483C452.155 458.915 452.037 459.346 451.917 459.778C451.424 459.717 450.93 459.656 450.437 459.595C449.088 459.777 447.87 458.411 446.602 458.365C446.836 458.373 443.181 459.734 443.347 459.816C440.796 458.544 441.528 458.913 438.291 459.688C435.232 460.42 432.185 460.249 429.046 460.706C419.915 462.032 425.356 457.456 424.231 451.866ZM416.167 497.517C414.451 495.082 419.019 494.24 420.478 494.025C422.878 493.671 426.061 494.375 427.66 493.994C430.095 493.414 432.446 492.032 435.188 491.657C438.647 491.184 442.135 491.107 445.608 490.811C446.765 490.711 448.199 490.313 449.324 490.38C451.001 490.481 451.698 491.368 453.051 491.374C455.357 491.386 458.202 489.93 460.565 489.663C463.591 489.319 466.648 489.159 469.689 489.008C476.096 488.69 482.437 488.822 488.841 488.815C491.762 488.81 499.54 485.78 500.996 489.178C503.022 486.603 508.215 486.954 511.111 486.879C516.21 486.748 521.258 486.256 526.353 486.019C530.716 485.816 535.592 486.75 539.876 486.096C542.237 485.736 543.02 484.979 545.698 485.321C547.687 485.573 550.72 484.522 552.428 484.987C552.339 484.963 554.559 486.338 553.866 486.382C554.629 486.332 554.584 486.866 555.425 486.628C556.53 486.317 556.022 484.928 558.311 484.435C561.881 483.665 566.642 484.556 570.351 484.358C573.95 484.167 577.542 484.084 581.144 484.101C582.802 484.108 584.853 483.712 586.466 484.036C587.257 484.194 588.937 485.225 589.606 485.122C591.505 484.825 592.471 483.507 595.037 483.589C597.946 483.681 600.565 483.641 603.457 483.419C606.257 483.205 606.707 482.805 608.095 485.135C609.471 487.447 609.851 490.457 607.318 492.028C608.963 491.92 610.987 494.122 609.048 495.342C607.85 496.096 605.449 494.395 604.015 494.517C602.248 494.669 600.861 495.603 598.938 495.661C596.916 495.723 594.864 496.232 592.87 496.271C590.793 496.311 589.223 495.383 587.253 495.778C585.52 496.127 585.337 497.547 583.25 496.3C582.214 495.679 582.038 493.381 580.624 493.36C578.727 493.331 579.483 495.78 578.393 496.915C578.1 493.412 575.396 499.208 574.321 494.956C573.33 496.368 569.661 498.343 567.884 497.209C566.263 496.175 566.801 493.835 566.126 492.15C565.003 495.179 561.988 498.322 562.261 492.807C560.797 494.609 556.839 494.325 557.831 497.479C556.638 497.456 556.356 495.753 555.352 495.624C554.486 495.513 553.797 496.179 553.664 496.169C554.139 496.209 552.245 496.839 552.216 496.845C553.498 496.585 548.516 496.141 549.364 496.148C548.208 496.139 546.793 497.085 545.441 497.082C544.21 497.079 542.985 496.594 541.77 496.456C538.618 496.096 539.274 496.788 537.296 497.778C536.562 498.144 536.378 498.765 535.337 498.688C534.57 498.63 534.282 497.628 534.195 497.619C533.116 497.511 533.913 497.148 532.236 497.316C532.043 497.647 531.852 497.977 531.66 498.308C531.054 499.083 530.268 499.276 529.304 498.89C526.823 499.422 518.592 501.729 519.399 497.457C518.137 498.073 516.877 498.69 515.615 499.307C515.074 495.862 508.223 500.429 506.692 500.66C504.729 500.954 504.548 500.201 502.691 499.8C502.356 499.728 501.686 500.832 500.901 500.673C498.865 500.264 498.502 500.061 498.152 497.849C496.7 500.563 495.493 499.35 492.859 499.796C492.276 499.895 491.904 501.042 491.067 500.844C490.465 500.702 490.448 499.6 490.033 499.457C489.658 499.329 489.715 498.459 489.163 498.336C488.532 498.193 486.377 499.96 485.758 500.233C484.364 500.847 482.074 501.864 480.713 501.559C479.03 501.183 479.779 499.936 477.401 500.076C473.65 500.296 472.085 503.489 469.752 498.458C468.698 500.473 468.832 501.02 467.141 501.685C465.891 502.176 462.724 501.663 461.079 501.602C454.049 501.343 447.138 503.738 440.167 503.111C437.103 502.835 434.519 502.222 431.427 502.723C428.178 503.251 425 504.026 421.704 504.338C420.028 504.496 416.526 504.978 415.704 502.835C414.98 500.949 417.68 499.663 416.167 497.517ZM429.953 574.855C420.836 580.955 413.284 589.284 404.913 596.337C396.519 603.408 389.859 611.268 382.31 619.099C375.331 626.337 368.92 633.185 360.482 638.655C355.143 642.117 350.38 646.377 344.896 649.642C340.788 652.086 334.565 655.302 336.569 647.825C338.624 640.162 342.416 632.417 345.709 625.26C350.39 615.088 355.108 605.009 360.173 595.029C362.076 591.28 363.141 587.547 366.16 584.56C369.445 581.31 371.745 577.066 375.343 573.994C390.474 561.075 413.278 571.056 429.953 574.855ZM458.555 579.235C454.418 581.403 449.79 581.94 445.407 583.374C441.671 584.595 438.198 586.767 434.181 586.929C437.838 584.182 440.98 580.452 445.102 578.368C449.739 576.023 453.949 577.73 458.555 579.235ZM640.086 597.302C624.873 592.169 610.709 584.606 595.892 578.519C593.334 577.467 573.33 570.879 573.736 567.744C587.755 565.176 602.191 560.769 616.243 565.574C629.026 569.945 639.424 580.43 649.319 589.205C651.901 591.495 667.869 601.922 666.44 605.243C665.451 607.545 657.757 606.917 655.94 606.445C653.593 605.835 652.241 604.41 650.4 602.845C647.322 600.229 643.918 598.595 640.086 597.302ZM612.002 511.544C614.313 509.417 615.696 506.192 617.903 504.229C620.739 501.707 625.315 502.936 628.415 504.246C637.718 508.176 645.669 514.785 654.914 518.886C665.159 523.432 674.028 529.506 683.269 535.766C691.716 541.487 700.849 546.224 709.471 551.685C718.257 557.251 728.092 560.868 736.998 566.236C746.062 571.699 755.091 577.185 763.801 583.205C779.333 593.941 795.505 604.965 806.996 620.229C812.902 628.075 818.431 636.974 822.765 645.784C826.704 653.792 830.977 664.91 825.872 673.241C820.97 681.242 812.613 687.544 805.539 693.514C802.86 695.774 800.312 698.52 796.84 699.501C792.617 700.691 787.689 700.363 783.346 700.714C760.123 702.597 738.489 700.82 715.603 696.667C693.536 692.663 671.378 690.42 649.142 687.637C636.597 686.067 624.055 684.238 611.681 681.623C606.391 680.505 601.009 679.216 595.833 677.693C591.313 676.363 587.512 673.435 582.864 672.274C563.14 667.349 540.571 665.466 521.043 657.181C538.324 649.999 556.689 645.661 574.399 639.693C593.04 633.413 611.246 628.143 630.894 626.358C641.004 625.439 650.053 622.858 659.778 620.156C669.046 617.58 678.722 616.791 688.242 615.637C692.476 615.123 704.558 615.892 705.96 610.358C708.049 602.119 696.179 601.168 691.118 601.906C683.939 602.952 678.019 604.744 672.525 598.855C666.915 592.841 661.464 586.683 655.753 580.745C645.162 569.735 634.247 557 619.277 552.06C601.013 546.034 579.835 551.754 561.612 555.181C542.365 558.801 523.149 562.266 504.262 567.528C496.441 569.706 486.355 574.506 478.237 573.735C470.237 572.974 461.176 571.665 453.446 569.358C449.948 568.315 447.072 566.38 443.942 564.577C439.872 562.231 435.413 560.728 431.093 558.904C422.359 555.218 413.844 551.822 404.421 550.373C396.485 549.153 388.058 548.429 380.368 551.211C372.824 553.94 366.138 559.497 360.874 565.433C355.157 571.883 350.431 579.11 345.744 586.316C343.494 589.774 340.748 592.792 338.418 596.173C336.462 599.012 335.319 602.167 333.249 604.927C328.616 611.101 325.471 618.998 322.663 626.181C319.544 634.158 316.078 643.646 316.823 652.324C317.104 655.604 317.398 659.949 318.667 662.99C320.281 666.859 322.582 666.76 325.899 668.219C331.598 670.726 333.197 677.655 340.561 676.304C347.469 675.037 353.46 669.345 358.5 664.807C365.069 658.895 371.356 652.66 377.642 646.449C384.092 640.074 390.449 633.003 395.58 625.503C397.6 622.551 399.174 619.216 401.561 616.528C404.601 613.103 408.014 612.691 412.143 611.328C448.241 599.401 484.515 587.896 521.74 580.021C530.658 578.134 539.649 575.7 548.41 573.189C557.702 570.525 562.514 573.341 570.183 578.41C586.204 589.003 605.141 596.464 622.982 603.376C628.599 605.552 637.542 605.69 641.933 609.982C615.904 613.949 591.099 621.584 565.993 629.187C553.615 632.934 541.095 636.184 528.67 639.768C516.241 643.354 504.284 648 492.025 652.042C479.825 656.065 466.931 657.706 454.613 661.417C442.038 665.205 429.516 667.811 416.609 670.113C403.576 672.439 390.633 675.122 377.555 677.204C371.567 678.157 365.581 679.146 359.659 680.457C353.865 681.741 348.267 684.814 342.444 685.526C316.439 688.708 290.944 695.797 265.041 699.804C245.699 702.797 212.05 706.97 199.508 687.565C186.896 668.051 202.369 645.287 216.175 631.334C224.755 622.662 234.396 615.03 244.512 608.24C255.337 600.974 265.753 593.128 276.581 585.872C301.085 569.452 327.656 556.06 353.982 542.866C366.618 536.533 378.827 529.741 391.119 522.791C397.22 519.341 400.597 524.907 405.419 528.69C409.212 531.667 416.178 539.002 421.484 535.611C421.688 536.832 421.893 538.053 422.097 539.276C423.652 538.566 425.207 537.858 426.762 537.149C427.806 539.888 427.683 541.589 430.601 543.027C432.392 543.911 436.214 544.974 437.922 543.418C438.27 544.5 438.619 545.58 438.967 546.661C440.46 546.547 440.749 542.276 441.03 541.276C443.589 545.013 447.127 548.136 451.624 549.192C451.646 548.948 450.893 545.878 450.926 545.859C452.348 544.988 454.143 548.718 454.898 549.517C457.399 552.164 458.89 551.753 461.653 549.617C461.854 549.835 462.789 552.275 462.925 552.231C463.523 552.041 464.658 549.879 464.783 549.682C464.61 552.526 470.101 553.099 472.04 552.488C471.605 551.655 471.17 550.822 470.736 549.989C477.49 549.087 480.142 556.263 486.626 555.899C491.419 555.628 487.574 554.581 490.287 552.528C492.656 550.734 493.079 554.657 493.311 554.533C493.763 554.059 494.113 553.516 494.362 552.901C495.239 556.261 502.221 559.275 501.5 553.75C504.246 554.849 506.196 556.673 509.236 557.058C512.931 557.526 516.878 556.742 520.563 556.436C528.506 555.775 535.992 554.155 543.152 550.516C547.396 548.359 551.914 546.401 555.904 543.799C559.243 541.62 565.578 535.008 570.024 537.855C568.886 534.497 574.246 537.609 574.416 533.283C575.277 533.932 576.138 534.58 576.999 535.23C577.516 534.098 577.371 532.314 578.063 531.327C579.013 529.972 579.476 530.77 580.286 530.008C581.192 529.155 581.982 526.871 583.068 526.221C584.187 525.551 585.504 526.35 586.708 525.765C588.542 524.874 596.429 516.177 595.095 523.629C598.486 522.477 595.871 521.423 596.295 519.163C597.145 514.634 599.216 517.893 601.279 518.288C604.657 518.936 604.589 516.143 606.473 514.114C608.193 512.26 611.426 511.43 610.312 508.211C611.584 508.897 611.855 510.24 612.002 511.544ZM408.385 414.815C405.724 417.779 403.732 416.512 400.773 416.077C400.456 415.016 399.916 414.87 399.151 415.636C398.274 416.14 397.332 416.472 396.322 416.63C393.896 417.228 391.377 416.974 389.003 417.88C389.071 417.085 389.906 415.672 389.371 414.865C386.875 416.591 385.328 417.689 382.263 417.722C379.78 417.748 375.421 415.851 373.359 418.119C373.295 417.236 373.232 416.354 373.169 415.471C372.159 415.974 371.281 416.647 370.533 417.491C370.392 416.183 370.313 415.194 369.448 414.137C367.808 417.511 366.011 417.591 362.823 416.301C363.27 416.482 359.633 414.35 359.772 414.941C358.622 410.096 376.774 410.496 378.679 410.305C383.438 409.824 388.197 409.545 392.962 409.106C397.482 408.691 400.856 407.986 403.985 411.757C402.59 406.31 415.779 406.58 408.385 414.815ZM200.272 330.34C200.772 338.575 202.604 347.328 199.402 355.254C196.828 361.625 191.693 368.82 186.161 372.978C174.835 381.491 165.234 371.074 163.658 359.626C162.014 347.685 165.272 333.095 175.553 325.732C181.697 321.334 187.646 321.638 194.719 323.085C196.38 323.425 199.077 323.294 200.027 324.945C200.25 325.331 200.05 330.332 200.272 330.34ZM350.708 440.06C348.752 441.047 346.705 441.626 344.98 442.969C344.38 443.436 344.176 444.499 343.54 444.892C342.383 445.608 340.729 445.133 339.523 445.724C337.527 446.699 336.096 448.095 333.724 448.993C330.201 450.329 327.112 452.16 323.782 453.896C318.234 456.789 312.28 459.272 306.479 461.627C303.551 462.816 295.454 465.133 295.734 469.419C295.079 469.596 294.41 468.164 293.043 468.278C291.165 468.434 288.685 470.605 286.736 471.139C283.09 472.137 280.268 472.225 280.268 476.873C279.108 476.084 278.813 474.155 277.269 473.9C275.532 473.612 274.8 475.486 273.41 476.07C271.773 476.757 269.737 476.098 268.116 476.829C267.407 477.579 266.619 478.234 265.752 478.792C264.87 478.893 263.993 478.867 263.119 478.71C259.678 479.44 256.51 480.735 253.06 481.407C249.698 482.064 247.396 482.302 248.809 486.278C245.213 486.982 244.334 483.165 240.276 484.561C235.302 486.271 230.654 487.504 225.461 488.548C222.813 489.08 220.046 490.267 217.379 490.546C215.476 490.745 213.7 490.064 211.827 490.276C209.568 490.529 207.753 491.575 205.416 491.614C203.2 491.653 200.872 491.255 198.695 490.864C199.003 491.741 199.388 492.582 199.85 493.387C198.345 493.072 197.65 491.262 196.374 490.994C195.035 490.713 193.835 492.095 192.72 491.789C192.245 491.658 192.561 490.194 191.712 489.914C190.938 489.661 190.611 489.96 189.844 489.84C189.587 489.8 186.376 489.626 185.864 489.897C184.97 490.371 185.875 491.259 185.697 491.391C182.677 493.626 182.64 492.42 181.294 490.085C179.317 486.658 176.933 488.821 173.34 488.221C169.336 487.553 166.181 489.319 162.239 489.068C157.988 488.797 152.992 485.616 149.233 483.758C141.117 479.747 133.203 475.95 126.386 469.875C113.062 457.998 102.221 443.392 95.8299 426.671C88.9625 408.707 87.6612 389.972 88.2125 370.914C88.5441 359.452 89.4615 347.997 91.268 336.67C92.5118 328.878 92.7723 315.031 101.557 311.483C103.068 329.727 98.3017 348.318 101.307 366.444C102.212 371.904 104.419 379.178 108.596 383.222C114.78 389.207 116.227 380.555 116.787 375.775C117.828 366.899 119.762 358.072 121.131 349.237C122.499 340.406 123.466 331.477 125.369 322.739C126.062 319.553 131.656 296.222 135.762 297.327C134.932 314.3 132.725 330.981 132.639 348.016C132.604 354.849 131.992 362.066 132.979 368.854C133.486 372.347 136.667 382.597 142.138 381.742C147.201 380.951 141.635 373.731 141.162 370.947C139.91 363.577 141.506 354.408 142.674 347.093C144.883 333.249 149.812 319.07 157.869 307.502C165.084 297.143 176.195 287.281 189.579 289.108C195.298 289.889 199.759 291.309 202.633 296.531C204.887 300.629 213.768 305.286 208.621 310.416C203.936 315.088 196.358 311.349 191.15 310.235C184.773 308.872 177.939 310.512 172.607 314.249C163.457 320.658 158.242 332.118 156.54 342.866C154.246 357.357 160.378 395.289 182.964 386.788C197.967 381.14 209.268 360.824 208.008 345.27C207.503 339.044 205.069 327.224 213.683 325.543C224.719 323.39 226.278 335.555 225.161 343.46C223.536 354.96 217.459 365.653 210.505 374.745C204.446 382.669 197.397 387.624 190.105 394.168C187.946 396.106 182.44 400.462 183.364 404.066C184.378 408.015 193.032 409.138 196.498 409.787C213.64 412.996 232.973 410.044 250.086 407.803C285.26 403.197 319.971 391.853 348.813 370.995C349.979 383.901 351.447 396.763 351.988 409.715C352.251 416.002 352.318 422.38 353.036 428.633C353.479 432.479 355.078 437.852 350.708 440.06ZM253.177 485.028C251.796 485.749 253.289 481.381 252.905 482.826C254.968 483.565 255.059 484.3 253.177 485.028ZM399.088 328.85C401.281 326.434 407.269 320.686 409.17 326.141C409.877 323.816 409.969 320.372 412.699 323.512C413.786 319.655 425.777 320.016 428.747 319.845C438.257 319.302 447.805 319.011 457.281 318.066C476.754 316.125 496.566 317.127 516.11 317.063C520.342 317.049 524.563 316.82 528.764 317.434C532.819 318.026 537.079 319.688 541.211 319.081C544.885 318.541 547.294 317.528 551.075 317.961C555.601 318.48 559.993 318.848 564.558 318.832C584.75 318.758 604.932 319.576 625.128 319.608C629.064 319.614 633.78 318.845 637.473 320.517C638.841 321.137 640.336 323.199 641.381 323.425C642.579 323.684 641.867 321.815 643.47 322.66C645.617 323.789 643.955 327.262 642.537 327.812C643.386 327.483 641.003 327.158 641.242 327.145C640.111 327.206 639.146 328.073 637.932 328.019C636.083 327.938 634.534 326.81 633.044 325.817C633.019 326.223 633.838 328.926 632.903 329.062C632.098 329.18 631.344 326.515 631.263 325.895C626.745 329.88 621.959 327.658 616.352 328.163C612.376 328.521 604.084 331.174 601.309 327.023C601.194 327.906 600.84 328.679 600.248 329.342C599.455 330.549 598.77 330.446 598.19 329.03C597.994 329.04 596.062 329.46 596.025 329.457C594.665 329.349 592.902 328.861 591.519 328.742C589.379 328.56 589.773 330.118 588.068 330.143C587.137 330.156 584.763 328.812 583.139 328.728C580.328 328.581 577.455 329.774 574.681 329.413C572.771 329.165 571.045 327.61 569.171 327.55C566.836 327.472 566.079 329.253 564.23 326.752C563.85 326.649 563.616 328.12 563.465 328.146C563.502 328.139 561.705 328.405 561.492 328.488C561.123 328.629 559.687 329.287 559.249 329.294C558.305 329.312 557.792 328.636 556.791 328.62C555.135 328.592 549.848 330.05 549.996 326.986C544.087 329.176 539.044 328.322 532.978 328.84C530.194 329.079 528.446 328.706 525.798 328.195C522.482 327.555 520.28 328.359 516.973 328.521C513.795 328.678 512.793 327.333 510.111 326.119C509.052 325.64 508.353 325.009 507.055 325.275C506.316 325.427 506.842 326.673 506.623 326.758C505.483 327.198 504.687 326.732 503.124 326.838C500.238 327.035 499.089 329.447 496.123 327.183C497.108 327.064 498.095 326.942 499.081 326.823C496.244 325.62 492.5 325.007 493.188 329.386C490.768 329.046 492.862 327.399 491.673 326.809C490.483 326.221 489.152 327.206 487.654 327.693C483.699 328.976 480.4 328.339 476.276 328.109C471.589 327.847 460.626 331.671 457.27 326.706C457.17 327.753 456.046 330.667 454.551 330.53C454.064 330.485 455.423 327.391 455.576 327.064C454.807 328.703 451.294 329.014 449.563 329.864C449.757 328.983 449.951 328.103 450.144 327.223C448.537 328.934 447.756 327.89 445.865 328.462C445.038 328.712 443.842 330.417 443.135 330.52C442.311 329.565 441.276 329.154 440.029 329.287C439.199 329.08 438.37 329.039 437.541 329.166C434.222 329.406 431.196 331.251 427.895 329.995C425.037 328.906 423.931 326.106 422.227 330.561C421.778 329.769 421.33 328.977 420.882 328.185C420.329 329.045 419.776 329.904 419.223 330.763C417.06 329.347 416.928 328.527 414.439 329.047C413.855 329.28 413.256 329.247 412.643 328.949C412.496 329.386 412.35 329.821 412.204 330.257C412.145 331.353 411.82 331.716 411.228 331.343C410.73 331.164 410.28 330.893 409.879 330.528C408.233 330.654 406.13 331.087 404.363 330.848C403.681 330.756 399.406 328.499 399.088 328.85ZM449.466 299.367C449.66 299.665 449.854 299.962 450.048 300.26C447.375 301.671 446.747 300.861 446.47 298.027C447.776 298.052 447.999 300.349 449.466 299.367ZM451.122 297.704C452.409 298.272 453.885 299.387 455.097 297.893C455.913 300.265 449.852 303.502 451.122 297.704ZM459.434 298.751C462.136 300.578 455.655 299.11 455.665 299.113C456.831 298.037 458.086 297.917 459.434 298.751ZM482.675 288.568C483.601 293.244 486.157 293.111 490.283 290.937C496.299 287.767 497.314 282.576 497.734 276.377C498.136 270.433 498.863 268.132 504.992 269.373C509.271 270.239 512.889 269.511 517.202 269.392C521.805 269.265 523.426 269.968 523.796 274.704C524.168 279.446 525.011 283.047 528.452 286.656C531.951 290.325 536.617 292.516 541.163 294.568C543.501 295.623 545.697 296.758 548.284 296.987C549.286 297.076 554.502 296.416 554.612 298.067C554.693 299.308 547.469 302.808 546.702 303.225C543.351 305.047 540.01 306.682 536.35 307.786C527.93 310.326 519.002 310.476 510.281 310.322C496.219 310.075 476.785 304.127 468.377 291.652C473.143 290.624 477.909 289.596 482.675 288.568ZM481.413 248.078C479.188 246.211 477.748 243.39 475.899 241.179C474.967 240.064 474.284 239.709 473.397 239.151C472.463 238.563 471.937 239.395 471.158 238.013C469.144 234.443 475.357 229.419 468.767 228.045C466.538 227.579 461.172 229.346 460.521 226.151C459.601 221.634 468.222 221.339 470.251 219.046C474.284 214.488 471.547 206.761 474.003 201.503C476.328 196.522 482.332 195.637 487.069 194.14C493.671 192.056 500.352 190.847 507.055 189.179C511.743 188.013 519.529 183.329 523.876 187.468C517.168 188.957 521.067 191.294 525.538 192.614C530.602 194.11 535.969 194.693 541.216 195.11C546.618 195.538 552.123 195.62 557.46 194.543C562.395 193.547 567.908 189.257 573.082 190.356C570.211 195.349 561.657 198.076 556.46 199.384C553.811 200.05 552.115 199.842 552.471 203.144C552.815 206.344 555.598 209.553 556.226 212.887C557.057 217.299 556.331 221.354 554.761 225.503C553.216 229.585 552.855 230.119 554.205 234.02C556.309 240.094 551.787 246.808 547.608 251.219C530.707 269.055 498.361 262.298 481.413 248.078ZM524.36 141.48C524.428 141.662 524.371 141.593 524.36 141.48V141.48ZM529.624 186.491C528.923 187.015 524.887 188.113 525.056 186.535C525.282 184.422 528.919 185.185 529.624 186.491ZM538.823 143.798C537.876 143.092 535.223 143.382 537.163 140.706C537.795 141.883 538.309 142.84 538.823 143.798ZM475.166 126.882C476.373 123.746 477.71 120.828 478.254 117.489C478.59 115.432 477.922 113.083 480.798 112.76C477.134 111.162 477.096 104.854 476.879 101.584C476.582 97.0808 475.16 91.0514 477.139 86.86C479.17 82.5545 481.911 82.6257 482.738 87.7534C483.063 89.7611 481.823 90.4105 481.59 91.8086C481.13 94.5746 482.046 93.9682 483.831 91.861C484.567 94.0028 484.849 97.2212 487.847 97.085C487.648 96.5059 486.499 95.2281 486.883 94.5086C487.472 93.4037 490.352 95.092 490.717 95.3475C493.347 97.1866 493.917 98.8655 492.041 101.185C494.637 101.465 492.458 103.738 494.134 104.33C496.691 105.234 494.976 100.952 494.699 100.199C496.256 100.806 496.778 101.499 497.763 102.729C498.341 103.577 498.869 104.458 499.344 105.369C499.873 107.032 500.963 107.449 502.616 106.62C505.927 107.659 510.499 107.496 513.467 109.312C514.823 110.142 515.313 111.957 516.446 112.646C517.72 113.422 519.427 113.07 520.796 113.557C520.295 114.695 520.701 115.31 522.011 115.407C523.028 115.5 524.014 115.729 524.967 116.094C525.679 115.557 526.455 115.132 527.292 114.823C527.855 115.815 528.65 116.06 529.679 115.561C532.733 116.133 534.2 117.288 536.141 119.015C537.884 120.565 536.465 120.691 538.374 120.553C539.141 120.498 540.485 119.197 542.239 119.451C543.249 119.647 544.223 119.958 545.16 120.384C546.174 121.251 547.25 121.36 548.388 120.711C550.238 121.615 550.42 123.217 552.674 123.436C555.168 123.679 554.365 120.57 556.078 124.954C558.383 120.306 559.228 127.711 561.609 128.309C564.075 128.929 564.342 126.929 566.453 129.114C567.085 129.769 567.05 130.851 567.76 131.545C568.924 132.681 570.499 132.454 571.51 134.004C570.946 133.139 571.643 137.07 571.632 136.94C571.789 138.674 570.248 140.617 573.406 140.469C573.37 140.651 571.853 142.862 571.557 142.612C571.485 142.36 571.423 142.104 571.375 141.845C571.036 141.991 570.886 144.097 570.949 144.469C571.216 144.511 571.326 144.312 571.277 143.872C570.758 145.496 571.541 146.528 570.544 148.07C569.906 149.055 568.16 149.796 567.231 150.404C564.992 151.872 562.801 153.345 560.617 154.907C555.523 158.552 549.82 162.947 543.406 163.707C546.628 160.544 565.162 148.574 555.865 145.138C554.141 144.501 551.002 143.898 549.199 143.764C546.956 143.597 544.637 144.881 542.164 144.08C539.179 143.115 540.303 140.309 538.48 139.302C534.608 137.167 535.523 142.189 534.304 143.504C533.024 142.161 533.298 141.507 531.277 141.386C529.224 141.262 528.736 143.159 526.341 141.977C523.042 140.349 524.788 137.105 520.108 137.029C520.186 136.317 520.865 134.327 519.972 133.772C518.768 135.333 519.7 137.079 518.583 138.582C518.023 139.336 516.81 139.937 515.924 140.181C513.848 140.751 513.553 141.842 513.891 138.718C512.353 141.488 507.638 140.349 504.833 140.07C500.274 139.617 495.427 138.754 491.056 137.292C487.013 135.938 484.854 133.614 481.519 131.5C480.258 130.7 479.657 131.006 477.849 130.509C476.065 130.019 474.326 129.069 475.166 126.882ZM484.788 77.8332C485.476 77.4185 485.971 83.6071 485.136 84.7633C483.609 82.3471 480.9 78.803 484.788 77.8332ZM486.986 75.3647C489.2 73.3612 487.662 78.536 487.256 79.4042C486.436 78.8784 485.616 78.3527 484.796 77.8269C485.842 77.1849 486.104 76.1638 486.986 75.3647ZM570.506 67.0249C590.959 71.3168 611.224 79.3392 627.627 92.5417C642.569 104.567 653.115 121.629 659.027 139.778C665.164 158.616 663.102 179.516 648.501 193.934C640.81 201.528 630.652 206.11 620.972 210.581C616.334 212.723 611.558 214.507 606.902 216.6C603.557 218.103 599.475 220.507 595.659 220.09C597.605 218.042 600.43 218 602.786 216.747C605.633 215.233 607.958 212.327 610.412 210.251C612.849 208.19 618.252 201.7 621.996 203.271C621.476 199.813 625.416 198.208 627.191 195.928C629.069 193.516 629.204 190.695 632.663 189.906C628.947 186.998 630.085 181.515 630.893 177.557C631.928 172.495 632.406 167.848 632.814 162.697C633.548 153.411 634.14 141.581 629.009 133.418C627.344 130.767 625.224 128.331 623.739 125.577C621.948 122.259 622.344 119.338 622.344 115.701C619.07 117.9 618.38 113.416 616.997 111.23C615.959 109.59 614.596 108.674 614.262 106.61C614.018 105.109 615.648 104.855 614.754 103.281C613.659 104.108 613.222 105.39 612.668 106.58C611.656 106.176 612.848 104.768 612.269 104.31C612.252 104.298 610.301 103.451 610.399 103.573C609.143 101.982 608.74 99.342 608.124 97.4484C605.825 98.6131 606.255 98.4759 603.69 96.5299C603.238 96.1875 600.981 94.6144 600.769 94.1002C599.776 91.6955 601.515 93.1199 601.029 91.6274C599.633 87.3408 591.794 88.1514 591.173 81.7282C587.351 84.1548 585.894 80.7165 583.634 78.271C581.318 75.7658 577.434 74.8023 577.642 70.8287C576.439 71.2403 575.236 71.6509 574.034 72.0604C574.659 68.3937 569.212 68.6273 567.239 66.7672C568.334 66.7809 569.423 66.8667 570.506 67.0249ZM573.621 294.124C575.517 292.429 574.941 294.685 576.161 294.427C577.204 294.206 577.41 293.417 578.41 293.176C582.532 292.18 588.692 293.431 593.026 293.216C598.045 292.968 606.648 294.01 609.04 299.883C610.481 303.419 608.282 302.216 605.86 301.953C603.981 301.75 602.312 302.13 600.453 302.111C599.533 302.253 598.618 302.239 597.706 302.068C597.26 301.775 596.998 301.362 596.916 300.83C594.33 300.439 591.583 301.969 588.719 302.045C584.897 302.147 581.499 301.414 578.595 298.833C577.44 300.554 576.654 301.407 574.577 301.6C574.523 301.605 572.495 300.788 572.181 300.707C571.766 300.599 570.714 301.471 569.913 301.222C571.335 298.958 571.542 295.983 573.621 294.124ZM834.687 314.561C835.361 312.214 835.925 309.836 836.54 307.474C845.976 318.215 854.232 332.593 857.948 346.369C860.361 355.32 864.117 371.54 852.611 376.157C843.238 379.918 838.012 366.437 835.641 359.797C830.405 345.139 830.405 329.475 834.687 314.561ZM412.549 146.255C412.67 146.23 406.441 149.853 408.493 146.92C409.318 145.74 412.444 144.911 413.831 144.911L412.549 146.255ZM406.557 147.79C405.836 148.396 405.108 148.995 404.374 149.586C403.669 148.472 402.963 147.357 402.258 146.243C403.648 145.657 409.551 145.217 406.557 147.79ZM402.167 260.427C400.863 259.544 399.83 260.013 399.439 261.495C399.439 260.021 400.206 256.595 401.386 256.196C402.149 255.937 398.852 252.036 399.779 251.015C402.135 252.365 400.724 253.658 401.415 255.401C401.726 256.187 402.662 256.931 402.868 257.535C403.215 258.561 404.622 262.087 402.167 260.427ZM395.781 251.648C394.447 251.99 396.784 254.193 396.782 255.167C396.779 255.904 395.896 256.469 395.53 257.477C394.74 259.66 396.101 261.135 393.86 262.801C393.86 258.017 390.65 245.34 396.819 243.009C393.81 240.639 396.282 237.903 398.64 240.739C400.908 243.467 399.464 250.706 395.781 251.648ZM392.567 232.769C391.355 228.469 387.704 226.965 383.532 227.22C383.691 225.018 385.36 221.844 386.565 225.812C387.06 224.639 387.404 223.109 388.533 222.332C390.436 228.297 399.922 231.593 394.016 238.057C393.534 236.295 393.064 234.529 392.567 232.769ZM381.544 227.54C359.576 229.133 328.736 233.691 311.157 216.853C299.696 205.874 300.308 188.777 309.57 176.579C314.856 169.618 322.072 164.717 329.319 160.048C332.115 158.245 334.484 157.056 337.555 156.02C338.052 155.966 338.519 156.077 338.956 156.353C339.129 155.611 339.546 155.062 340.212 154.704C341.397 154.07 343.086 153.843 343.769 152.526C343.04 155 342.666 157.547 342.398 160.106C341.806 159.417 341.215 158.728 340.624 158.039C340.13 162.701 335.273 159.879 332.373 160.461C334.284 163.105 335.65 164.065 335.814 167.559C334.391 164.932 331.416 163.205 328.651 162.359C330.153 166.802 331.214 169.439 329.702 174.311C327.875 173.268 327.752 170.763 325.536 170.163C324.952 173.068 324.848 176.292 324.099 179.111C318.425 176.523 318.979 183.493 321.257 186.942C322.468 188.777 323.064 190.901 324.144 192.662C326.796 196.982 324.781 190.522 327.729 190.828C327.067 195.385 326.837 195.839 330.172 199.176C333.426 202.43 335.114 206.945 338.595 210.002C339.603 208.713 338.018 207.366 337.879 206.133C341.119 206.676 342.635 209.924 345.749 207.047C347.107 209.694 348.577 212.608 351.829 213.152C349.68 209.065 355.958 211.837 357.568 212.417C358.79 212.857 360.977 213.206 361.449 213.376C364.102 214.334 362.282 212.615 363.892 215.756C366.256 215.042 367.149 213.081 369.976 214.738C372.275 216.086 372.281 218.394 372.806 220.759C373.354 219.212 373.907 217.666 374.513 216.14C375.13 216.4 377.719 219.248 377.437 219.262C383.496 218.965 383.281 222.727 381.544 227.54ZM350.7 150.421C351.917 149.567 353.402 150.704 354.769 150.398C356.66 149.976 357.734 148.355 359.847 148.182C359.259 150.06 358.156 149.885 357.223 151.36C356.905 151.863 357.07 153.069 356.788 153.358C354.419 155.784 353.601 153.805 351.184 151.969C351.394 154.183 351.82 154.882 349.734 155.476C347.846 156.014 344.73 154.032 343.778 152.511C344.58 150.905 349.244 151.443 350.7 150.421ZM365.773 146.96C367.824 147.156 365.354 153.208 362.414 147.337C363.521 147.097 364.641 146.971 365.773 146.96ZM376.321 145.791C379.555 145.131 390.345 142.056 391.546 147.091C391.761 146.966 392.564 144.123 392.937 144.47C394.431 145.86 394.598 147.702 394.484 149.632C392.678 145.87 393.32 149.174 392.096 148.917C391.777 148.849 391.289 149.446 390.479 149.2C389.418 148.876 388.658 146.619 387.988 145.854C386.873 147.446 385.491 149.496 383.258 149.358C381.677 149.26 379.13 145.19 381.177 149.646C379.976 149.249 378.584 148.35 377.245 148.53C375.746 148.732 374.967 150.212 373.562 150.451C370.447 150.979 369.977 147.982 367.955 146.354C370.744 146.192 373.566 146.352 376.321 145.791ZM395.891 145.742C396.119 144.71 398.95 144.293 399.671 144.621C401.43 145.42 400.78 146.474 400.456 148.23C399.151 147.612 397.845 146.995 396.54 146.377C398.489 149.515 394.958 149.97 395.891 145.742ZM943.83 329.538C943.599 322.019 943.381 314.369 941.475 307.048C940.14 301.925 936.863 292.738 930.664 291.849C921.315 290.507 916.138 308.984 913.519 315.326C912.995 307.859 913.453 299.911 910.633 292.824C908.374 287.144 902.669 281.765 897.756 288.143C893.383 293.82 892.543 302.199 891.392 309.029C889.901 317.879 889.005 326.797 887.916 335.7C883.646 327.448 882.901 318.002 879.525 309.426C876.341 301.333 871.329 293.604 866.501 286.406C862.56 280.526 857.764 274.998 851.588 271.404C846.212 268.276 836.812 264.892 831.689 270.087C827.413 274.422 828.083 280.223 828.306 285.693C828.405 288.13 828.787 289.8 826.644 291.027C825.592 291.631 823.947 291.319 822.79 291.641C820.926 292.162 819.496 293.044 817.919 294.216C806.863 302.433 801.767 317.241 800.191 330.443C798.194 347.171 804.714 361.511 810.326 376.816C811.22 379.256 814.06 384.431 813.668 387.154C813.238 390.137 809.493 390.215 806.966 390.277C799.334 390.465 791.357 389.896 783.763 389.185C765.683 387.494 747.618 378.79 731.429 371.019C728.476 369.6 724.297 368.789 721.887 366.556C719.62 364.457 719.023 361.093 717.066 358.685C712.265 352.777 709.206 347.736 702.136 344.166C694.937 340.532 687.591 337.173 680.566 333.193C671.88 328.268 663.854 322.03 655.53 316.516C640.061 306.271 624.695 295.04 608.294 286.328C600.673 282.279 592.156 281.624 584.244 278.309C576.539 275.081 567.08 275.077 559.039 277.115C555.123 278.109 552.457 280.463 548.855 282C544.633 283.801 541.189 281.813 537.475 279.663C531.799 276.379 526.172 271.027 534.255 267.484C536.997 266.281 540.432 265.826 542.827 263.935C545.381 261.921 547.43 258.206 549.506 255.683C554.122 250.074 556.878 243.617 563.633 240.13C571.103 236.273 579.958 235.223 587.923 232.702C596.553 229.972 605.003 226.725 613.472 223.537C628.731 217.794 644.594 211.593 655.559 198.949C665.017 188.042 669.138 173.962 668.756 159.662C667.976 130.429 652.316 100.76 629.848 82.4823C602.297 60.0696 567.248 52.596 532.446 52.9877C516.113 53.172 496.622 55.3096 482.994 65.2329C471.222 73.8042 469.264 88.7955 471.015 102.328C471.726 107.82 474.154 115.067 470.281 119.907C468.113 122.614 464.222 123.285 461.303 124.973C457.633 127.094 454.398 129.127 450.242 130.248C432.588 135.016 413.993 133.356 395.944 133.092C365.876 132.652 335.056 140.793 312.625 161.98C294.511 179.088 289.079 211.349 311.171 228.027C329.02 241.501 357.017 240.019 378.062 237.669C384.589 236.939 389.076 235.879 389.091 243.864C389.108 252.586 387.663 261.702 389.888 270.264C393.393 283.75 406.351 284.071 417.807 281.167C423.853 279.635 429.696 277.331 435.437 274.918C443.856 271.379 451.574 266.175 459.889 262.642C465.527 260.248 469.747 267.991 474.748 262.623C475.671 261.631 475.842 260.153 477.235 259.645C479.419 258.85 483.083 261.638 484.998 262.519C487.866 263.84 490.758 264.811 491.903 267.991C492.975 270.965 492.506 275.695 491.478 278.629C489.247 285.007 483.239 283.747 477.754 283.32C468.188 282.576 458.685 280.997 449.122 280.334C440.542 279.739 432.508 282.303 425.107 286.534C409.563 295.421 396.846 309.556 383.369 321.18C376.432 327.162 369.727 333.624 362.184 338.833C358.905 341.099 355.352 343.181 352.502 345.996C349.673 348.788 349.363 351.327 348.395 355.043C346.672 361.659 338.116 364.893 332.768 368.383C325.205 373.319 317.187 376.802 308.708 379.831C290.753 386.244 272.656 390.723 253.884 394.033C244.694 395.655 235.579 396.72 226.299 397.595C218.3 398.349 209.793 400.813 201.803 398.845C204.104 395.112 208.182 392.871 211.358 389.985C215.452 386.266 218.934 381.859 222.033 377.293C228.065 368.401 232.295 358.86 233.267 348.075C234.142 338.368 233.138 326.757 227.281 318.557C225.258 315.724 221.256 314.953 219.445 312.402C217.645 309.866 218.331 305.499 217.346 302.542C214.836 295.02 207.389 285.699 200.836 281.33C193.725 276.589 183.324 274.847 175.111 277.318C159.895 281.895 150.548 298.156 143.586 311.298C139.782 303.295 146.152 291.421 138.722 284.867C132.455 279.338 127.481 290.048 125.384 294.63C115.545 316.139 113.311 338.952 109.188 361.966C107.508 360.31 108.369 356.06 108.527 354.084C108.821 350.407 108.794 346.8 108.801 343.107C108.821 333.779 110.555 324.408 109.76 315.088C109.301 309.7 107.583 298.34 99.7558 300.13C93.1175 301.648 88.9594 310.983 86.8735 316.69C83.8651 324.922 83.1705 333.071 83.3577 341.767C83.5648 351.375 81.7342 360.826 81.2907 370.421C80.4287 389.058 81.2802 407.533 86.6277 425.52C95.3843 454.974 115.518 479.446 142.389 494.224C157.194 502.367 173.618 507.519 190.505 508.627C199.656 509.227 208.49 508.138 217.562 507.192C226.515 506.258 235.516 505.826 244.453 504.731C264.358 502.289 283.753 495.988 301.844 487.509C311.368 483.045 320.323 477.565 329.69 472.806C333.449 470.898 335.989 468.509 339.196 465.854C342.376 463.223 343.257 463.017 346.873 463.017C345.812 460.179 348.909 459.304 350.286 457.508C350.209 458.38 350.131 459.25 350.054 460.12C351.104 457.842 352.082 457.864 352.987 460.186C353.882 457.586 354.544 454.912 355.623 452.377C359.752 454.467 359.405 459.434 364.926 455.807C369.473 452.822 373.654 449.301 378.289 446.376C388.848 439.711 397.952 431.039 408.541 424.451C408.541 430.868 408.994 437.34 408.137 443.724C407.321 449.795 405.054 455.469 403.251 461.281C399.927 472.003 399.697 483.462 396.014 494.076C394.49 498.472 390.52 502.148 389.382 506.427C388.222 510.793 390.902 514.291 386.409 517.157C383.241 519.177 379.282 520.031 375.775 521.253C370.424 523.119 365.344 525.75 360.136 527.982C335.706 538.45 311.877 549.111 289.243 563.186C267.764 576.542 245.955 590.336 226.223 606.199C209.098 619.966 191.787 637.766 187.619 660.224C183.573 682.007 194.351 705.389 215.992 712.563C227.244 716.293 239.966 715.831 251.684 715.993C264.293 716.167 277.654 713.128 290.051 710.929C303.143 708.607 316.011 704.973 329.141 702.899C341.739 700.909 353.294 696.462 365.685 693.721C378.883 690.803 392.421 689.219 405.691 686.593C411.666 685.411 417.52 683.667 423.51 682.573C430.069 681.375 436.7 680.925 443.195 679.339C455.793 676.26 467.855 671.296 480.508 668.432C486.197 667.144 491.798 665.419 497.489 664.215C502.729 663.107 506.81 660.162 512.062 662.581C516.303 664.535 519.687 667.885 523.702 670.219C528.909 673.246 534.399 675.958 539.828 678.563C550.737 683.797 562.05 687.415 573.455 691.344C585.435 695.473 597.2 700.18 609.612 702.906C622.336 705.701 635.317 706.479 648.129 708.69C674.368 713.216 700.385 715.248 727.02 715.412C740.483 715.497 753.943 713.901 767.375 714.09C779.265 714.257 789.602 716.937 800.475 710.616C817.848 700.515 837.999 685.301 837.573 663.203C837.185 643.187 825.178 624.064 813.917 608.278C800.241 589.107 780.742 575.607 761.632 562.383C741.264 548.29 718.387 538.552 696.98 526.25C686.032 519.959 675.935 513.19 664.048 508.719C658.373 506.586 652.837 504.112 647.229 501.814C642.717 499.965 636.201 498.944 632.339 495.877C629.929 493.963 629.697 491.065 629.061 488.22C627.651 481.923 625.437 475.951 623.29 469.879C619.146 458.153 616.391 446.211 614.61 433.913C612.912 422.189 609.143 409.998 611.095 398.083C623.935 410.502 637.128 422.441 650.264 434.531C655.187 439.062 660.018 443.688 664.967 448.191C668.682 451.572 673.329 456.594 678.508 457.597C685.121 458.879 682.705 451.563 687.246 450.429C690.022 449.737 698.392 456.789 700.587 458.182C714.495 467.012 729.896 472.607 745.194 478.618C761.235 484.92 777.733 490.518 794.994 492.104C810.938 493.572 827.242 491.688 842.628 487.345C873.269 478.694 895.817 458.169 912.365 431.563C931.22 401.245 944.94 365.73 943.83 329.538Z" fill="black"/>
<path fill-rule="evenodd" clip-rule="evenodd" d="M475.521 263.445C475.516 263.454 475.469 263.554 475.469 263.554C475.527 263.514 475.544 263.478 475.521 263.445Z" fill="black"/>
<path fill-rule="evenodd" clip-rule="evenodd" d="M477 263.837C476.885 262.871 476.637 261.926 476.257 261C475.243 262.608 474.335 263.297 475.668 265C476.111 264.612 476.555 264.225 477 263.837Z" fill="black"/>
<path fill-rule="evenodd" clip-rule="evenodd" d="M547.658 493.678C548.792 492.471 546.808 492.016 546.054 492C546.129 493.295 545.487 496.399 547.259 497C546.834 495.828 546.967 494.721 547.658 493.678Z" fill="black"/>
<path fill-rule="evenodd" clip-rule="evenodd" d="M517.726 241.043C515.776 244.809 520.084 245.977 522.578 244.158C524.454 242.79 525.564 239.303 525.872 237.066C526.869 229.828 521.804 222.938 519.278 216.515C518.626 214.855 517.732 209.161 515.63 209.004C513.216 208.825 513.037 214.069 513.006 215.422C512.913 219.502 513.993 223.658 515.259 227.509C516.623 231.661 520.004 236.645 517.726 241.043Z" fill="black"/>
<path fill-rule="evenodd" clip-rule="evenodd" d="M527.001 225.94C534.496 232.614 540.492 221.498 539.968 214.923C539.839 213.293 538.738 207.287 535.648 209.473C534.096 210.571 535.419 214.14 534.679 215.707C531.095 223.303 527.642 211.52 525.228 210.595C522.291 209.468 521.996 213.327 522 215.39C522.007 219.485 523.956 223.228 527.001 225.94Z" fill="black"/>
<path fill-rule="evenodd" clip-rule="evenodd" d="M499.793 226.977C501.558 224.197 503.729 220.468 503.969 217.137C504.341 211.96 501.325 212.392 498.841 216.004C497.088 218.556 495.772 222.884 491.9 221.808C487.12 220.482 488.581 214.054 485.905 211C479.148 220.076 491.935 239.347 499.793 226.977Z" fill="black"/>
<path fill-rule="evenodd" clip-rule="evenodd" d="M509.92 254.752C512.715 255.356 520.002 255.133 517.477 250.854C514.293 245.463 503.705 253.408 509.92 254.752Z" fill="black"/>
<path fill-rule="evenodd" clip-rule="evenodd" d="M607.831 94C608.343 92.4765 607.64 92.1998 606.42 91C605.265 92.0662 606.744 93.1879 607.831 94Z" fill="black"/>
<path fill-rule="evenodd" clip-rule="evenodd" d="M659.961 369.949C661.805 370.242 662.399 369.267 661.74 367.023C658.831 366.835 658.239 367.81 659.961 369.949Z" fill="black"/>
<path fill-rule="evenodd" clip-rule="evenodd" d="M559.276 134.55C561.31 135.48 560.531 137.388 560.496 139C561.544 137.862 563.66 135.78 562.798 134.145C561.471 131.624 558.002 133.968 559.276 134.55Z" fill="black"/>
<path fill-rule="evenodd" clip-rule="evenodd" d="M490 102.815C489.69 102.21 489.38 101.605 489.07 101C487.807 102.014 485.857 104.694 487.864 106C488.687 105.001 489.399 103.94 490 102.815Z" fill="black"/>
<path fill-rule="evenodd" clip-rule="evenodd" d="M514.402 120.604C516.933 122.588 515.719 116.497 515.643 116C515.267 116.714 513.124 119.601 514.402 120.604Z" fill="black"/>
<path fill-rule="evenodd" clip-rule="evenodd" d="M513 117.511C512.807 117.008 512.612 116.504 512.419 116C511.393 116.95 510.137 118.889 511.831 120C512.296 119.222 512.685 118.392 513 117.511Z" fill="black"/>
<path fill-rule="evenodd" clip-rule="evenodd" d="M529.071 138.427C529.278 138.617 529.484 138.808 529.69 139C530.525 137.316 529.576 136.052 528 136C528.112 136.945 528.469 137.754 529.071 138.427Z" fill="black"/>
<path fill-rule="evenodd" clip-rule="evenodd" d="M461.265 327.834C462.269 327.15 463.18 326.371 464 325.496C461.029 323.68 462.809 327.616 459.233 325.199C458.463 326.264 459.721 328.648 461.265 327.834Z" fill="black"/>
<path fill-rule="evenodd" clip-rule="evenodd" d="M586.102 493C587.232 491.266 587.436 491.316 585.893 490C584.606 492.143 584.739 491.592 586.102 493Z" fill="black"/>
<path fill-rule="evenodd" clip-rule="evenodd" d="M350 217.076C350.615 217.718 351.23 218.359 351.845 219C352.132 218.161 353.698 215.789 352.634 215C351.757 215.692 350.878 216.384 350 217.076Z" fill="black"/>
<path fill-rule="evenodd" clip-rule="evenodd" d="M371.874 223.422C370.892 223.258 368.543 222.542 368 223.455C369.437 224.632 372.678 223.557 371.874 223.422Z" fill="black"/>
</svg>
