<svg width="1024" height="768" viewBox="0 0 1024 768" fill="none" xmlns="http://www.w3.org/2000/svg">
<path fill-rule="evenodd" clip-rule="evenodd" d="M303.253 421.074C307.999 456.666 312.744 492.258 317.49 527.85L321.322 556.592C321.806 560.219 321.349 567.373 323.192 570.62C323.843 571.765 325.554 572.309 326.812 572.984C331.142 575.309 335.473 577.634 339.803 579.959C376.433 599.625 413.063 619.291 449.691 638.957C484.845 657.83 519.999 676.704 555.152 695.577C558.79 697.531 564.674 702.627 568.601 701.284C572.334 700.008 576.149 696.86 579.538 694.875C586.044 691.062 592.549 687.25 599.055 683.437C638.421 660.367 677.786 637.296 717.152 614.226C733.394 604.708 749.635 595.19 765.877 585.671C770.32 583.067 774.765 580.463 779.209 577.858C781.533 576.496 781.835 576.544 782.75 574.232C786.17 565.589 787.754 555.688 790.174 546.72C792.841 536.837 795.508 526.954 798.175 517.071C799.364 512.661 798.806 512.092 796.866 507.835C793.028 499.409 789.19 490.984 785.352 482.559C776.833 463.859 768.315 445.159 759.795 426.459C756.35 418.897 748.052 413.576 742.078 408.014L649.321 321.655C646.965 319.461 644.609 317.268 642.253 315.074C641.865 328.258 639.26 342.431 643.081 355.167C649.352 376.068 655.622 396.969 661.892 417.87C664.923 427.973 667.953 438.075 670.984 448.177C671.547 450.054 674.975 457.497 674.059 459.148C673.551 460.063 669.221 460.989 668.283 461.345C664.254 462.878 660.225 464.411 656.195 465.944C644.969 470.215 633.743 474.486 622.517 478.756C612.42 482.598 602.323 486.439 592.226 490.28C588.802 491.583 584.781 493.995 581.165 493.794C577.93 493.614 574.252 492.013 571.122 491.207C565.619 489.79 560.115 488.372 554.612 486.954C543.802 484.17 532.991 481.386 522.181 478.601C510.019 475.468 499.748 466.267 489.347 459.457C471.469 447.751 453.591 436.045 435.714 424.34C431.621 421.66 431.606 420.131 429.975 415.238C426.31 404.242 422.644 393.246 418.979 382.25C417.022 376.379 414.615 370.483 413.137 364.472C410.699 354.552 409.253 344.283 407.322 334.253C406.74 331.227 406.157 328.2 405.575 325.174C398.088 328.212 390.601 331.251 383.113 334.29C382.028 334.73 376.74 336.043 376.27 337.122C375.972 337.804 377.545 340.899 377.77 341.564C383.978 359.951 390.186 378.337 396.395 396.723C398.348 402.507 400.3 408.29 402.253 414.074C397.587 406.741 392.92 399.407 388.253 392.074C384.587 404.407 380.92 416.741 377.253 429.074C368.587 419.074 359.92 409.074 351.253 399.074C348.253 409.074 345.253 419.074 342.253 429.074C332.92 416.741 323.587 404.407 314.253 392.074C313.144 398.51 312.034 404.946 310.924 411.382C310.589 413.325 310.656 418.898 309.363 420.436C308.298 421.702 305.232 421.074 303.253 421.074Z" fill="#FFDE00"/>
<path fill-rule="evenodd" clip-rule="evenodd" d="M894.187 498.009C893.662 514.763 894.026 536.512 884.857 551.243C883.377 553.62 878.364 561.026 877.804 554.511C877.255 548.115 878.829 541.781 877.27 535.311C876.436 531.849 873.631 524.287 868.836 527.414C866.393 529.008 865.749 532.943 864.793 535.427C863.379 539.102 861.795 542.719 860.306 546.366C855.106 559.097 849.718 574.29 838.159 582.715C839.672 571.737 843.795 560.015 841.023 548.918C840.079 545.136 837.217 538.23 832.29 540.446C827.488 542.605 824.376 552.239 822.11 556.529C815.239 569.536 808.212 582.298 800.477 594.819C796.586 601.117 792.384 606.873 787.293 612.26C784.11 615.63 780.141 621.325 775.124 621.827C775.124 612.224 778.284 602.946 781.169 593.903C784.272 584.179 787.101 574.372 790.147 564.63C792.789 556.179 794.958 547.793 796.717 539.127C797.446 535.543 798.022 531.832 801.077 529.517C803.823 527.437 808.161 526.447 811.223 524.918C819.263 520.901 827.532 516.567 835.001 511.574C838.068 509.524 840.708 506.876 843.919 505.037C847.578 502.942 850.994 501.179 854.379 498.626C868.985 487.609 882.152 474.057 891.024 457.925C892.464 464.406 894.372 470.739 894.583 477.42C894.798 484.27 894.402 491.163 894.187 498.009ZM773.978 575.018C771.642 571.073 768.083 572.689 764.947 574.591C760.081 577.542 755.202 580.472 750.311 583.386C740.358 589.316 730.589 595.556 720.865 601.852C701.07 614.665 680.585 625.152 659.716 635.998C639.546 646.479 620.173 658.952 601.275 671.56C596.733 674.59 592.223 677.691 587.862 680.977C583.991 683.894 580.895 687.99 576.82 690.587C572.576 693.291 569.659 691.097 565.6 689.103C560.524 686.609 555.234 684.519 550.045 682.27C529.106 673.192 508.107 663.769 487.738 653.465C467.492 643.225 448.309 631.425 428.91 619.706C419.671 614.125 410.59 608.19 401.477 602.404C391.779 596.247 381.738 591.635 371.565 586.4C367.064 584.083 363.077 580.938 358.454 578.832C353.594 576.619 348.46 575.031 344.108 571.838C342.157 570.406 340.511 568.695 338.281 567.682C336.45 566.851 334.372 566.711 332.564 565.828C328.886 564.032 327.833 560.387 327.121 556.596C322.54 532.259 320.105 507.248 317.45 482.64C315.958 468.802 314.293 455.018 312.231 441.253C311.301 435.047 313.171 430.239 314.153 424.202C315.299 417.151 315.752 409.952 316.52 402.853C320.144 409.567 323.278 416.613 327.889 422.74C331.288 427.255 337.094 433.658 343.353 433.507C353.081 433.272 352.636 416.587 353.028 409.964C357.459 413.919 358.803 420.362 362.481 424.956C365.839 429.15 370.409 434.354 375.566 436.232C386.424 440.187 385.379 420.032 384.782 414.316C384.482 411.449 382.863 406.913 386.704 408.22C390.241 409.424 393.683 414.415 396.656 416.704C401.795 420.662 407.432 423.951 412.704 427.729C419.245 432.417 426.303 435.805 432.972 440.171C437.143 442.902 441.693 443.515 446.24 445.523C452.902 448.466 458.787 452.852 465.128 456.38C477.685 463.363 491.615 469.625 505.35 473.835C509.794 475.197 515.716 479.037 519.087 475.091C521.163 472.663 522.527 468.954 524.289 466.232C526.518 462.786 528.885 459.431 531.343 456.144C540.081 444.463 549.778 433.433 560.547 423.581C573.076 412.12 586.776 401.806 601.43 393.216C607.726 389.525 634.016 372.982 639.795 384.625C635.046 384.329 630.93 386.066 626.869 388.241C625.878 388.772 620.767 392.422 621.963 389.205C620.478 389.483 619.176 391.419 618.052 392.28C616.109 393.768 613.162 395.486 610.912 396.718C608.688 397.935 605.94 398.233 603.913 399.709C603.173 400.248 602.724 401.122 602.018 401.705L599.994 401.721C599.691 402.842 599.388 403.962 599.085 405.083C597.941 401.416 596.309 406.185 594.398 407.734C593.249 408.665 591.43 409.624 590.077 410.225C589.066 410.674 588.91 409.63 587.928 410.424C587.056 411.129 586.5 412.682 585.562 413.566C584.411 414.648 582.938 415.489 581.655 416.413C579.197 418.183 576.597 419.573 574.107 421.251C570.757 423.509 569 427.392 565.748 429.753C564.207 430.871 561.814 431.002 560.98 431.718C558.889 433.516 559.578 436.24 555.678 436.36C556.033 436.928 556.246 437.544 556.319 438.209C555.39 438.049 554.564 437.664 553.841 437.053C554.003 440.943 550.178 442.332 547.885 444.727C546.563 446.107 544.916 448.048 543.984 449.709C543.829 449.987 543.533 452.204 543.469 452.234C543.115 452.404 540.96 450.511 541.164 450.669C540.563 454.263 537.085 457.661 535.562 460.988C534.76 462.741 533.945 465.559 532.364 466.792C531.934 467.127 530.611 466.777 529.518 467.942C528.716 468.796 527.791 470.375 527.465 471.508C527.248 472.265 527.509 474.223 527.197 474.677C526.625 475.507 525.735 474.673 524.839 475.287C523.183 476.421 523.141 478.193 520.718 478.426C522.388 482.484 532.472 483.735 536.137 484.889C546.502 488.151 557.376 491.409 567.065 496.405C569.571 497.697 571.942 498.762 572.386 501.739C573.005 505.881 570.894 511.389 570.491 515.573C569.4 526.872 569.177 538.504 569.405 549.851C569.621 560.599 569.969 571.448 570.47 582.183C570.934 592.136 572.941 601.892 574.024 611.775C574.321 614.488 574.123 626.72 578.787 626.104C582.681 625.59 580.222 617.235 580.149 614.84C579.986 609.539 581.102 604.127 581.055 598.779C581.033 596.208 582.157 593.993 582.265 591.533C582.372 589.102 581.164 587.181 581.526 584.661C581.874 582.243 589.022 568.335 582.157 569.964C582.559 567.976 582.911 565.971 583.442 564.012C584.176 564.672 584.768 565.443 585.214 566.323C585.825 562.051 585.621 557.787 586 553.513C586.17 551.576 586.955 549.455 586.687 547.503C586.738 546.694 586.635 545.9 586.379 545.122C585.957 544.675 585.434 544.44 584.813 544.417C584.486 543.348 584.402 543.054 584.982 542.005C585.231 541.294 585.725 540.85 586.464 540.674C587.872 540.507 588.033 539.698 586.946 538.247C587.513 535.383 587.586 533.575 587.177 530.717C586.833 528.316 588.098 523.667 586.809 521.529C585.304 519.03 584.556 521.454 584.276 517.99C584.216 517.257 584.168 515.729 584.463 514.998C584.786 514.202 585.757 514.528 585.881 514.245C586.724 512.32 586.78 508.53 583.797 508.859C583.914 507.484 584.031 506.109 584.147 504.734C586.302 507.215 585.549 505.115 586.771 503.736C588.417 501.878 590.027 501.558 592.38 500.823C598.651 498.867 604.693 495.924 610.821 493.536C623.797 488.479 637.014 483.964 649.61 477.988C676.103 465.417 702.07 451.774 728.725 439.535C726.821 436.001 728.005 435.829 729.397 432.511C731.255 433.801 730.864 432.901 732.186 432.822C732.066 431.715 732.41 431.381 733.218 431.82C733.861 432.017 734.52 432.087 735.196 432.029C736.846 432.312 738.194 433.22 739.694 433.565C740.186 433.928 740.727 434.2 741.317 434.383C741.847 434.262 742.299 434 742.673 433.596C745.101 434.046 745.919 435.875 746.026 438.523C746.044 438.984 744.634 439.456 745.038 440.075C745.743 441.157 747.641 440.899 748.727 441.037C748.489 442.161 748.251 443.284 748.014 444.407C752.779 442.208 751.536 449.091 752.981 451.352C753.384 451.983 754.281 451.479 754.748 452.21C755.356 453.164 755.173 454.515 755.692 455.465C756.865 457.614 758.039 457.353 759.208 459.814C765.317 472.663 773.444 484.634 779.308 497.759C782.1 504.006 784.618 510.36 787.533 516.552C790.215 522.251 791.748 527.096 789.836 533.319C785.402 547.756 780.66 562.456 774.849 576.401C774.559 575.94 774.269 575.479 773.978 575.018ZM464.685 682.78C464.269 683.488 463.853 684.196 463.437 684.905C462.513 679.59 464.975 682.055 464.685 682.78ZM445.127 672.828C443.794 672.429 444.37 670.252 444.413 669.321C445.256 670.372 446.083 671.443 446.785 672.597C446.232 672.674 445.679 672.751 445.127 672.828ZM391.524 652.396C392.924 651.611 393.931 651.047 395.518 650.157C393.905 653.301 393.905 653.301 391.524 652.396ZM307.195 375.459C305.056 380.709 311.578 413.125 305.506 414.183C304.635 411.338 304.526 403.504 300.921 402.569C296.448 401.408 296.889 409.473 296.278 411.967C287.095 405.578 283.016 393.24 278.629 383.462C273.037 370.999 268.637 358.036 264.435 345.05C260.842 333.947 257.871 322.648 254.24 311.563C251.959 304.601 249.5 297.622 247.966 290.446C247.633 288.887 246.322 284.934 247.436 283.452C249.055 281.297 254.883 283.765 256.761 284.331C268.944 287.997 281.582 289.575 294.099 291.705C308.006 294.07 321.882 296.515 335.873 298.349C339.369 298.807 342.867 299.241 346.367 299.663C348.637 299.937 352.073 299.663 354.229 300.681C358.593 302.74 359.522 310.62 361.143 314.708C367.19 329.96 374.307 344.73 380.674 359.844C386.41 373.459 390.758 387.944 399.003 400.341C392.854 397.615 385.061 383.203 378.19 391.51C375.236 395.082 375.981 399.788 376.217 404.063C376.559 410.243 376.666 416.469 376.666 422.659C369.942 420.912 365.424 413.279 361.894 407.872C357.072 400.487 354.035 393.528 351.9 385.062C350.975 381.396 348.523 381.305 346.344 379.111C344.944 377.701 344.24 375.801 342.232 377.852C339.708 380.43 341.387 387.569 341.823 390.613C342.858 397.856 346.253 409.003 342.953 415.809C338.499 424.994 326.564 401.883 325.166 398.545C324.455 396.846 311.757 364.261 307.195 375.459ZM298.857 218.049C299.609 218.164 300.36 218.279 301.112 218.394C300.506 218.929 299.245 220.805 298.215 220.309C298.429 219.556 298.643 218.803 298.857 218.049ZM338.687 209.502C338.452 209.761 338.215 210.019 337.979 210.278C336.901 208.93 337.283 206.965 337.283 205.406C338.708 206.267 339.056 207.989 338.687 209.502ZM341.906 224.458V228.864C338.92 227.57 338.861 226.902 341.906 224.458ZM345.532 230.06C343.44 229.486 343.19 229.023 343.484 225.808C344.351 227.609 344.922 228.796 345.532 230.06ZM357.574 262.69C356.697 264.946 351.572 259.57 351.76 257.961C351.939 256.426 352.726 255.968 353.812 256.955C354.171 257.282 353.638 258.463 353.867 258.873C354.694 260.357 356.361 261.571 357.574 262.69ZM357.631 276.282C356.347 279.488 354.058 274.439 357.413 274.301C357.633 274.946 357.706 275.606 357.631 276.282ZM355.14 271.227C354.643 270.564 354.16 269.892 353.691 269.208C355.419 269.557 356.791 272.075 358.614 270.395C358.398 272.957 356.578 273.028 355.14 271.227ZM243.395 229.583C240.616 226.55 258.737 224.421 260.923 223.9C276.787 220.117 291.765 214.643 306.598 207.926C313.674 204.722 320.714 201.479 327.624 197.927C330.608 196.394 334.698 195.094 337.19 192.792C338.969 191.149 338.898 189.906 341.21 188.927C343.173 188.098 343.271 188.881 344.17 187.381C344.71 186.481 345.321 183.183 345.005 182.207C344.144 179.544 342.871 181.703 341.084 179.868C339.797 178.545 340.109 174.783 340.46 173.225C340.916 173.967 341.178 174.773 341.248 175.641C343.187 174.685 342.405 171.402 344.526 170.864C346.761 170.298 346.53 172.039 347.113 173.819C348.802 171.339 347.448 169.224 346.534 166.802C351.181 165.932 356.174 165.089 360.78 166.635C364.111 167.752 366.962 170.499 370.479 171.03C373.923 171.549 374.585 169.916 377.124 168.259C379.185 166.914 380.955 168.498 382.016 167.482C381.362 170.912 375.739 170.443 376.431 174.729C376.743 176.658 379.107 178.391 380.183 179.892C381.534 181.776 382.611 183.859 383.531 185.982C387.11 194.24 388.64 203.823 390.142 212.654C393.848 234.452 394.317 256.68 397.803 278.548C399.464 288.964 401.129 299.386 401.992 309.904C402.208 312.534 403.814 318.499 402.5 321.029C401.389 323.165 398.917 323.171 396.747 323.688C392.501 324.697 388.514 326.068 384.441 327.587C380.79 328.948 379.729 329.783 377.385 326.348C375.118 323.024 373.997 319.062 372.375 315.418C370.309 310.775 367.813 306.295 365.417 301.816C370.124 301.816 372.833 299.275 372.708 294.492C372.572 289.194 368.215 287.937 366.419 283.583C364.672 285.852 364.525 285.916 363.28 283.762C361.856 281.299 360.895 276.792 360.024 273.998C360.647 274.663 361.27 275.328 361.893 275.992C363.464 273.83 361.003 270.422 360.18 268.386C358.91 265.242 358.686 261.843 357.481 258.708C356.824 256.997 355.302 255.65 354.929 253.865C354.68 252.67 355.678 251.533 355.441 250.32C355.029 248.208 352.64 245.942 351.897 243.794C350.754 240.49 349.513 237.581 348.095 234.362C346.176 230.005 346.622 225.433 346.271 220.796C345.907 215.988 344.367 211.388 343.823 206.601C343.447 203.294 344.624 199.13 342.122 196.481C341.829 200.884 343.091 200.816 338.954 201.608C334.244 202.509 330.828 206.018 326.375 207.065C325.457 207.281 324.788 203.271 325.146 208.741C323.01 207.164 318.451 209.122 320.152 210.058C318.863 211.437 316.324 210.483 315.9 212.549C311.519 208.29 304.494 222.787 299.277 215.225C298.416 220.35 294.705 223.38 289.723 224.058C287.218 224.398 285.674 225.233 283.451 225.984C283 226.135 282.834 226.784 282.3 226.959C281.484 227.225 280.286 226.422 279.698 226.578C278.501 226.896 277.17 228.471 275.499 228.784C273.583 229.143 271.493 228.978 269.575 228.756C267.177 228.478 266.122 228.194 263.774 228.984C261.662 229.695 259.4 231.686 257.44 229.518C254.361 234.845 247.02 233.543 243.395 229.583ZM385.739 165.3C383.409 165.021 385.027 163.017 386.106 162.415C389.038 160.781 388.255 165.602 385.739 165.3ZM256.719 184.416C270.395 164.686 293.787 151.13 314.369 139.724C325.611 133.494 337.086 127.455 348.89 122.356C354.759 119.822 360.696 117.386 366.689 115.16C369.889 113.971 373.128 112.89 376.369 111.814C377.265 111.517 378.895 110.605 379.833 110.694C379.671 110.678 382.164 111.356 381.674 111.569C383.28 110.87 384.044 109.047 385.932 108.318C388.054 107.498 390.757 107.159 393.03 107.085C395.041 107.019 396.782 107.85 398.698 107.915C399.957 107.957 401.027 107.359 402.26 107.271C402.891 107.227 402.835 108.171 403.215 108.226C403.38 108.25 405.06 107.619 405.076 107.63C405.688 108.023 406.23 109.557 406.783 110.156C408.369 111.874 410.697 113.071 412.812 113.975C415.386 115.075 421.665 116.181 418.755 120.251C420.822 119.954 421.784 121.822 419.196 122.295C417.794 122.552 417.195 121.268 416.154 120.392C413.749 118.372 407.911 115.496 404.447 115.626C402.498 115.699 400.992 117.178 399.195 117.715C397.426 118.243 396.55 117.424 394.998 117.554C393.184 117.705 392.016 119.24 390.287 119.513C388.668 119.769 387.766 118.665 386.319 118.742C384.599 118.833 382.933 120.327 381.291 120.829C378.679 121.627 376.761 122.171 374.211 123.494C369.269 126.059 363.75 127.033 358.657 129.241C354.585 131.006 349.968 131.935 346.2 133.887C342.01 136.056 337.801 138.217 333.698 140.574C330.734 142.277 324.708 142.863 321.44 142.43C321.393 148.448 318.431 144.229 315.446 146.865C316.152 147.488 316.954 147.946 317.849 148.239C314.614 149.531 311.624 151.139 308.49 152.624C305.251 154.16 301.795 154.498 299.667 157.403C297.707 160.08 298.371 158.699 295.446 159.753C294.104 160.237 292.937 161.713 291.97 162.704C290.308 164.408 289.94 166.988 288.991 163.486C288.714 163.913 287.624 166.632 287.412 166.701C286.223 165.439 286.052 166.935 285.387 167.47C285.737 168.633 285.237 169.395 283.887 169.756C283.204 170.264 282.512 170.762 281.813 171.249C279.277 173.008 276.049 174.517 274.263 177.138C272.946 176.361 272.458 175.02 273.26 173.651C270.743 175.971 267.74 178.354 267.059 181.925C266.746 181.623 266.381 181.405 265.967 181.271C264.945 181.961 266.276 184.017 266.924 184.48C269.75 183.382 266.218 183.78 268.117 183.957C268.658 184.007 269.214 184.412 269.811 184.419C271.562 184.442 273.207 184.358 274.943 184.091C278.771 183.501 282.533 182.402 286.239 181.3C290.275 180.1 294.312 178.902 298.259 177.43C301.509 176.218 304.705 174.867 307.9 173.521C309.176 172.983 310.451 172.438 311.729 171.904C314.156 170.89 315.436 169.224 315.097 172.078C317.03 171.757 318.705 169.025 320.189 167.91C322.277 166.343 324.625 165.174 327.099 164.374C328.101 164.05 328.837 163.638 329.873 163.635C330.381 163.634 330.685 165.066 331.005 164.988C333.225 164.45 332.213 163.22 333.211 161.448C335.394 157.575 341.274 155.433 344.885 153.233C347.177 151.836 348.804 149.957 350.92 148.41C351.91 147.687 352.629 147.367 353.666 147.061C354.46 146.826 355.434 148.65 355.949 146.817C354.102 146.062 352.579 145.131 350.802 144.58C349.545 144.189 351.053 142.852 349.061 143.648C348.261 143.968 347.986 145.516 347.692 146.164C345.467 144.177 339.211 146.236 336.571 147.068C336.389 147.125 335.574 146.695 335.19 146.721C333.666 146.823 332.605 148.874 331.602 149.758C328.935 152.107 326.042 153.089 322.758 154.43C323.632 149.655 330.055 147.699 333.804 145.87C339.284 143.196 344.386 139.783 350.386 138.345C354.382 137.386 359.677 136.615 361.403 141.261C362.436 144.046 362.566 150.965 359.071 152.25C358.702 150.95 359.884 149.839 360.24 148.711C356.761 150.039 356.188 154.218 353.546 156.399C352.061 157.624 351.53 158.017 350.812 159.201C350.099 160.377 349.757 161.474 348.086 162.725C345.355 156.924 345.817 164.87 344.432 165.867C344.989 165.466 342.175 166.637 342.511 166.513C342.381 166.561 341.155 164.575 340.36 164.617C338.913 164.693 339.191 166.286 338.494 167.088C336.131 169.802 333.078 171.582 329.275 171.155C329.186 173.086 329.782 175.393 327.145 175.569L326.799 171.288C325.364 172.74 323.475 174.119 322.307 175.8C320.978 177.713 321.12 178.891 318.915 180.166C316.611 181.499 311.709 184.125 308.967 184.352C309.645 183.39 309.525 182.521 308.609 181.747C307.23 183.169 305.194 183.309 303.726 184.593C308.822 186.722 299.811 186.612 298.668 186.853C297.903 187.015 297.235 187.712 296.46 187.869C295.431 188.078 295.298 186.996 294.412 187.339C293.116 187.841 293.642 189.258 292.286 189.97C291.312 190.482 289.66 190.475 288.561 190.961C285.942 192.121 280.363 194.69 278.593 191.574C277.696 196.92 268.535 193.666 265.144 193.306C260.5 192.813 252.411 190.633 256.719 184.416ZM276.225 129.718C276.882 129.157 277.54 129.198 278.198 129.842C277.282 125.004 284.367 122.655 287.458 120.598C291.558 117.87 296.384 112.577 301.749 112.996C300.834 113.674 299.921 114.352 299.007 115.03C300.312 115.199 301.616 115.368 302.919 115.537C302.184 116.617 301.448 117.696 300.711 118.775C299.507 112.139 293.225 120.517 291.407 121.738C289.576 122.967 287.75 123.883 286.123 125.382C284.511 126.867 283.056 129.541 280.391 128.205C280.148 131.995 277.101 130.967 274.994 133.066C274.906 131.749 275.66 130.818 276.225 129.718ZM304.059 110.799C310.544 108.37 316.19 103.879 322.301 100.671C328.138 97.6064 334.093 94.8544 340.027 91.9954C343.037 90.5444 348.551 86.7924 351.992 88.7044C356.635 91.2864 350.243 92.1194 348.583 93.0134C347.969 89.0374 345.818 92.6394 347.103 94.8514C343.56 93.3214 335.833 99.3074 332.453 100.958C331.688 101.332 332.031 101.548 331.161 101.988C330.947 102.096 328.729 102.601 328.094 102.814C324.912 103.879 322.815 103.033 321.444 106.874C321.157 105.97 320.87 105.065 320.583 104.16C318.591 108.633 312.536 110.591 308.664 113.236C307.666 113.918 304.816 116.563 303.55 116.016C301.788 115.254 302.495 111.384 304.059 110.799ZM421.046 124.285C423.784 124.466 421.144 125.743 421.896 126.587C421.811 126.492 423.545 127.971 423.318 127.565C423.624 128.111 424.359 128.091 424.735 129.201C426.03 133.018 420.375 136.962 418.468 139.128C414.76 143.341 412.617 148.676 408.753 152.754C407.008 154.596 405.272 155.868 402.853 156.555C401.16 157.036 399.369 156.521 397.813 158.149C396.56 159.46 396.844 160.205 395.459 160.902C393.019 162.131 391.944 161.053 389.57 163.709C387.527 158.155 393.397 158.164 396.46 155.06C400.688 150.775 405.321 146.452 409.286 141.868C412.808 137.795 414.219 134.224 415.891 129.276C416.418 127.716 416.992 124.371 418.445 123.392C420.708 121.868 419.35 124.172 421.046 124.285ZM434.51 268.565C441.691 260.533 450.599 253.321 460.255 248.483C463.706 246.753 468.619 244.483 472.196 247.146C475.704 249.756 474.949 254.963 473.535 258.505C472.18 257.973 473.459 252.995 472.756 251.765C471.222 249.081 467.912 250.506 465.66 251.406C463.022 252.46 460.668 253.624 458.579 255.537C457.731 256.312 456.108 257.007 455.565 257.54C454.749 257.201 454.268 257.448 454.124 258.28C454.292 258.79 454.272 259.292 454.063 259.786C453.944 259.943 452.883 259.299 452.732 259.428C452.044 260.017 451.4 260.71 450.723 261.257C449.364 262.356 448.208 262.876 446.957 264.408C444.541 267.369 441.345 269.104 438.918 271.925C438.37 272.563 437.713 274.198 437.59 274.341C436.363 275.773 434.544 276.906 433.16 278.422C430.767 281.041 428.212 282.799 425.451 285.045C424.262 286.011 422.875 287.052 422.084 288.396C421.724 289.009 421.521 292.369 421.508 292.383C418.8 295.351 419.327 289.385 419.531 288.637C421.73 280.588 429.165 274.545 434.51 268.565ZM419.729 322.992C420.066 324.256 420.343 325.301 420.685 326.584C418.538 324.823 418.538 324.823 419.729 322.992ZM417.41 327.132C416.621 327.927 415.828 328.717 415.029 329.502C413.272 327.645 417.732 326.814 417.41 327.132ZM416.295 295.17C415.455 298.568 412.38 302.687 410.266 305.369C410.499 305.073 408.462 305.668 408.23 305.803C407.477 306.239 409.28 309.065 406.671 307.802C405.745 308.326 407.568 310.46 406.31 311.415C402.674 303.13 412.602 295.952 416.446 289.802C418.326 291.528 416.767 293.265 416.295 295.17ZM392.678 339.964C395.329 340.646 396.708 340.217 398.498 337.613C399.574 336.049 399.967 333.279 402.428 335.619L402.862 332.61C406.375 334.051 406.08 339.259 407.615 342.145C408.362 338.88 410.131 329.759 415.548 331.222C421.629 332.865 411.508 343.323 410.568 345.885C408.501 342.677 409.314 345.661 407.737 346.113C406.384 346.502 404.27 345.506 402.626 345.596C397.624 345.868 393.23 348.118 388.661 350.023C387.504 346.904 386.348 343.785 385.191 340.666C387.881 340.873 393.443 333.713 394.233 338.917C392.238 338.57 391.676 338.658 390.704 340.474C391.325 340.159 391.983 339.989 392.678 339.964ZM403.906 380.675C403.898 380.65 409.08 380.97 409.542 380.801C413.088 379.506 411.777 375.484 412.502 372.641C413.964 373.985 413.189 376.438 413.64 378.177C414.169 380.221 415.701 381.963 415.843 384.149C416.166 389.088 412.113 387.992 409.041 389.59C406.416 390.956 406.125 392.674 403.908 388.993C403.308 387.997 402.018 385.402 402.15 384.128C402.28 382.866 404.279 381.817 403.906 380.675ZM408.082 402.047L406.649 400.442C410.919 401.749 408.401 399.784 409.383 397.097C412.66 399.279 415.333 401.522 417.926 397.153L422.406 415.223C419.397 415.931 415.515 411.282 413.451 409.685C412.259 408.762 405.644 405.207 409.616 404.171C409.104 403.463 408.593 402.755 408.082 402.047ZM437.326 345.305C434.839 347.67 432.334 348.994 429.626 350.853C427.251 352.485 428.069 354.358 426.01 356.178C424.643 357.388 421.438 358.62 419.749 359.543C416.74 361.187 414.045 361.5 410.95 359.66C411.792 366.441 407.148 366.972 401.367 368.315C398.61 368.956 396.978 369.935 394.991 367.41C393.63 365.682 393.097 362.553 394.79 360.972C397.479 358.46 404.643 359.327 408.093 357.747C410.711 356.549 413.378 349.798 416.608 352.255C414.941 349.6 416.882 348.885 418.331 346.992C419.918 344.917 420.893 342.491 422.535 340.433C425.655 336.521 430.445 332.586 434.876 330.227C438.775 328.152 440.822 329.621 441.406 333.979C441.7 336.17 441.689 339.434 440.462 341.378C440.071 341.998 438.78 342.005 438.389 342.587C437.708 343.604 438.333 344.347 437.326 345.305ZM483.079 292.712C486.19 295.12 485.887 300.18 486.377 303.626C487.068 308.483 486.567 313.183 486.493 318.13C486.415 323.313 483.872 326.689 482.675 331.547C481.345 336.951 479.628 339.813 476.644 344.348C479.88 344.857 475.064 354.521 474.27 355.772C473.408 357.13 466.457 363.388 469.437 363.388C467.793 365.556 466.003 367.781 464.365 369.889C463.72 370.719 462.589 371.045 462.081 371.631C461.046 372.822 460.983 373.884 460.242 375.274C459.117 377.383 458.747 376.82 457.268 378.35C456.247 379.407 455.577 380.802 454.574 381.815C451.342 385.078 450.93 382.405 449.123 379.892C448.846 380.565 448.354 380.987 447.647 381.158C447.081 378.314 450.977 375.441 452.615 373.713C455.298 370.881 457.75 367.761 460.122 364.664C465.202 358.028 469.767 350.978 473.369 343.426C477.201 335.389 480.262 326.691 481.852 317.923C483.064 311.24 484.216 299.776 475.286 298.076C468.791 296.84 461.631 300.786 456.277 303.981C453.014 305.927 449.733 307.862 446.625 310.051C443.251 312.425 440.335 315.785 436.673 317.69C438.676 316.648 432.067 319.784 433.079 318.902C432.605 319.314 433.014 320.573 432.701 321.141C432.293 321.88 430.875 322.61 430.239 323.088C428.559 324.35 425.875 325.641 425.111 327.725C414.455 320.123 435.646 306.627 441.078 303.19C451.853 296.373 470.602 283.053 483.079 292.712ZM511.823 218.779C511.721 213.305 516.179 205.832 519.19 201.368C520.663 199.183 523.016 199.27 523.879 196.693C524.377 195.209 523.724 193.653 523.872 192.163C524.072 190.148 524.946 188.532 525.954 186.8C535.067 171.143 546.139 157.285 557.932 143.625C563.747 136.891 569.26 129.898 575.531 123.572C578.151 120.93 585.192 111.432 589.22 112.382C591.353 112.885 592.594 116.14 593.557 117.801C595.149 120.548 596.9 123.121 598.835 125.647C603.942 132.316 609.833 138.17 616.79 142.897C621.134 145.851 625.523 148.722 629.771 151.817C633.268 154.364 638.555 157.276 641.052 160.852C643.55 164.429 639.882 167.458 637.877 170.428C634.761 175.047 631.895 179.833 628.766 184.447C627.523 183.553 627.844 181.737 626.992 180.592C626.236 179.577 625.167 179.164 624.123 178.537C622.122 177.338 620.158 175.872 618.351 177.881C615.188 181.397 619.537 189.708 624.225 188.796C624.777 192.266 615.416 197.981 613.07 199.891C605.87 205.749 598.443 210.842 588.932 211.372C585.083 211.586 581.078 211.294 577.421 210.006C575.669 209.389 573.732 208.542 572.389 207.197C570.781 205.587 570.371 203.191 568.811 201.597C567.458 200.214 565.6 200.001 564.248 198.613C562.894 197.224 562.225 195.03 561.676 193.231C560.602 189.716 560.399 186.009 559.367 182.486C558.746 180.367 558.236 177.534 556.211 179.57C553.27 182.528 554.747 191.829 555.5 195.373C556.577 200.429 559.102 204.505 561.747 208.855C564.615 213.574 565.674 217.951 566.188 223.411C567.15 233.632 570.083 243.44 574.647 252.636C576.568 256.508 578.869 260.149 580.943 263.932C581.912 265.697 584.083 271.719 586.718 271.687C590.928 271.635 584.931 259.358 584.099 257.297C579.487 245.882 575.082 233.884 574.094 221.524C580.705 223.227 587.911 224.843 594.757 223.764C590.338 233.646 594.954 243.485 594.389 253.657C594.107 258.758 593.903 263.464 594.008 268.55C594.101 273.01 592.087 277.468 590.346 281.501C586.888 289.51 582.535 299.39 576.113 305.525C570.744 310.654 563.562 311.055 556.547 309.874C540.589 307.186 530.104 294.919 523.407 280.987C519.104 272.037 515.815 262.483 513.773 252.763C511.409 241.514 512.033 230.189 511.823 218.779ZM532.547 142.968C517.655 132.193 539.295 119.957 550.31 121.623C552.894 122.013 557.648 123.081 557.406 126.453C557.208 129.209 552.611 132.281 550.846 133.982C545.813 138.836 540.691 148.859 532.547 142.968ZM640.881 382.385C640.37 381.927 636.202 383.051 637.853 380.585C639.225 378.536 643.029 381.104 644.411 381.631C643.272 382.418 642.281 383.637 640.881 382.385ZM578.872 512.704C577.592 512.862 576.254 509.41 580.868 511.989C580.203 512.227 579.537 512.466 578.872 512.704ZM578.74 568.965C578.899 570.512 579.372 571.532 578.273 572.657C577.344 571.512 577.224 569.897 578.74 568.965ZM580.613 592.211C580.477 593.053 580.341 593.895 580.207 594.736C579.141 594.197 578.077 593.658 577.011 593.118C578.211 592.816 579.413 592.514 580.613 592.211ZM581.917 572.609C583.505 573.203 582.766 571.304 583.919 571.037C584.332 573.014 583.823 574.707 582.688 576.338C582.58 575.952 581.998 572.638 581.917 572.609ZM622.501 432.334C620.273 432.05 619.936 434.404 618.275 435.317C617.203 435.907 613.939 435.464 613.33 436.593C614.134 436.825 614.939 437.058 615.743 437.29C613.902 438.282 612.061 439.275 610.22 440.267C614.648 440.267 619.262 438.152 623.66 438.773C625.519 439.036 626.882 439.664 628.048 441.176C628.756 442.094 629.378 443.571 629.492 444.695C629.615 445.911 628.667 446.751 628.835 447.331C630.817 447.385 630.583 450.636 630.138 451.961C629.173 454.834 625.34 459.333 621.905 457.511C623.342 459.55 622.976 460.714 620.851 461.897C621.044 461.223 621.186 460.044 620.1 460.161C619.821 461.291 619.928 463.083 619.005 463.935C617.972 464.888 617.05 463.774 616.062 464.394C614.891 465.13 615.243 466.285 614.322 467.083C613.104 468.137 612.93 467.388 611.474 467.593C609.269 467.905 610.676 466.535 608.91 468.321C608.299 468.937 608.402 470.54 607.412 471.442C605.51 473.173 600.435 474.977 598.613 472.757C594.232 479.7 581.101 481.366 574.989 475.885C565.241 467.144 583.417 449.367 589.418 443.733C595.441 438.079 602.131 433.195 608.9 428.481C612.746 425.803 616.693 423.372 620.723 420.986C623.209 419.513 626.331 416.824 629.386 417.082C632.126 417.314 634.467 419.44 637.352 419.861C639.438 420.165 643.491 420.667 640.859 423.497C639.628 424.819 634.794 426.957 633.148 427.279C632.181 427.468 631.162 427.106 630.204 427.302C628.582 427.635 627.468 429.004 625.703 428.83C626.262 431.449 625.242 432.682 622.501 432.334ZM651.35 335.104C651.351 337.153 647.611 336.642 646.83 335.946C645.544 334.801 645.499 331.377 645.022 329.82C647.196 330.367 651.348 332.369 651.35 335.104ZM621.222 267.506C629.078 261.049 637.338 255.129 646.07 249.915C649.197 248.048 653.612 244.282 657.496 244.752C659.125 244.95 662.493 246.821 661.266 248.884C661.037 249.27 659.224 249.425 658.664 249.705C658.029 250.022 657.531 250.896 656.942 251.328C652.862 254.321 647.96 256.16 643.867 259.225C640.503 261.742 637.366 264.558 633.745 266.718C630.271 268.789 626.641 270.1 623.343 272.394C623.408 272.348 619.053 273.914 619.907 274.199C616.084 272.92 620.122 268.411 621.222 267.506ZM673.6 265.101C678.267 263.241 682.833 260.984 687.719 259.734C690.157 259.11 692.66 258.641 695.184 258.922C695.613 258.171 696.184 258.005 696.898 258.424C697.455 259.28 698.189 259.937 699.101 260.396C700.493 261.466 705.618 262.865 704.594 265.228C703.917 266.791 698.778 266.921 697.368 267.272C693.117 268.331 689.153 270.713 684.774 271.298C684.363 271.353 683.021 270.855 683.006 270.858C681.297 271.231 679.875 273.004 678.407 273.854C675.247 275.683 670.707 275.99 668.438 279.147C675.786 284.128 682.161 279.188 688.621 275.427C692.491 273.175 696.645 271.55 700.874 270.106C703.084 269.352 705.314 268.568 707.554 267.906C708.481 267.568 709.434 267.325 710.412 267.176C711.322 266.995 711.973 267.326 712.366 268.17C715.074 268.08 715.306 266.381 716.936 269.55C719.234 274.018 715.718 273.791 712.414 274.34C707.832 275.1 703.172 276.812 698.657 277.947C697.616 278.209 688.485 280.326 688.474 280.401C688.06 283.283 714.266 280.614 716.516 280.182C720.486 279.418 724.744 277.249 728.854 277.772C732.01 278.173 739.199 282.803 734.165 285.879C733.174 281.135 729.772 285.053 727.996 286.654C725.63 288.785 722.24 288.58 718.995 289.415C714.557 290.555 703.196 294.833 700.044 289.379C701.041 294.159 682.931 291.73 680.441 291.572C678.014 291.417 674.881 291.933 672.535 291.241C671.005 290.79 670.154 289.795 668.714 289.571C668.361 289.951 667.938 290.21 667.446 290.347C666.716 289.978 666.057 289.508 665.469 288.939C660.619 286.71 653.115 285.478 655.81 278.377C658.352 271.68 667.435 267.559 673.6 265.101ZM719.059 269.24C719.18 268.823 719.301 268.406 719.421 267.988C719.436 269.267 722.486 269.813 722.134 271.47C721.353 275.139 717.833 269.626 717.531 269.025C718.041 269.097 718.549 269.168 719.059 269.24ZM737.681 275.336C738.034 276.839 742.09 280.039 741.085 280.777C739.486 278.603 735.066 279.59 737.681 275.336ZM669.264 412.476C670.749 409.531 675.238 414.546 674.764 409.518C677.205 409.739 675.681 411.596 678.606 410.78C679.702 410.474 680.443 409.259 681.779 408.979C682.135 408.904 683.674 409.026 684.205 409.01C685.964 408.956 692.858 408.76 688.113 406.453C690.769 404.697 691.096 405.588 693.493 407.197C692.878 403.871 696.405 405.759 698.047 406.174C696.876 404.277 699.782 402.259 700.725 400.977C700.387 402.952 700.565 405.163 703.423 403.9C704.135 403.586 703.975 402.19 704.54 401.962C705.574 401.545 706.152 402.304 706.523 402.261C706.888 402.22 707.657 402.425 708.424 402.136C709.421 401.761 708.94 400.423 710.204 400.224C711.027 400.095 711.628 401.305 712.633 401.315C713.149 401.32 714.01 400.796 714.402 400.824C714.471 400.829 714.962 399.645 715.565 399.616C716.447 399.573 716.806 401.936 717.128 402.395C718.672 404.585 720.725 406.013 723.093 407.181C718.809 411.109 710.167 410.693 704.78 412.017C701.862 412.735 699.373 413.77 696.703 415.104C696.059 415.523 695.504 416.037 695.04 416.646C694.662 416.395 694.283 416.144 693.905 415.893C692.442 415.983 691.058 415.259 689.411 415.537C684.324 416.395 680.341 420.206 675.171 421.055C672.848 421.437 670.939 421.97 669.426 419.956C668.098 418.19 668.318 414.354 669.264 412.476ZM662.289 389.003C663.442 389.978 662.055 393.152 664.287 392.807C665.871 392.562 665.555 390.105 666.799 389.584C668.433 388.901 669.419 390.522 670.955 390.372C673.818 390.09 673.654 387.59 671.235 386.492C673.75 385.828 674.556 388.802 676.783 388.775C679.708 388.74 679.01 385.289 681.499 384.717C682.577 384.469 682.217 386.052 682.916 386.249C684.316 386.642 685.291 385.967 686.529 385.373C687.637 384.842 688.426 383.816 689.637 383.468C690.188 383.309 691.588 383.6 691.992 383.305C692.807 382.711 693.537 380.397 694.339 380.091C694.175 380.153 696.805 381.471 697.182 381.595C696.951 382.572 696.416 382.688 695.576 381.944C695.576 384.149 701.704 384.836 700.447 382.111C703.761 383.483 701.293 384.189 700.962 386.104C700.83 386.874 700.382 386.853 700.515 387.667C700.576 388.042 702.313 387.719 702.292 388.23C702.145 391.521 691.656 392.533 689.669 392.823C685.555 393.424 681.662 394.435 677.696 395.68C674.743 396.607 669.653 399.262 666.511 399.097C661.992 398.86 661.403 392.964 662.289 389.003ZM652.192 355.421C651.09 351.76 654.625 344.198 659.229 345.143C660.361 345.375 660.64 346.313 661.518 346.729C662.744 347.311 664.738 347.005 665.801 347.606C668.184 348.955 666.983 352.392 669.371 353.634C665.601 354.548 653.943 361.24 652.192 355.421ZM656.555 369.645C658.179 368.772 660.812 368.66 661.919 366.981C662.471 367.363 663.514 369.682 664.503 369.327C664.965 369.162 665.442 367.905 665.409 367.906C666.29 367.881 666.465 366.688 667.812 366.822C669.048 366.946 670.432 368.432 671.533 368.986C671.344 365.302 672.288 364.95 675.275 362.978C675.93 362.546 676.477 360.924 677.081 360.268C676.503 364.134 677.96 364.155 681.047 364.736C684.917 365.464 687.328 367.542 688.879 371.281C685.581 370.638 681.327 371.412 680.027 374.957C677.395 370.148 667.829 376.784 664.734 378.143C662.437 379.152 659.765 380.508 657.839 378.157C656.483 376.501 657.26 374.509 657.289 373.038C657.297 372.576 657.774 372.549 657.73 371.861C657.674 370.983 656.531 370.632 656.555 369.645ZM691.765 445.266C690.894 445.596 686.411 445.781 686.382 444.296C686.358 442.984 694.294 444.306 691.765 445.266ZM684.483 440.462C681.091 442.553 677.296 435.185 676.049 433.063C679.607 433.518 681.344 430.542 683.44 428.28C685.434 432.649 688.462 430.34 691.647 428.881C695.403 427.16 699.519 427.147 703.367 425.766C704.568 425.335 705.675 424.694 706.847 424.201C707.791 423.848 708.732 423.486 709.669 423.115C710.334 422.515 710.571 421.776 710.377 420.9C710.062 420.164 710.277 419.699 711.022 419.507C711.908 419.771 712.812 419.925 713.736 419.966C715.219 419.672 717.35 418.273 715.56 416.765C717.478 415.023 719.399 416.755 721.246 417.518C720.807 416.267 720.37 415.016 719.931 413.765C720.847 414.154 723.567 417.954 723.844 417.933C725.602 417.801 725.419 415.442 726.429 414.49C727.012 415.209 727.179 420.57 729.471 418.764C730.451 417.992 728.341 415.362 727.821 414.763C730.443 415.355 732.732 418.485 733.441 420.915C732.196 421.095 731.045 420.845 729.988 420.163C729.312 423.547 735.576 422.176 736.59 423.944C738.576 427.405 725.658 429.809 723.975 430.13C720.607 430.772 716.632 431.011 713.545 432.504C710.587 433.933 709.887 434.342 706.431 434.61C702.486 434.916 698.637 436.216 694.821 437.228C691.508 438.106 687.42 438.652 684.483 440.462ZM756.583 316.571C759.698 315.45 770.19 309.633 772.861 312.22C772.579 311.946 774.787 316.508 774.764 316.221C774.954 318.594 774.896 319.549 771.975 320.686C769.883 321.5 768.061 319.77 766.179 320.457C764.112 321.212 765.558 322.548 764.494 323.481C763.328 324.504 761.08 324.946 759.629 325.394C756.077 326.491 752.497 327.408 748.962 328.59C741.769 330.995 734.152 333.233 726.76 334.934C721.236 336.205 711.86 339.364 706.77 335.633C706.273 337.754 705.059 337.464 703.373 337.773C702.05 338.015 699.658 338.67 698.482 338.704C696.525 338.761 691.084 338.248 691.833 335.503C691.627 336.259 696.065 333.671 695.297 333.51C697.182 333.907 696.571 332.958 698.115 332.43C700.132 331.741 702.24 331.778 704.299 331.048C709.49 329.208 713.844 326.82 719.323 325.667C731.838 323.034 744.509 320.916 756.583 316.571ZM254.886 600.163C253.872 600.19 253.083 597.309 256.168 599.366C255.741 599.632 255.314 599.897 254.886 600.163ZM230.516 596.435C229.137 596.788 228.587 596.018 228.868 594.127C230.791 593.367 231.34 594.136 230.516 596.435ZM211.702 592.576C211.349 590.89 212.599 590.51 213.732 589.753C213.618 591.987 213.618 591.987 211.702 592.576ZM164.364 578.702C162.457 578.283 159.916 576.418 159.479 579.549C159.16 578.824 157.532 575.414 158.231 574.625C158.596 574.212 159.978 576.122 159.831 575.933C161.5 572.557 164.377 576.631 165.985 577.836C165.445 578.125 164.904 578.414 164.364 578.702ZM660.18 205.606C660.838 204.214 661.615 203.772 662.507 204.281C661.105 207.537 656.357 209.302 660.18 205.606ZM693.17 175.042C694.346 177.247 692.577 178.179 691.314 180.012C692.053 178.035 692.565 176.665 693.17 175.042ZM836.549 390.286C840.791 390.285 849.827 388.046 852.385 392.895C854.078 389.6 856.002 395.779 857.471 396.77C857.636 396.882 858.694 396.073 859.186 396.371C859.928 396.82 860.568 398.043 860.993 398.77C862.274 400.962 862.825 403.568 863.535 405.98C856.126 405.98 848.529 404.255 841.126 403.628C836.267 403.216 831.503 403.204 826.637 403.466C825.67 403.518 823.75 403.199 822.923 403.381C822.083 403.566 820.56 405.277 819.634 405.002C821.073 407.703 839.502 414.242 840.908 411.251C839.242 410.243 835.542 409.469 835.545 407.033C835.548 404.304 839.016 404.309 840.854 404.389C844.874 404.565 851.606 405.903 853.254 410.083C853.96 411.875 854.177 416.387 853.401 418.117C852.9 419.234 852.052 420.577 850.708 420.804C850.157 420.897 849.363 420.164 849.279 420.182C846.521 420.767 841.416 422.982 838.408 419.859C836.239 422.666 825.791 419.6 822.592 418.541C816.998 416.689 809.295 414.146 805.897 408.926C801.755 402.564 810.176 397.187 815.011 394.601C821.62 391.067 829.171 390.289 836.549 390.286ZM864.78 404.996C866.081 405.363 867.381 405.731 868.681 406.098C868.333 408.378 863.203 406.574 864.78 404.996ZM904.089 487.873C904.489 478.738 901.848 470.693 900.323 461.858C899.945 459.668 900.331 455.839 898.667 454.038C897.078 452.316 893.531 453.716 893.39 450.672C891.825 452.505 891.983 452.888 890.054 450.78C890.406 451.684 890.457 452.603 890.207 453.539C889.01 452.853 884.672 450.575 885.037 453.69C881.47 452.901 882.503 450.67 880.468 448.967C880.179 448.725 879.018 449.584 878.565 449.218C877.747 448.555 877.342 447.953 876.652 447.099C875.775 448.159 874.581 448.925 873.509 449.763C872.886 448.406 871.673 447.41 870.215 447.08C871.578 449.932 874.948 453.626 870.326 455.249C867.567 456.217 863.048 455.03 860.126 455.256C849.296 456.096 837.434 453.735 826.963 451.155C816.206 448.505 805.328 444.764 795.654 439.296C793.592 438.13 792.293 436.75 790.517 435.304C788.791 433.898 787.536 433.676 785.461 432.777C781.726 431.159 778.31 428.564 775.469 425.672C769.36 419.453 763.684 411.32 765.385 402.215C767.081 393.14 773.319 386.048 779.994 380.072C787.877 373.014 796.778 367.121 806.224 362.37C810.448 360.247 821.252 352.269 825.425 356.937C828.092 359.919 826.592 363.724 822.948 364.387C822.049 364.551 821.11 363.948 820.201 364.361C818.891 364.957 819.352 365.661 818.811 366.158C817.872 367.021 816.874 368.367 815.471 369.115C810.574 371.726 805.84 373.795 801.159 376.975C799.001 378.44 796.924 379.07 795.022 380.349C793.13 381.62 792.7 383.724 790.156 382.426C791.062 386.126 785.622 390.088 783.49 392.355C780.187 395.865 776.227 400.345 777.768 405.538C780.785 415.704 794.416 423.425 803.139 427.894C814.025 433.47 826.03 437.909 838.151 439.746C844.177 440.659 850.405 441.223 856.476 441.802C861.203 442.253 868.457 440.602 871.858 444.859C871.963 439.895 887.467 440.333 890.767 439.698C884.151 417.083 871.16 396.976 857.272 378.19C850.456 368.968 843.762 359.484 835.993 351.03C827.487 341.775 817.769 333.504 808.536 324.988C790.426 308.285 769.944 293.378 749.102 280.246C728.308 267.145 706.773 254.251 683.992 244.91C657.973 234.242 630.58 227.225 603.157 221.249C606.877 216.509 612.928 214.197 617.691 210.729C619.359 209.515 621.613 206.601 623.779 206.203C626.125 205.771 627.972 208.295 629.642 209.562C634.435 213.198 637.75 211.654 643.24 211.435C646.525 211.304 654.304 213.133 655.689 208.69C657.531 211.142 654.86 213.108 653.493 214.906C654.488 216.294 655.29 214.854 656.273 214.637C656.576 214.386 656.878 214.134 657.181 213.883C657.669 213.177 658.109 213.173 658.5 213.869C659.086 214.751 659.676 214.556 660.27 213.283C660.433 213.181 660.595 213.078 660.758 212.976C661.468 212.598 662.153 212 662.813 211.529C667.802 207.964 672.248 204.927 677.755 202.301C682.38 200.097 679.893 195.88 682.942 192.902C683.632 192.228 684.793 192.566 685.531 191.995C686.253 191.434 686.362 190.798 686.889 190.197C688.156 188.752 686.648 187.075 689.88 188.844L688.714 182.283C695.051 188.431 695.026 170.739 695.892 168.121C695.778 168.467 696.461 165.788 696.46 165.811C696.646 160.502 697.371 156.654 691.153 156.346C693.507 154.865 694.227 157.757 695.314 154.763C695.858 153.263 694.159 150.685 696.867 151.652C697.438 148.464 696.874 145.884 696.164 142.786C695.436 139.615 695.864 137.499 695.897 134.328C695.934 130.731 694.25 127.116 693.711 123.574C693.289 120.8 693.724 116.425 690.138 117.444C689.634 116.655 691.405 114.228 691.333 113.028C691.221 111.164 689.198 109.27 688.625 107.48C687.782 108.35 686.594 108.64 685.447 108.247C686.524 105.815 685.513 104.998 684.482 102.901C683.891 101.7 684.248 100.374 682.983 99.5134C682.258 99.0194 681.022 99.8514 680.454 99.2724C679.236 98.0324 679.686 96.3874 678.848 94.7534C677.797 92.7044 675.396 91.1394 673.742 89.6014C664.441 80.9564 654.339 74.3494 641.967 70.9714C629.486 67.5634 614.935 66.3424 602.496 70.2734C597.524 71.8444 593.11 71.6834 588.635 74.6174C587.184 75.5694 587.028 75.3144 586.291 76.9014C586.121 77.2714 587.666 78.2564 586.72 78.8614C585.692 79.5184 584.557 78.1824 584.033 77.0734C577.559 81.7594 571.493 88.0064 567.806 95.1694C564.142 102.287 563.806 110.649 562.407 118.384C555.954 111.012 547.226 107.478 537.737 111.022C529.466 114.11 523.057 120.898 521.439 129.692C520.452 135.053 521.53 140.482 523.965 145.319C525.018 147.409 526.293 149.723 528.229 151.13C529.76 152.242 532.382 152.086 533.103 154.092C534.208 157.165 527.826 163.802 526.169 166.492C523.172 171.36 520.387 176.387 518.267 181.704C510.666 170.967 503.39 159.24 494.747 149.34C486.59 139.996 476.866 131.616 467.329 123.718C447.535 107.326 426.953 91.9264 404.811 78.8674C384.194 66.7074 359.29 59.9564 335.262 62.3434C311.785 64.6764 293.811 79.5244 278.686 96.6494C249.604 129.576 231.792 176.507 230.052 220.338C229.529 233.505 230.532 246.5 233.784 259.271C235.333 265.352 235.108 271.333 236.008 277.492C237.024 284.44 238.781 291.363 240.48 298.169C246.952 324.096 255.198 350.003 264.451 375.071C269.262 388.107 275.083 400.851 282.958 412.346C286.595 417.656 291.307 421.81 295.221 426.852C299.018 431.742 300.021 437.744 300.856 443.744C302.858 458.131 304.186 472.579 305.39 487.05C305.901 493.183 306.498 499.262 307.31 505.352C308.018 510.662 306.237 510.401 301.77 512.204C302.676 507.433 281.334 510.679 279.319 511.005C277.126 511.359 274.804 511.364 273.077 511.646C271.146 511.96 269.256 512.415 267.032 512.351C263.763 512.257 257.642 511.422 256.394 515.595C255.535 510.757 249.861 516.047 254.059 515.149C249.75 515.631 245.353 514.829 240.992 515.235C235.994 515.699 230.953 516.141 225.99 516.893C222.535 517.416 219.238 518.747 215.777 519.133C211.348 519.628 206.726 519.582 202.254 519.976C185.759 521.431 168.662 525.029 152.628 529.149C148.996 530.082 144.823 530.745 141.353 532.243C140.424 532.643 139.588 533.539 138.698 533.883C137.206 534.459 137.41 534.061 136.085 534.325C128.146 535.912 119.956 538.504 112.018 540.538C107.615 541.667 100.453 542.685 96.8614 545.758C95.2514 547.134 93.8444 549.575 96.4244 551.139C98.4854 552.388 101.427 550.394 103.095 549.316C101.609 553.189 98.8064 555.119 100.32 559.525C101.515 563.007 104.213 567.298 108.364 565.052C108.92 566.345 109.145 568.917 110.782 569.392C112.253 569.819 113.318 567.955 114.759 568.394C115.275 568.551 115.079 569.526 115.541 569.781C116.337 570.219 117.144 570.405 118.056 570.714C118.84 570.98 120.102 571.526 120.92 571.584C121.439 571.621 122.662 570.733 122.658 570.733C123.85 570.914 124.491 573.195 125.349 573.854C126.463 574.71 127.383 574.905 128.778 575.215C131.678 575.859 135.416 576.963 137.33 573.994C136.892 576.114 139.775 575.906 141.047 576.175C140.906 575.058 140.289 574.035 139.337 573.422C142.181 573.61 141.028 576.437 143.13 577.184C144.628 577.715 144.458 576.365 145.604 576.215C147.114 576.018 148.26 577.114 150.618 576.103C151.129 578.374 151.316 580.664 154.105 581.003C155.742 581.202 159.559 578.246 159.343 580.706C163 579.634 164.388 580.359 166.299 583.582C166.622 581.603 168.185 582.177 169.619 582.055C171.892 581.861 171.95 582.044 173.712 580.757C173.873 580.64 175.259 577.465 175.875 579.438C176.152 580.322 174.321 582.402 173.643 582.931C174.485 583.357 177.244 584.848 178.305 584.574C179.223 584.337 179.226 582.768 180.329 582.687C180.059 583.589 179.79 584.492 179.519 585.394C181.665 585.706 183.458 584.27 185.153 583.218C186.769 587.304 191.388 585.002 193.9 588.077C195.229 589.704 195.291 590.94 197.823 591.365C200.414 591.8 202.677 590.663 204.879 592.8C204.181 591.474 202.442 590.374 204.17 588.949C205.346 590.618 205.953 592.628 207.309 594.18C207.496 593.391 207.683 592.602 207.87 591.812C211.405 595.593 215.855 595.626 220.383 597.722V594.955C223.625 599.903 223.798 596.772 227.671 594.751C227.408 596.206 227.144 597.661 226.881 599.115C229.668 598.905 232.272 602.207 234.56 599.402C235.942 601.72 237.617 600.579 239.882 601.315C241.17 601.734 242.129 603.002 243.382 603.461C245.261 604.149 245.822 604.117 247.591 604.716C249.164 605.248 250.058 606.284 252.027 606.616C253.306 606.832 254.466 606.816 255.69 606.757C256.163 606.734 256.007 605.67 257.058 605.918C258.683 606.303 259.893 608.341 261.063 609.386C262.823 604.962 267.751 610.888 270.133 611.677C270.361 610.543 270.32 609.176 271.141 608.244C272.105 610.356 272.473 612.131 274.474 613.491C275.629 614.276 277.325 614.838 278.659 615.125C279.502 615.306 281.034 615.089 281.564 615.349C282.468 615.792 282.801 616.975 283.714 617.086C284.251 617.151 285.047 615.738 285.449 615.848C287.289 616.35 288.311 618.585 290.169 619.794C295.698 623.391 302.656 623.74 308.816 624.529C310.362 624.726 310.586 624.304 311.842 625.211C312.512 625.696 312.208 627.17 313.032 627.583C316.137 629.139 316.139 625.819 316.79 623.756C317.817 625.111 317.994 626.9 319.399 627.978C320.166 627.956 320.934 627.973 321.7 628.03C322.132 628.523 322.416 629.092 322.548 629.737C324.408 630.993 326.515 630.556 328.436 631.499C329.066 631.808 330.182 633.677 330.958 634.214C332.347 635.176 334.495 635.69 336.082 636.108C339.41 636.984 344.182 635.82 346.162 639.295C348.791 636.477 347.774 639.842 349.559 640.549C350.613 640.966 352.198 639.307 353.367 639.472C355.472 639.768 356.23 642.047 356.904 643.704C358.186 643.418 357.306 639.791 357.27 638.996C358.863 638.808 359.217 643.003 359.492 643.925C362.007 642.714 357.879 638.945 360.583 637.736C360.335 640.947 362.894 643.591 358.324 644.051C358.955 645.985 373.695 648.133 374.719 646.426C374.946 649.582 377.066 646.634 377.848 645.554C377.936 647.395 377.309 650.008 379.375 650.864C380.779 651.445 383.945 649.942 384.496 648.566C385.125 650.668 386.179 650.6 387.489 651.935C388.389 652.852 388.982 654.442 389.926 655.21C391.663 656.623 394.894 656.407 396.918 656.091C400.878 655.473 400.41 654.714 401.821 658.83C402.14 657.268 403.14 654.001 404.884 656.43C405.994 657.973 403.631 661.374 402.948 662.729C404.474 661.891 405.989 660.897 407.725 660.536C407.822 661.071 407.911 662.206 407.655 662.701C407.707 662.601 409.559 663.843 410.246 664.187C410.081 664.104 410.789 661.012 410.769 661.113C413.212 662.621 411.517 665.504 413.681 666.991C414.24 667.376 415.552 666.927 416.228 667.161C417.405 667.569 418.423 668.672 419.469 669.317C418.634 668.197 418.754 666.317 418.811 665.024C419.343 665.318 419.723 666.418 420.26 666.505C420.463 666.538 422.568 666.817 422.554 666.807C424.745 668.341 424.294 668.534 422.413 670.379C423.085 671.435 425.894 669.6 426.654 669.295C426.813 669.708 426.854 671.208 427.153 671.476C427.334 671.92 427.516 672.364 427.698 672.808C428.259 672.39 428.861 672.25 429.503 672.389C429.909 672.53 433.078 673.819 433.293 673.378C432.6 673.154 431.971 672.81 431.409 672.347C433.238 670.703 434.441 669.829 436.126 672.203C436.338 672.502 435.609 673.576 435.825 673.966C436.63 675.418 438.284 676.573 439.407 677.756C439.872 676.123 438.79 672.034 441.372 672.183C443.435 672.301 445.004 677.299 444.29 678.853C445.11 677.956 450.006 677.065 450.93 677.345C453.543 678.137 452.81 680.553 456.025 677.013C458.217 678.526 456.285 679.099 456.68 680.943C457.259 681.064 457.807 680.921 458.326 680.514C457.938 688.351 463.721 682.363 467.476 683.56C468.95 684.03 469.327 685.703 470.909 686.192C471.746 686.45 472.677 685.839 473.491 685.988C474.143 685.895 474.791 685.78 475.435 685.643C476.251 685.234 476.634 685.691 476.584 687.015C477.896 687.695 477.4 687.961 478.934 688.093C479.922 688.179 480.831 687.151 481.954 687.326C483.891 687.63 483.635 689.117 484.873 689.894C485.987 690.594 487.243 690.571 488.615 690.436C489.314 690.367 491.277 689.466 491.513 689.463C492.979 689.443 492.184 689.131 493.944 690.39C495.314 691.372 495.889 692.008 497.571 692.46C499.5 692.977 502.922 694.108 504.22 692.714C505.973 695.342 507.346 693.413 509.66 693.587C510.844 693.677 511.032 694.138 512.086 694.322C513.794 694.62 515.925 694.362 517.742 694.945C520.605 695.865 520.928 696.327 523.854 696.451C524.382 696.245 524.91 696.038 525.437 695.832C525.595 696.713 526.01 697.432 526.683 697.989C528.32 698.332 529.395 697.506 530.745 696.601C531.751 699.734 535.015 700.008 537.807 700.42C542.312 701.085 546.62 701.448 550.964 702.929C554.633 704.179 558.309 705.583 561.838 707.184C564.944 708.593 567.875 710.7 571.389 709.711C579.351 707.469 587.067 699.296 593.728 694.603C601.618 689.045 610.127 684.465 618.371 679.468C651.191 659.574 685.864 642.745 718.224 622.111C735.891 610.846 752.284 597.461 771.257 588.347C768.556 599.508 763.958 610.838 764.789 622.523C765.123 627.232 766.51 632.795 770.162 636.082C774.677 640.147 779.706 637.559 784.024 634.655C793.277 628.434 799.447 619.356 806.372 610.832C814.563 600.748 820.916 589.914 826.931 578.421C828.372 580.444 827.276 583.833 827.297 586.076C827.325 588.938 828.097 591.696 829.424 594.251C832.85 600.845 839.37 602.444 845.261 597.926C856.599 589.231 863.179 573.746 869.254 561.276C872.719 567.722 877.637 575.836 885.958 571.232C892.824 567.433 896.858 558.944 898.958 551.754C905.09 530.766 903.147 509.387 904.089 487.873Z" fill="black"/>
<path fill-rule="evenodd" clip-rule="evenodd" d="M893.677 361.806C892.894 359.904 892.55 360.215 893.99 358.371C895.112 359.476 894.214 360.389 893.677 361.806ZM928.377 476.919C926.175 470.659 927.535 463.861 926.198 457.44C925.584 454.494 924.615 451.636 924.266 448.637C924.111 447.306 922.926 441.315 923.733 440.372C921.249 438.868 921.241 437.755 920.667 434.806C921.552 433.867 921.441 433.066 920.333 432.401C919.609 431.525 918.884 430.648 918.159 429.772C921.328 431.321 919.453 427.356 919.13 425.071C918.874 423.265 918.702 421.381 918.1 419.65C917.359 417.522 915.711 416.446 919.139 416.446C918.011 415.163 916.324 413.839 915.762 412.268C914.954 410.007 916.287 407.019 914.639 405.022C913.72 403.908 908.983 403.472 909.814 401.066C910.237 399.84 912.157 400.755 912.751 399.896C915.086 396.52 908.192 395.121 907.854 393.685C907.416 391.823 909.906 391.407 910.059 389.666C910.208 387.962 907.559 385.162 906.859 383.638C905.905 383.87 904.859 385.379 903.767 384.658C903.56 384.522 903.871 378.623 903.623 377.84C903.379 377.07 902.88 375.028 902.702 374.65C901.995 373.149 899.972 372.418 899.651 370.645C899.459 369.587 903.605 367.985 898.85 367.935C900.558 364.925 897.429 363.096 896.29 360.524C894.826 357.217 893.963 353.645 892.459 350.321C890.997 347.09 889.362 344.024 887.254 341.167C885.346 338.58 884.521 336.092 882.996 333.36C882.691 333.12 882.386 332.88 882.081 332.64C880.809 332.824 880.401 332.245 880.857 330.902C879.884 329.461 879.161 327.923 878.303 326.418C877.306 324.669 875.961 323.243 874.931 321.542C873.564 319.287 873.16 316.744 871.615 314.482C869.716 311.699 867.58 309.245 865.819 306.358C863.613 302.741 861.17 300.493 858.394 297.692C857.073 296.358 856.914 293.026 855.295 291.132C853.532 289.069 851.791 288.51 850.569 285.802C848.979 282.279 846.646 280.597 844.375 277.552C842.501 275.04 841.586 272.153 839.522 269.723C837.747 267.636 835.732 265.729 833.837 263.75C831.445 261.251 829.679 258.214 827.189 255.838C827.548 256.181 825.022 254.179 825.149 254.243C824.59 253.958 822.786 253.729 823.049 253.884C819.291 251.675 814.582 243.59 808.927 247.874C805.952 250.127 807.379 254.259 809.456 256.503C810.348 257.467 814.983 262.219 815.984 260.215C817.065 261.747 820.394 269.153 823.163 267.031C822.881 269.562 824.347 268.722 825.315 270.433C825.952 271.562 825.642 272.116 826.106 273.878C827.383 278.722 832.255 283.453 834.85 287.677C841.309 298.19 848.434 308.161 854.899 318.686C861.06 328.717 867.96 338.235 873.871 348.401C880.594 359.961 888.97 370.873 894.035 383.335C894.206 383.754 895.613 384.417 895.962 385.046C896.571 386.139 896.44 388.029 896.832 389.267C898.191 393.559 900.394 397.784 902.904 401.339C905.106 404.458 905.266 408.697 906.781 412.356C908.918 417.513 911.175 422.616 913.251 427.799C916.482 435.866 918.671 443.598 920.904 452.02C922.351 457.478 923.502 462.933 923.963 468.569C924.387 473.752 924.491 479.151 926.409 484.058C927.717 482.038 929.258 479.421 928.377 476.919Z" fill="black"/>
<path fill-rule="evenodd" clip-rule="evenodd" d="M189.239 587.98C186.917 587.511 184.732 586.885 184.24 584.219C183.903 585.476 183.567 586.733 183.23 587.99C186.057 588.63 188.885 589.271 191.712 589.911C191.052 588.748 190.57 588.249 189.239 587.98Z" fill="black"/>
<path fill-rule="evenodd" clip-rule="evenodd" d="M195.47 150.439C195.646 149.687 195.874 148.95 196.155 148.231C196.346 148.932 197.282 150.448 196.737 151.109C196.043 151.948 195.341 151.473 195.47 150.439ZM206.853 128.781C207.615 129.117 209.264 129.182 210.21 129.466C207.756 131.577 207.324 130.956 204.151 130.711C204.01 128.575 204.878 127.912 206.853 128.781ZM185.582 181.659C185.911 181.668 186.241 181.676 186.572 181.684C186.592 180.754 186.568 179.825 186.498 178.897C189.844 179.628 187.95 173.781 186.899 172.569C190.163 172.678 191.753 162.344 192.787 160.353C193.705 158.585 194.745 157.901 195.416 155.745C196.003 153.858 196.638 152.16 197.485 150.375C199.431 146.271 201.984 142.544 201.513 137.761C203.162 141.35 204.612 137.767 205.658 136.051C207.343 133.286 211.454 129.758 211.891 126.474C212.277 123.583 210.129 123.43 211.397 120.749C212.679 118.035 213.733 118.307 215.979 117.439C217.473 116.861 217.77 117.563 218.824 115.677C219.507 114.456 219.266 113.546 220.141 112.545C220.502 112.859 220.913 112.989 221.373 112.935C222.083 111.998 222.549 110.954 222.77 109.803C223.349 108.249 223.629 106.822 224.501 105.342C225.328 103.94 226.796 100.189 227.574 99.5129C228.4 98.7949 233.085 99.1599 233.065 99.1859C235 96.7519 231.449 94.3269 236.366 94.8399C235.395 93.0319 238.806 90.7879 239.796 89.7819C242.269 87.2709 242.466 86.1089 242.988 82.9509C243.253 81.3409 241.523 81.5269 243.842 81.1599C244.801 81.0089 245.721 82.2349 246.413 82.0549C249.468 81.2629 246.272 81.4139 247.115 80.1689C247.381 79.7739 248.74 78.1799 248.727 78.1969C248.661 78.2769 249.033 76.8099 249.341 76.4329C249.925 76.3829 250.5 76.2809 251.065 76.1269C251.352 75.5469 251.606 74.9529 251.826 74.3449C254.037 72.5009 257.345 71.6759 258.874 69.6499C259.863 68.3399 259.567 67.0569 260.845 65.7509C262.062 64.5069 263.672 65.4079 263.913 62.5979C264.22 59.0229 260.38 57.4319 258.809 61.0399C254.549 55.7929 236.743 75.0439 234.686 77.5589C225.751 88.4769 216.969 99.6649 209.64 111.738C202.499 123.502 196.638 135.88 192.057 148.855C189.848 155.111 188.503 161.339 187.154 167.81C186.701 169.977 183.316 179.634 184.725 181.795C185.01 181.75 185.296 181.704 185.582 181.659Z" fill="black"/>
<path fill-rule="evenodd" clip-rule="evenodd" d="M888.887 449.399C890.392 448.395 890.392 448.395 890.656 446.498C888.638 446.866 888.638 446.866 888.887 449.399Z" fill="black"/>
<path fill-rule="evenodd" clip-rule="evenodd" d="M147.05 577.024C147.069 577.022 147.083 577.027 147.094 577.038C147.062 576.997 146.946 576.876 147.05 577.024Z" fill="black"/>
<path fill-rule="evenodd" clip-rule="evenodd" d="M146.04 578.041C146.505 579.046 147.252 579.296 148.282 578.789C148.688 579.369 144.76 575.17 146.04 578.041Z" fill="black"/>
<path fill-rule="evenodd" clip-rule="evenodd" d="M213.966 119.346C211.609 123.967 214.561 120.606 214.41 122.107C214.509 121.121 214.918 119.716 213.966 119.346Z" fill="black"/>
<path fill-rule="evenodd" clip-rule="evenodd" d="M597.157 190.868C598.178 199.154 609.514 195.235 612.064 190.223C613.921 186.574 618.61 172.155 613.565 169.109C609.825 166.851 609.026 176.583 608.104 178.757C606.559 182.398 605.352 179.818 601.917 180.752C598.126 181.783 596.735 187.432 597.157 190.868Z" fill="black"/>
<path fill-rule="evenodd" clip-rule="evenodd" d="M584.771 175.701C588.823 176.601 592.795 176.137 595.673 172.937C597.267 171.165 599.388 167.65 596.518 165.935C593.917 164.382 590.968 168.019 588.229 167.267C584.504 166.244 586.422 162.25 585.144 159.612C580.448 162.316 577.828 174.159 584.771 175.701Z" fill="black"/>
<path fill-rule="evenodd" clip-rule="evenodd" d="M588.973 196.624C585.067 196.616 585.035 201.42 587.074 203.479C589.025 205.449 593.959 207.443 596.604 205.911C601.822 202.887 592.134 196.936 588.973 196.624Z" fill="black"/>
<path fill-rule="evenodd" clip-rule="evenodd" d="M361.704 387.661C362.538 388.066 364.996 390.15 366.032 389.209C364.57 387.736 363.107 386.263 361.645 384.79C360.837 385.676 360.283 386.971 361.704 387.661Z" fill="black"/>
<path fill-rule="evenodd" clip-rule="evenodd" d="M343.245 176.9C342.83 177.21 342.414 177.519 341.999 177.828C343.4 178.995 343.365 179.342 344.777 178.237C344.358 177.685 343.848 177.24 343.245 176.9Z" fill="black"/>
<path fill-rule="evenodd" clip-rule="evenodd" d="M607.975 451.815C607.19 450.405 605.707 453.005 604.704 453.428C603.072 454.115 601.733 450.475 602.201 454.838C598.512 453.149 596.273 457.024 593.894 459.042C590.533 461.894 586.422 463.441 584.18 467.491C594.733 469.96 606.328 460.862 614.197 454.886C615.481 453.91 621.899 448.987 617.549 448.511C615.77 448.317 609.295 454.185 607.975 451.815Z" fill="black"/>
<path fill-rule="evenodd" clip-rule="evenodd" d="M604.845 443.273C606.913 441.645 602.454 441.496 601.749 441.325C601.81 442.62 601.869 443.914 601.93 445.209C602.928 444.604 603.9 443.958 604.845 443.273Z" fill="black"/>
<path fill-rule="evenodd" clip-rule="evenodd" d="M597.079 448.703C597.697 448.317 599.42 447.112 598.248 446.214C597.189 446.888 596.432 447.988 596.266 449.243C596.537 449.063 596.808 448.883 597.079 448.703Z" fill="black"/>
<path fill-rule="evenodd" clip-rule="evenodd" d="M426.167 343.695C424.846 344.213 424.254 345.032 424.393 346.154C426.423 345.739 426.036 343.822 426.167 343.695Z" fill="black"/>
</svg>
