<svg width="512" height="512" viewBox="0 0 512 512" fill="none" xmlns="http://www.w3.org/2000/svg">
<g clip-path="url(#clip0)">
<path d="M492.739 55.2387L107.383 12.3013C105.337 12.0734 103.235 12.6591 101.747 14.08C98.495 17.1859 99.228 22.217 102.545 24.5097L187.033 82.922C187.041 82.9275 187.047 82.9371 187.047 82.948L192.43 224.789C192.641 229.706 198.104 232.823 202.432 230.423L297.16 177.834C297.171 177.828 297.184 177.829 297.195 177.836L355.588 218.98C358.373 220.941 362.297 220.471 364.539 217.908L440.421 131.175C442.871 128.375 442.586 124.118 439.786 121.668C436.985 119.217 432.731 119.503 430.279 122.303L358.41 204.45C358.399 204.463 358.381 204.465 358.367 204.455L241.916 122.404C241.893 122.388 241.9 122.352 241.928 122.345L473.517 72.7937C473.547 72.7872 473.568 72.8238 473.548 72.8468L452.07 97.3947C449.628 100.186 449.642 104.512 452.371 107.022C455.17 109.596 459.517 109.345 462.006 106.503L497.114 66.3756C497.333 66.1231 497.537 65.8455 497.718 65.5616C500.383 61.3917 497.616 55.7821 492.739 55.2387ZM284.902 169.175C284.922 169.188 284.92 169.219 284.899 169.23L209.5 211.087C209.475 211.101 209.445 211.079 209.452 211.051L229.535 130.217C229.54 130.195 229.566 130.186 229.586 130.199L284.902 169.175ZM404.065 73.8744L223.972 112.408C221.489 112.943 219.456 114.903 218.843 117.371L204.145 176.529C204.135 176.566 204.082 176.56 204.081 176.523L200.634 85.6805C200.633 85.6624 200.647 85.6476 200.665 85.6469L404.056 73.8094C404.096 73.8066 404.104 73.8652 404.065 73.8744ZM411.908 59.8548L195.585 72.4453C195.578 72.4454 195.571 72.4437 195.565 72.4394L132.293 28.6967C132.266 28.6773 132.282 28.6331 132.315 28.6369L411.91 59.7901C411.95 59.7946 411.948 59.853 411.908 59.8548Z" fill="black"/>
<path d="M141.161 287.36C139.28 287.178 137.359 287.042 135.452 286.954C131.735 286.782 128.582 289.654 128.409 293.371C128.242 296.94 130.885 299.989 134.386 300.379C134.531 300.395 134.678 300.407 134.826 300.414C136.512 300.493 138.209 300.613 139.87 300.773C143.574 301.13 146.865 298.416 147.222 294.713C147.579 291.01 144.85 287.694 141.161 287.36Z" fill="black"/>
<path d="M173.54 295.747C170.193 294.233 166.651 292.886 163.014 291.743C159.467 290.625 155.683 292.599 154.567 296.149C153.451 299.698 155.424 303.481 158.974 304.597C162.098 305.58 165.131 306.733 167.987 308.025C171.335 309.537 175.389 308.008 176.902 304.663C178.435 301.271 176.928 297.28 173.54 295.747Z" fill="black"/>
<path d="M96.9223 349.948C96.7395 346.836 96.7874 343.654 97.0661 340.489C97.3925 336.782 94.6425 333.517 90.9458 333.187C87.2396 332.861 83.9701 335.601 83.6438 339.308C83.3075 343.127 83.2497 346.973 83.4714 350.74C83.6866 354.402 86.9265 357.286 90.5923 357.068C94.3076 356.85 97.1408 353.662 96.9223 349.948Z" fill="black"/>
<path d="M124.98 394.938C122.262 393.62 119.653 392.015 117.228 390.169C114.266 387.917 110.04 388.49 107.786 391.451C105.534 394.413 106.107 398.639 109.068 400.893C112.204 403.278 115.576 405.353 119.097 407.061C122.578 408.75 126.877 407.071 128.302 403.481C129.586 400.246 128.108 396.457 124.98 394.938Z" fill="black"/>
<path d="M148.593 261.992C146.617 258.84 142.458 257.887 139.307 259.862C136.214 261.799 133.161 263.885 130.234 266.062C127.247 268.281 126.626 272.501 128.844 275.487C131.031 278.433 135.322 279.066 138.269 276.877C140.912 274.912 143.669 273.029 146.462 271.28C149.615 269.303 150.569 265.146 148.593 261.992Z" fill="black"/>
<path d="M105.026 376.541C103.433 373.928 102.044 371.129 100.897 368.22C99.5317 364.759 95.6176 363.061 92.1578 364.425C88.6969 365.791 86.9982 369.704 88.3634 373.165C89.7925 376.788 91.5283 380.283 93.5202 383.552C95.5806 386.934 100.262 387.797 103.398 385.375C106.078 383.304 106.787 379.431 105.026 376.541Z" fill="black"/>
<path d="M102.907 304.297C99.6673 302.468 95.5581 303.613 93.7295 306.853C91.7133 310.424 89.996 313.969 88.7603 317.101C87.395 320.563 89.0942 324.475 92.5547 325.841C93.1223 326.065 93.7037 326.206 94.2837 326.271C97.2329 326.6 100.153 324.938 101.292 322.046C101.999 320.256 103.295 317.317 105.463 313.474C107.293 310.234 106.149 306.125 102.907 304.297Z" fill="black"/>
<path d="M123.222 280.399C120.557 277.8 116.293 277.852 113.695 280.516C111.135 283.139 108.657 285.89 106.333 288.693C103.957 291.556 104.352 295.804 107.216 298.179C110.043 300.526 114.358 300.121 116.702 297.297C118.797 294.773 121.03 292.293 123.338 289.928C125.937 287.264 125.884 282.998 123.222 280.399Z" fill="black"/>
<path d="M200.849 316.571C198.524 313.549 195.822 310.672 192.818 308.019C190.03 305.555 185.772 305.819 183.308 308.609C180.845 311.398 181.11 315.655 183.899 318.118C186.259 320.202 188.369 322.446 190.169 324.787C192.408 327.697 196.706 328.257 199.617 326.019C202.566 323.749 203.117 319.52 200.849 316.571Z" fill="black"/>
<path d="M159.294 405.339C158.921 401.637 155.621 398.94 151.917 399.31C149.059 399.597 146.092 399.667 143.088 399.518L142.564 399.489C138.851 399.261 135.655 402.087 135.427 405.801C135.205 409.402 137.854 412.514 141.399 412.909C141.51 412.921 141.625 412.931 141.738 412.939L142.424 412.976C146.091 413.16 149.738 413.072 153.265 412.718C156.967 412.344 159.666 409.042 159.294 405.339Z" fill="black"/>
<path d="M211.67 350.147C211.804 346.053 211.499 342.046 210.762 338.238C210.055 334.584 206.519 332.195 202.868 332.903C199.214 333.609 196.827 337.144 197.533 340.798C198.079 343.618 198.304 346.614 198.202 349.702C198.081 353.372 201.044 356.537 204.714 356.658C208.382 356.778 211.548 353.816 211.67 350.147Z" fill="black"/>
<path d="M202.988 364.014C199.557 362.573 195.609 364.182 194.165 367.612C192.963 370.469 191.509 373.24 189.844 375.85C187.841 378.985 188.76 383.151 191.897 385.153C194.993 387.131 199.226 386.193 201.201 383.1C203.277 379.847 205.089 376.394 206.586 372.835C208.029 369.406 206.417 365.456 202.988 364.014Z" fill="black"/>
<path d="M177.539 249.985C176.34 246.461 172.512 244.579 168.99 245.779C165.532 246.956 162.087 248.275 158.754 249.699C156.092 250.836 154.423 253.639 154.692 256.521C154.986 259.667 157.521 262.243 160.661 262.593C161.778 262.717 162.941 262.564 164.048 262.091C167.07 260.799 170.195 259.602 173.333 258.534C176.856 257.334 178.739 253.507 177.539 249.985Z" fill="black"/>
<path d="M186.819 390.731C184.571 387.767 180.347 387.184 177.381 389.432C174.934 391.287 172.309 392.917 169.577 394.278C166.247 395.939 164.893 399.983 166.552 403.313C168.188 406.598 172.3 407.977 175.588 406.338C179.066 404.604 182.408 402.529 185.521 400.17C188.485 397.922 189.067 393.697 186.819 390.731Z" fill="black"/>
<path d="M203.435 244.951C202.878 241.273 199.444 238.744 195.766 239.297C193.906 239.579 192.04 239.894 190.22 240.234C186.751 240.883 184.326 244.222 184.778 247.721C185.267 251.507 188.944 254.178 192.698 253.478C194.365 253.166 196.074 252.878 197.781 252.619C201.458 252.063 203.99 248.63 203.435 244.951Z" fill="black"/>
<path d="M27.6195 455.384C27.0101 453.793 26.4276 452.172 25.8858 450.567C24.6973 447.042 20.8745 445.147 17.3495 446.336C13.8245 447.524 11.9293 451.346 13.1186 454.872C13.718 456.649 14.3626 458.441 15.0354 460.198C16.3475 463.626 20.3024 465.395 23.7348 464.083C27.2095 462.754 28.9487 458.859 27.6195 455.384Z" fill="black"/>
<path d="M21.2236 432.057C20.6996 428.923 20.3024 425.744 20.0457 422.608C19.7417 418.9 16.4914 416.142 12.7801 416.444C9.07226 416.748 6.31311 420.001 6.61699 423.71C6.9042 427.22 7.34781 430.776 7.9342 434.281C8.53936 437.9 12.0686 440.422 15.6904 439.813C19.3616 439.199 21.8385 435.726 21.2236 432.057Z" fill="black"/>
<path d="M15.9002 386.368C12.2423 385.73 8.74219 388.169 8.09498 391.832C7.63502 394.438 7.25295 397.09 6.96049 399.715C6.69215 402.123 6.34384 404.456 7.71126 406.61C8.8217 408.358 10.7282 409.536 12.7986 409.711C14.8509 409.896 16.9087 409.108 18.3173 407.606C20.0239 405.785 20.0899 403.557 20.3519 401.206C20.6127 398.865 20.953 396.499 21.3636 394.174C22.0109 390.51 19.5642 387.016 15.9002 386.368Z" fill="black"/>
<path d="M26.4214 358.02C23.0253 356.489 19.0401 358.004 17.5121 361.396C16.0581 364.624 14.7213 367.944 13.5416 371.262C12.2933 374.766 14.1245 378.619 17.6297 379.866C21.0889 381.098 25.0046 379.236 26.2351 375.778C27.2944 372.804 28.493 369.826 29.7972 366.93C31.3245 363.536 29.8143 359.547 26.4214 358.02Z" fill="black"/>
<path d="M66.0161 312.929C63.7598 309.969 59.5353 309.397 56.5735 311.651C55.8156 312.228 55.0626 312.817 54.3112 313.416C52.3009 315.024 50.3005 316.738 48.3647 318.511C45.6213 321.024 45.4333 325.286 47.9454 328.03C50.4239 330.737 54.7576 330.928 57.4639 328.449C59.1786 326.878 60.9496 325.362 62.7252 323.941C63.3917 323.409 64.0634 322.885 64.7376 322.372C67.6987 320.115 68.2697 315.889 66.0161 312.929Z" fill="black"/>
<path d="M43.3983 332.991C40.4644 330.704 36.2314 331.228 33.9427 334.161C31.7768 336.939 29.6932 339.844 27.7481 342.794C25.7007 345.901 26.5602 350.079 29.6679 352.126C32.7368 354.149 36.9812 353.271 38.9995 350.206C40.7473 347.554 42.6205 344.942 44.5673 342.447C46.8562 339.512 46.332 335.279 43.3983 332.991Z" fill="black"/>
<path d="M88.6885 301.101C87.1461 297.716 83.1506 296.222 79.7648 297.764C78.043 298.548 76.3161 299.385 74.6302 300.252C71.3213 301.954 70.0173 306.015 71.7188 309.324C73.3964 312.588 77.5233 313.914 80.7909 312.235C82.2883 311.466 83.8216 310.722 85.3515 310.026C88.7374 308.483 90.2316 304.487 88.6885 301.101Z" fill="black"/>
</g>
<defs>
<clipPath id="clip0">
<rect width="512" height="512" fill="white"/>
</clipPath>
</defs>
</svg>
