<?xml version="1.0" encoding="iso-8859-1"?>
<!-- Generator: Adobe Illustrator 19.0.0, SVG Export Plug-In . SVG Version: 6.00 Build 0)  -->
<svg version="1.1" id="Capa_1" xmlns="http://www.w3.org/2000/svg" xmlns:xlink="http://www.w3.org/1999/xlink" x="0px" y="0px"
	 viewBox="0 0 511.999 511.999" style="enable-background:new 0 0 511.999 511.999;" xml:space="preserve">
<g>
	<path style="fill:#F9F5F2;" d="M358.484,207.535c-0.085-0.939-0.085-1.792-0.085-2.645v8.448h0.853
		C358.825,211.426,358.569,209.489,358.484,207.535z"/>
	<path style="fill:#F9F5F2;" d="M153.602,213.338v-17.066c0.017,5.939-1.229,11.818-3.669,17.237
		C151.127,213.423,152.407,213.338,153.602,213.338z"/>
	<path style="fill:#F9F5F2;" d="M221.868,435.201h68.266c18.824-0.06,34.073-15.309,34.133-34.133v-42.666H187.735v42.666
		C187.795,419.892,203.043,435.141,221.868,435.201z"/>
</g>
<path style="fill:#C84339;" d="M472.402,437.931c-6.835-31.445-34.636-53.887-66.815-53.93h-81.321v17.066
	c-0.06,18.824-15.309,34.073-34.133,34.133h-68.266c-18.824-0.06-34.073-15.309-34.133-34.133v-17.066h-81.321
	c-32.179,0.043-59.98,22.485-66.815,53.93l-13.994,65.535h460.792L472.402,437.931z"/>
<g>
	<path style="fill:#F9F5F2;" d="M149.933,213.508c-13.662,1.519-25.079,11.068-29.013,24.234c-0.956,3.157-1.451,6.434-1.451,9.728
		c0,18.85,15.283,34.133,34.133,34.133v-68.266C152.407,213.338,151.127,213.423,149.933,213.508z"/>
	<path style="fill:#F9F5F2;" d="M359.252,213.338h-0.853v68.266c18.85,0,34.133-15.283,34.133-34.133
		c0.017-0.29-0.017-0.572-0.085-0.853C392.079,228.424,377.445,213.756,359.252,213.338z"/>
</g>
<path style="fill:#FDCA6E;" d="M149.933,213.508c2.44-5.419,3.686-11.298,3.669-17.237v-42.666h204.797v51.284
	c0,0.853,0,1.707,0.085,2.645c0.085,1.954,0.341,3.891,0.768,5.803c18.184,0.418,32.819,15.087,33.194,33.279
	c3.738,0.734,7.552,0.99,11.349,0.768c23.517-1.468,41.395-21.725,39.918-45.243c-0.87-13.909-8.482-26.521-20.377-33.774
	c22.289-7.646,34.158-31.914,26.513-54.203c-6.229-18.159-23.825-29.926-42.982-28.74c-5.018,0.299-9.933,1.519-14.506,3.584
	c0.154-1.928,0.188-3.866,0.085-5.803c-1.126-17.979-16.034-31.991-34.047-31.999c-0.034-23.594-19.191-42.7-42.785-42.666
	c-11.11,0.017-21.785,4.36-29.747,12.117c-16.921-16.469-43.98-16.111-60.458,0.811c-1.263,1.297-2.449,2.679-3.541,4.139
	c-18.816-14.122-45.516-10.317-59.638,8.499c-4.779,6.366-7.68,13.952-8.371,21.879c-5.231-3.14-11.221-4.796-17.322-4.779
	c-18.85,0-34.133,15.283-34.133,34.133c-0.009,3.115,0.418,6.221,1.28,9.216c-23.219,3.994-38.809,26.06-34.807,49.288
	c1.468,8.516,5.478,16.384,11.511,22.562c-16.461,16.904-16.102,43.954,0.802,60.415c7.961,7.757,18.628,12.1,29.747,12.117
	c3.362-0.009,6.716-0.41,9.984-1.195C124.854,224.567,136.28,215.027,149.933,213.508z"/>
<path style="fill:#F9F5F2;" d="M153.602,153.605v170.664c0,18.85,15.283,34.133,34.133,34.133h136.531
	c18.85,0,34.133-15.283,34.133-34.133V153.605H153.602z"/>
<g>
	<path style="fill:#231F20;" d="M480.748,436.114c-7.825-35.276-39.022-60.449-75.16-60.645h-72.788v-9.387
		c19.848-4.079,34.107-21.546,34.133-41.813v-34.986c16.759-3.447,29.849-16.554,33.279-33.322c0.324,0,0.649,0.051,0.973,0.051
		c1.058,0,2.116,0,3.149-0.102c28.219-1.775,49.663-26.095,47.888-54.314c-0.734-11.733-5.495-22.852-13.465-31.496
		c23.244-16.102,29.038-47.991,12.945-71.244c-11.46-16.546-31.547-24.849-51.344-21.205c-3.2-17.331-16.708-30.924-34.013-34.227
		c-4.352-27.989-30.566-47.154-58.563-42.811c-7.902,1.229-15.402,4.284-21.913,8.934c-20.181-14.395-47.76-12.305-65.543,4.958
		c-7.398-3.951-15.658-5.999-24.055-5.965c-22.22,0.085-41.864,14.447-48.699,35.592c-22.758-6.093-46.156,7.415-52.249,30.182
		c-0.964,3.592-1.451,7.304-1.451,11.025c0,0.981,0,1.954,0.102,2.927c-26.709,9.404-40.729,38.681-31.325,65.39
		c1.596,4.54,3.831,8.832,6.63,12.749c-16.452,23.048-11.102,55.073,11.946,71.525c8.67,6.187,19.055,9.523,29.713,9.54
		c0.026,20.266,14.285,37.734,34.133,41.813v34.986c0.026,20.266,14.285,37.734,34.133,41.813v9.387h-72.788
		c-36.147,0.196-67.352,25.386-75.16,60.68l-13.994,65.535c-0.981,4.608,1.954,9.139,6.562,10.129
		c0.589,0.119,1.186,0.188,1.783,0.188h460.792c4.71,0,8.533-3.823,8.533-8.533c0-0.597-0.06-1.195-0.188-1.783L480.748,436.114z
		 M196.268,366.935h119.465v34.133c0,14.139-11.46,25.6-25.6,25.6h-68.266c-14.139,0-25.6-11.46-25.6-25.6V366.935z
		 M366.932,271.611v-48.195c0.341,0.111,0.691,0.196,1.024,0.324c0.478,0.196,0.956,0.41,1.425,0.623
		c0.913,0.435,1.792,0.93,2.645,1.468c0.393,0.247,0.794,0.478,1.178,0.742c1.118,0.785,2.176,1.664,3.157,2.62l0.171,0.154
		c1.015,1.024,1.937,2.142,2.756,3.328c0.256,0.367,0.478,0.759,0.708,1.143c0.555,0.862,1.05,1.758,1.485,2.688
		c0.213,0.461,0.41,0.922,0.597,1.391c0.384,0.973,0.7,1.971,0.964,2.987c0.111,0.444,0.247,0.853,0.341,1.331
		c0.316,1.502,0.495,3.029,0.529,4.565c0.009,0.341,0.034,0.683,0.085,1.015C383.845,258.513,377.044,268.01,366.932,271.611z
		 M76.803,196.271c-0.034-8.926,3.439-17.51,9.685-23.893c3.251-3.319,3.251-8.627,0-11.946
		c-13.167-13.491-12.902-35.106,0.597-48.264c4.941-4.821,11.221-8.03,18.022-9.207c4.651-0.785,7.774-5.188,6.989-9.839
		c-0.06-0.341-0.137-0.674-0.23-0.998c-0.623-2.21-0.939-4.488-0.93-6.784c0-14.139,11.46-25.6,25.6-25.6
		c4.557-0.017,9.037,1.212,12.945,3.567c4.045,2.423,9.284,1.101,11.708-2.944c0.674-1.118,1.075-2.381,1.178-3.678
		c1.579-17.561,16.273-31.035,33.902-31.078c7.39-0.051,14.592,2.355,20.48,6.827c3.772,2.824,9.122,2.065,11.946-1.707
		c6.468-8.567,16.571-13.619,27.306-13.653c8.926-0.034,17.51,3.439,23.893,9.685c3.319,3.251,8.627,3.251,11.946,0
		c13.542-13.167,35.191-12.86,48.349,0.683c6.195,6.366,9.66,14.882,9.677,23.765c0,4.71,3.823,8.533,8.533,8.533
		c13.44,0.009,24.593,10.41,25.523,23.825c0.085,1.57,0.06,3.149-0.06,4.719c-0.401,4.693,3.089,8.823,7.782,9.224
		c1.468,0.128,2.944-0.137,4.284-0.751c3.618-1.621,7.501-2.568,11.46-2.816c18.816-1.178,35.02,13.116,36.198,31.931
		c0.956,15.334-8.439,29.414-22.971,34.414c-4.463,1.519-6.852,6.366-5.333,10.829c0.64,1.886,1.929,3.49,3.627,4.531
		c9.48,5.785,15.53,15.838,16.213,26.922l0,0c1.186,18.807-13.064,35.029-31.871,36.275c-1.007,0.06-2.048,0.077-3.08,0.051
		c-0.06-0.282-0.171-0.538-0.23-0.853c-0.145-0.683-0.367-1.323-0.546-1.988c-0.461-1.715-1.033-3.396-1.707-5.043
		c-0.316-0.759-0.64-1.502-0.998-2.236c-0.759-1.544-1.613-3.046-2.56-4.488c-0.384-0.597-0.725-1.203-1.135-1.775
		c-1.365-1.937-2.884-3.746-4.557-5.427c-0.239-0.239-0.521-0.427-0.759-0.657c-1.493-1.408-3.081-2.705-4.753-3.891
		c-0.64-0.452-1.306-0.853-1.971-1.254c-1.408-0.887-2.867-1.69-4.378-2.398c-0.742-0.35-1.476-0.7-2.244-1.007
		c-1.741-0.691-3.533-1.263-5.35-1.707c-0.572-0.154-1.109-0.358-1.707-0.478c-0.145,0-0.273-0.085-0.41-0.111v-51.976
		c0-4.71-3.823-8.533-8.533-8.533H153.602c-4.71,0-8.533,3.823-8.533,8.533v42.666c0.009,3.277-0.461,6.545-1.399,9.685
		c-0.188,0-0.367,0.119-0.555,0.162c-0.503,0.137-0.998,0.307-1.502,0.461c-1.348,0.384-2.679,0.845-3.976,1.374
		c-0.589,0.239-1.169,0.486-1.749,0.751c-1.22,0.563-2.398,1.178-3.558,1.843c-0.495,0.29-1.007,0.563-1.502,0.853
		c-1.536,0.964-3.012,2.022-4.412,3.174l-0.418,0.367c-1.297,1.109-2.526,2.295-3.686,3.558c-0.461,0.503-0.853,1.033-1.323,1.553
		c-0.768,0.922-1.502,1.86-2.193,2.842c-0.435,0.614-0.853,1.237-1.254,1.877c-0.649,1.033-1.229,2.108-1.792,3.2
		c-0.307,0.606-0.64,1.186-0.922,1.801c-0.068,0.145-0.145,0.265-0.205,0.41C95.884,232.222,79.039,218.68,77,199.932
		C76.872,198.712,76.812,197.492,76.803,196.271z M128.003,247.471c0.009-2.475,0.375-4.932,1.101-7.296
		c0.538-1.749,1.263-3.439,2.167-5.035c0.196-0.35,0.375-0.708,0.58-1.041c0.887-1.451,1.903-2.807,3.055-4.053
		c0.29-0.316,0.623-0.606,0.93-0.905c0.964-0.93,1.997-1.792,3.089-2.56c0.41-0.29,0.785-0.614,1.212-0.853
		c1.306-0.794,2.671-1.468,4.096-2.022c0.273-0.102,0.563-0.188,0.853-0.282v48.213C134.855,268.01,128.011,258.325,128.003,247.471
		z M162.135,324.269V162.139h187.73v162.131c0,14.14-11.46,25.6-25.6,25.6H187.735C173.604,349.869,162.135,338.409,162.135,324.269
		z M408.292,494.933l-7.347-44.065l-16.827,2.799l6.878,41.267h-269.99l6.878-41.267l-16.827-2.799l-7.347,44.065H36.151
		l11.784-55.184c6.076-27.46,30.353-47.061,58.478-47.214h72.788v8.533c0.026,23.552,19.114,42.64,42.666,42.666h68.266
		c23.552-0.026,42.64-19.114,42.666-42.666v-8.533h72.788c28.117,0.154,52.385,19.737,58.478,47.18l11.784,55.218H408.292z"/>
	<circle style="fill:#231F20;" cx="307.2" cy="221.862" r="17.066"/>
	<circle style="fill:#231F20;" cx="204.801" cy="221.862" r="17.066"/>
</g>
<g>
</g>
<g>
</g>
<g>
</g>
<g>
</g>
<g>
</g>
<g>
</g>
<g>
</g>
<g>
</g>
<g>
</g>
<g>
</g>
<g>
</g>
<g>
</g>
<g>
</g>
<g>
</g>
<g>
</g>
</svg>
