<svg width="53" height="52" viewBox="0 0 53 52" fill="none" xmlns="http://www.w3.org/2000/svg">
<g clip-path="url(#clip0)">
<path d="M11.731 0.352585C10.1892 0.348328 8.66182 0.642396 7.2366 1.21788C5.81137 1.79336 4.51644 2.63891 3.42626 3.7059C2.33607 4.77288 1.47215 6.04027 0.884152 7.43517C0.296158 8.83007 -0.00430255 10.325 4.65468e-05 11.8339V40.4727C-0.00430255 41.9817 0.296158 43.4766 0.884152 44.8715C1.47215 46.2664 2.33607 47.5338 3.42626 48.6007C4.51644 49.6677 5.81137 50.5133 7.2366 51.0888C8.66182 51.6642 10.1892 51.9583 11.731 51.9541H40.9924C42.5341 51.9583 44.0615 51.6642 45.4867 51.0888C46.912 50.5133 48.2069 49.6677 49.2971 48.6007C50.3873 47.5338 51.2512 46.2664 51.8392 44.8715C52.4272 43.4766 52.7276 41.9817 52.7233 40.4727V11.8339C52.7276 10.325 52.4272 8.83007 51.8392 7.43517C51.2512 6.04027 50.3873 4.77288 49.2971 3.7059C48.2069 2.63891 46.912 1.79336 45.4867 1.21788C44.0615 0.642396 42.5341 0.348328 40.9924 0.352585H11.731ZM26.0602 5.8691C31.1924 5.8691 35.8337 7.81061 39.3711 11.4372C42.0584 14.1673 43.5676 17.0634 44.3403 20.8787C44.6056 22.1478 44.6056 25.6067 44.3551 27.0338C43.5347 31.5716 40.9945 35.6391 37.2424 38.4232C35.9046 39.4149 32.6341 41.1371 32.1102 41.1371C31.9124 41.1371 31.8976 40.9436 31.9833 40.1454C32.1464 38.8682 32.2996 38.6086 33.0378 38.3055C34.2125 37.8282 36.2209 36.4236 37.4484 35.2239C39.5943 33.1242 41.1186 30.4944 41.859 27.6143C42.322 25.8405 42.261 21.901 41.7552 20.0805C40.1587 14.2834 35.318 9.78437 29.3982 8.57334C27.683 8.22987 24.5493 8.22987 22.8078 8.57334C16.8171 9.78437 11.8562 14.5124 10.347 20.4594C9.94332 22.0784 9.94332 26.0195 10.347 27.632C11.3504 31.5715 13.9519 35.1804 17.3575 37.3315C18.0281 37.7685 18.8338 38.2136 19.1699 38.349C19.9064 38.6586 20.0711 38.9215 20.2062 40.1873C20.2919 40.9694 20.2738 41.1871 20.0876 41.1871C19.9673 41.1871 19.0661 40.8081 18.1121 40.3631L18.0265 40.297C12.5943 37.6846 9.11787 33.2598 7.84922 27.3708C7.54112 25.8502 7.48016 22.2316 7.78991 20.8368C8.57911 17.0908 10.09 14.1689 12.6026 11.5824C16.2256 7.84286 20.885 5.8691 26.0667 5.8691H26.0602ZM26.3617 11.9178C27.1762 11.9159 27.989 11.9915 28.7886 12.1435C34.9094 13.4787 39.241 19.4693 38.399 25.4132C38.0646 27.8142 37.2243 29.7815 35.7316 31.6118C34.9935 32.5358 33.1992 34.0822 32.8829 34.0822C32.8302 34.0822 32.7791 33.4936 32.7791 32.7873V31.4844L33.6886 30.4185C37.137 26.3791 36.8898 20.7352 33.13 17.0408C31.6719 15.596 29.9798 14.7462 27.8 14.3624C26.3946 14.1028 26.1014 14.1028 24.6251 14.3446C22.3778 14.6978 20.6428 15.5444 19.0974 17.0408C15.3227 20.7029 15.0723 26.3791 18.524 30.4185L19.4335 31.4844V32.7954C19.4335 33.5178 19.3725 34.0967 19.2951 34.0967C19.2358 34.0967 18.7201 33.7533 18.1698 33.3243L18.0924 33.2985C16.2652 31.8714 14.6522 29.3429 13.9816 26.8564C13.5796 25.3535 13.5796 22.5074 13.9997 21.0109C15.1069 16.9715 18.1533 13.8383 22.3679 12.3693C23.2691 12.0581 24.8541 11.8904 26.3485 11.9162L26.3617 11.9178ZM26.07 18.3421C26.7571 18.3421 27.4343 18.4776 27.9335 18.7292C28.9962 19.2758 29.8826 20.324 30.2154 21.4334C31.2369 24.8262 27.5644 27.7997 24.233 26.2791H24.2083C22.6381 25.5647 21.7962 24.2215 21.778 22.4735C21.778 20.8948 22.6694 19.5258 24.2231 18.7195C24.7124 18.4679 25.3912 18.3405 26.0766 18.3405L26.07 18.3421ZM26.0519 28.5141C28.2251 28.506 29.7936 29.2607 30.3769 30.5959C30.8135 31.5957 30.652 34.745 29.8958 39.8438C29.39 43.4043 29.1066 44.3025 28.4047 44.9088C27.4343 45.7474 26.07 45.9844 24.7651 45.5297H24.7586C23.1884 44.975 22.8523 44.2267 22.1998 39.8422C21.4551 34.745 21.2904 31.594 21.7303 30.5943C22.3036 29.2671 23.8656 28.5222 26.0536 28.5125L26.0519 28.5141Z" fill="black"/>
</g>
<defs>
<clipPath id="clip0">
<rect width="52.7232" height="51.6015" fill="black" transform="translate(0 0.352539)"/>
</clipPath>
</defs>
</svg>
