<svg width="103" height="58" viewBox="0 0 103 58" fill="none" xmlns="http://www.w3.org/2000/svg">
<path d="M44.7019 32.6609L44.103 10.8204C44.103 10.1414 43.5442 9.62231 42.9053 9.62231C42.2267 9.62231 41.7076 10.1414 41.7076 10.8204L41.1484 32.6609L41.7076 43.1616C41.7076 43.8406 42.2664 44.3597 42.9053 44.3597C43.5839 44.3597 44.103 43.8406 44.103 43.1616L44.7019 32.6609Z" fill="black"/>
<path d="M40.3903 32.661L39.7117 9.98155C39.7119 9.8347 39.6831 9.68925 39.627 9.55355C39.5709 9.41784 39.4885 9.29454 39.3847 9.19072C39.2808 9.0869 39.1575 9.0046 39.0218 8.94854C38.886 8.89248 38.7406 8.86375 38.5937 8.86402C38.4468 8.8637 38.3013 8.8924 38.1655 8.94846C38.0297 9.00453 37.9063 9.08685 37.8024 9.19072C37.6985 9.29459 37.6161 9.41795 37.56 9.55373C37.5039 9.68951 37.4751 9.83504 37.4754 9.98195L36.877 32.6213L37.4758 43.2018C37.4755 43.3487 37.5042 43.4942 37.5603 43.63C37.6163 43.7658 37.6986 43.8892 37.8025 43.9931C37.9064 44.097 38.0297 44.1794 38.1655 44.2355C38.3013 44.2916 38.4468 44.3204 38.5937 44.3201C38.7407 44.3204 38.8863 44.2917 39.0221 44.2356C39.1579 44.1796 39.2813 44.0972 39.3852 43.9933C39.4891 43.8894 39.5715 43.766 39.6276 43.6301C39.6837 43.4943 39.7124 43.3487 39.7121 43.2018L40.3903 32.661Z" fill="black"/>
<path d="M31.0876 10.1416C31.0475 9.62251 30.6483 9.18359 30.1296 9.18359C29.6105 9.18359 29.2109 9.58283 29.1712 10.1416L28.4922 32.621L29.1712 43.3614C29.1712 43.8805 29.6105 44.2798 30.1292 44.2798C30.6483 44.2798 31.0479 43.8805 31.0876 43.3217L31.8861 32.5809L31.0876 10.142V10.1416Z" fill="black"/>
<path d="M35.4004 9.38317C35.4004 8.824 34.9214 8.345 34.3623 8.345C34.2256 8.34404 34.0902 8.37023 33.9638 8.42207C33.8374 8.4739 33.7226 8.55034 33.626 8.64693C33.5294 8.74352 33.453 8.85835 33.4012 8.98474C33.3493 9.11113 33.3231 9.24656 33.3241 9.38317L32.6855 32.6209L33.3241 43.2816C33.3241 43.8408 33.8035 44.3198 34.3623 44.3198C34.9214 44.3198 35.3603 43.8805 35.4004 43.2816L36.1191 32.6209L35.4004 9.38317Z" fill="black"/>
<path d="M13.6402 44.04C13.9597 44.04 14.1994 43.8007 14.2391 43.4415L15.2772 32.6209L14.2391 21.4415C14.199 21.1217 13.9597 20.8423 13.6402 20.8423C13.3207 20.8423 13.0815 21.082 13.0414 21.4411L12.123 32.6209L13.0414 43.4415C13.0414 43.8007 13.3207 44.0404 13.6402 44.0404V44.04Z" fill="black"/>
<path d="M49.0561 32.6611L48.4969 6.70809C48.4969 6.26877 48.2576 5.86954 47.8981 5.62984C47.6985 5.50999 47.4592 5.39014 47.1794 5.39014C46.9401 5.39014 46.7004 5.4703 46.4607 5.59016C46.1015 5.82946 45.8618 6.22869 45.8618 6.66801V6.90771L45.3828 32.6215L45.8618 43.0424V43.0825C45.8618 43.3615 45.9817 43.6413 46.1813 43.8409C46.421 44.1203 46.7801 44.3199 47.1794 44.3199C47.5389 44.3199 47.8584 44.1604 48.0977 43.9608C48.3374 43.7211 48.4969 43.4016 48.4969 43.0424L48.537 42.0043L49.0561 32.6607V32.6611Z" fill="black"/>
<path d="M18.3895 22.2397C18.3495 21.8404 18.0701 21.561 17.7105 21.561C17.3514 21.561 17.0319 21.8404 17.0319 22.2397L16.1934 32.6214L17.0319 43.5213C17.072 43.9206 17.3514 44.2 17.7105 44.2C18.0701 44.2 18.3895 43.9206 18.3895 43.5213L19.3476 32.621L18.3895 22.2397Z" fill="black"/>
<path d="M21.8244 14.9727C21.4252 14.9727 21.066 15.2921 21.066 15.7314L20.2676 32.6207L21.0656 43.5211C21.1057 43.9604 21.4248 44.2795 21.824 44.2795C22.2233 44.2795 22.5828 43.9604 22.5828 43.5211L23.5011 32.6207L22.5828 15.7314C22.5828 15.3322 22.2233 14.9727 21.824 14.9727H21.8244Z" fill="black"/>
<path d="M26.777 43.5215L27.6155 32.6612L26.777 11.8986C26.7369 11.4196 26.3777 11.0601 25.8987 11.0601C25.4193 11.0601 25.0602 11.4196 25.0201 11.8986L24.2617 32.6612L25.0201 43.5215C25.0201 44.0005 25.4193 44.3601 25.8987 44.3601C26.3777 44.4001 26.7373 44.0005 26.777 43.5215Z" fill="black"/>
<path d="M52.2123 3.15461C51.9957 3.02317 51.747 2.95396 51.4936 2.95459C51.1741 2.95459 50.8551 3.07444 50.6154 3.27406C50.2959 3.51376 50.0963 3.913 50.0963 4.35232V4.51185L49.5371 32.7008L49.8169 37.8916L50.0963 42.9622C50.0963 43.721 50.7352 44.3199 51.4936 44.3199C52.2524 44.3199 52.8512 43.6809 52.8913 42.9225L53.4902 32.6611L52.8913 4.35232C52.8512 3.83323 52.6115 3.39391 52.2123 3.15421V3.15461Z" fill="black"/>
<path d="M1.78107 38.6104C1.98068 38.6104 2.14022 38.4505 2.1803 38.2112L3.05854 32.6211L2.1803 26.9512C2.14022 26.7119 1.98068 26.552 1.78107 26.552C1.67525 26.5522 1.57382 26.5943 1.499 26.6692C1.42417 26.744 1.38204 26.8454 1.38183 26.9512L0.623047 32.6211L1.38183 38.2112C1.38183 38.4505 1.58145 38.6104 1.78107 38.6104Z" fill="black"/>
<path d="M5.57217 42.004C5.77179 42.004 5.9714 41.8444 6.01109 41.6051L7.16951 32.6212L6.01109 23.438C5.971 23.1983 5.81147 23.0383 5.57217 23.0383C5.37255 23.0383 5.17294 23.1983 5.13285 23.438L4.13477 32.6212L5.13285 41.6051C5.17294 41.8444 5.33247 42.0044 5.57217 42.0044V42.004Z" fill="black"/>
<path d="M9.56693 43.6414C9.84631 43.6414 10.0459 43.4417 10.086 43.1223L11.1643 32.6211L10.086 21.7207C10.0459 21.4414 9.84631 21.2017 9.56693 21.2017C9.28755 21.2017 9.08793 21.4013 9.04785 21.7207L8.08984 32.6211L9.04785 43.1223C9.08793 43.4017 9.28755 43.6414 9.56693 43.6414Z" fill="black"/>
<path d="M90.2584 19.245C88.5416 19.245 86.9046 19.6046 85.3874 20.2034C84.3893 8.90381 74.8863 0 63.3073 0C60.561 0.00208356 57.8392 0.516613 55.2817 1.51717C54.3237 1.87672 54.084 2.27596 54.084 2.99466V42.8824C54.084 43.6412 54.6828 44.2401 55.4416 44.3198H90.2985C97.2458 44.3198 102.876 38.7698 102.876 31.8225C102.836 24.8752 97.2061 19.245 90.2584 19.245Z" fill="black"/>
<path d="M10.6455 51.9062C9.1684 51.547 8.76917 51.3871 8.76917 50.7882C8.76917 50.389 9.08863 49.9497 10.0867 49.9497C10.9253 49.9497 11.6039 50.3092 12.2031 50.9077L13.5604 49.5905C12.6817 48.6722 11.6039 48.113 10.1665 48.113C8.32985 48.113 6.85236 49.1512 6.85236 50.8283C6.85236 52.665 8.05046 53.2237 9.76725 53.5833C11.5241 53.9825 11.8436 54.2619 11.8436 54.8607C11.8436 55.5794 11.3245 55.8588 10.2066 55.8588C9.32793 55.8588 8.48938 55.5398 7.81076 54.781L6.45312 55.9787C7.17183 57.0169 8.52946 57.6558 10.0466 57.6558C12.602 57.6558 13.6802 56.4581 13.6802 54.7012C13.76 52.7447 12.123 52.2256 10.6459 51.9062H10.6455ZM19.2302 48.1531C16.6749 48.1531 15.1974 50.1092 15.1974 52.9443C15.1974 55.7791 16.7146 57.7356 19.2298 57.7356C21.7455 57.7356 23.2627 55.7795 23.2627 52.9443C23.2627 50.1096 21.7455 48.1531 19.2302 48.1531ZM19.2302 55.8592C17.7127 55.8592 17.1138 54.5814 17.1138 52.9042C17.1138 51.2275 17.7527 49.9501 19.2302 49.9501C20.7474 49.9501 21.3467 51.2275 21.3467 52.9042C21.3467 54.5814 20.7073 55.8592 19.2302 55.8592ZM30.7691 53.5035C30.7691 54.9806 30.0504 55.8989 28.8527 55.8989C27.655 55.8989 26.9363 54.9409 26.9363 53.4634V48.2726H25.0596V53.5035C25.0596 56.2184 26.5768 57.7356 28.8127 57.7356C31.1684 57.7356 32.5661 56.1787 32.5661 53.5035V48.3127H30.6894V53.5035H30.7695H30.7691ZM40.6314 52.2256C40.6314 52.7447 40.6714 53.9027 40.6714 54.2619C40.5512 54.0226 40.2321 53.5432 40.0325 53.2237L36.7184 48.3127H34.9218V57.6161H36.7585V53.5035C36.7585 52.9844 36.7184 51.8264 36.7184 51.4672C36.8386 51.7065 37.1577 52.1855 37.3573 52.5054L40.7512 57.576H42.4283V48.2726H40.5913V52.2256H40.6314ZM47.7783 48.273H44.8638V57.576H47.6188C50.0146 57.576 52.3703 56.1787 52.3703 52.9443C52.3703 49.5108 50.4138 48.273 47.7783 48.273ZM47.6188 55.7791H46.7004V50.1096H47.6985C49.655 50.1096 50.4936 51.0676 50.4936 52.9443C50.4936 54.6214 49.5753 55.7791 47.6188 55.7791ZM58.1199 49.9898C58.9585 49.9898 59.4772 50.3489 59.8367 50.9878L61.5535 50.1894C60.9546 48.9917 59.9165 48.113 58.1596 48.113C55.7241 48.113 54.047 50.0695 54.047 52.9042C54.047 55.8191 55.684 57.6959 58.1195 57.6959C59.7966 57.6959 60.9146 56.8974 61.5535 55.5794L59.9962 54.6615C59.5172 55.4997 58.9981 55.8592 58.1596 55.8592C56.7623 55.8592 55.9638 54.5814 55.9638 52.9042C55.9638 51.1875 56.7623 49.9898 58.1199 49.9898ZM65.0271 48.273H63.1508V57.576H68.7405V55.7394H65.0271V48.273ZM73.6516 48.1527C71.0962 48.1527 69.6191 50.1096 69.6191 52.9443C69.6191 55.7791 71.1363 57.7356 73.6516 57.7356C76.2069 57.7356 77.6844 55.7795 77.6844 52.9443C77.6844 50.1096 76.2069 48.1531 73.652 48.1531L73.6516 48.1527ZM73.6516 55.8592C72.1344 55.8592 71.5352 54.5814 71.5352 52.9042C71.5352 51.2275 72.1745 49.9501 73.6516 49.9501C75.1692 49.9501 75.768 51.2275 75.768 52.9042C75.768 54.5814 75.1692 55.8592 73.6516 55.8592ZM85.1909 53.5035C85.1909 54.9806 84.4722 55.8989 83.2745 55.8989C82.0764 55.8989 81.3577 54.9409 81.3577 53.4634V48.2726H79.4814V53.5035C79.4814 56.2184 80.9985 57.7356 83.2344 57.7356C85.5901 57.7356 86.9874 56.1787 86.9874 53.5035V48.3127H85.1111V53.5035H85.1909ZM92.2977 48.2726H89.3833V57.576H92.1382C94.534 57.576 96.8897 56.1787 96.8897 52.9443C96.8897 49.5108 94.9333 48.273 92.2981 48.273L92.2977 48.2726ZM92.1382 55.7791H91.26V50.1096H92.2581C94.2141 50.1096 95.013 51.0676 95.013 52.9443C95.013 54.6214 94.0951 55.7791 92.1382 55.7791Z" fill="black"/>
</svg>
