<svg width="56" height="56" viewBox="0 0 56 56" fill="none" xmlns="http://www.w3.org/2000/svg">
<path d="M28.4463 0.108887C13.3253 0.108887 0.962891 12.4713 0.962891 27.5923C0.962891 42.7133 13.3253 55.0757 28.4463 55.0757C43.5673 55.0757 55.9297 42.7133 55.9297 27.5923C55.9297 12.4713 43.6996 0.108887 28.4463 0.108887ZM41.0886 39.8224C40.5407 40.6452 39.5753 40.9217 38.7526 40.3669C32.294 36.387 24.1881 35.5625 14.562 37.756C13.6053 38.0394 12.7808 37.3523 12.5025 36.5192C12.2345 35.5625 12.9147 34.7397 13.7375 34.4631C24.1881 32.127 33.2593 33.0838 40.3981 37.4863C41.3652 37.8986 41.4975 38.9979 41.0869 39.8224H41.0886ZM44.3884 32.2627C43.6996 33.2298 42.4645 33.6421 41.4975 32.9515C34.0821 28.4151 22.8088 27.0478 14.1584 29.7927C13.0573 30.0606 11.8137 29.5161 11.5457 28.4133C11.2692 27.314 11.8137 26.079 12.9147 25.8024C22.953 22.7775 35.3154 24.2977 43.8335 29.5144C44.6649 29.9267 45.0772 31.3025 44.3884 32.261V32.2627ZM44.6666 24.5691C35.8634 19.3421 21.1632 18.7976 12.7808 21.4102C11.4049 21.8208 10.0341 20.998 9.62188 19.7544C9.21134 18.3853 10.0341 17.0077 11.2692 16.5955C21.0309 13.708 37.1053 14.2611 47.2793 20.3075C48.5143 20.9963 48.9231 22.6436 48.236 23.8786C47.5472 24.8457 45.9 25.2545 44.6649 24.5674L44.6666 24.5691Z" fill="black"/>
</svg>
