<svg width="608" height="1052" viewBox="0 0 608 1052" fill="none" xmlns="http://www.w3.org/2000/svg">
<rect width="600" height="129" transform="translate(4 166)" fill="#FFDE00"/>
<path d="M189.789 213.92V242H182.949V213.92H189.789ZM196.306 213.92H203.306L198.826 224.64H194.226L196.306 213.92ZM235.804 219.44C238.577 219.44 240.777 220.28 242.404 221.96C244.057 223.64 244.884 225.973 244.884 228.96V242H238.084V229.88C238.084 228.44 237.697 227.333 236.924 226.56C236.177 225.76 235.137 225.36 233.804 225.36C232.47 225.36 231.417 225.76 230.644 226.56C229.897 227.333 229.524 228.44 229.524 229.88V242H222.724V229.88C222.724 228.44 222.337 227.333 221.564 226.56C220.817 225.76 219.777 225.36 218.444 225.36C217.11 225.36 216.057 225.76 215.284 226.56C214.537 227.333 214.164 228.44 214.164 229.88V242H207.324V219.68H214.164V222.48C214.857 221.547 215.764 220.813 216.884 220.28C218.004 219.72 219.27 219.44 220.684 219.44C222.364 219.44 223.857 219.8 225.164 220.52C226.497 221.24 227.537 222.267 228.284 223.6C229.057 222.373 230.11 221.373 231.444 220.6C232.777 219.827 234.23 219.44 235.804 219.44ZM256.784 230.8C256.784 228.507 257.211 226.493 258.064 224.76C258.944 223.027 260.131 221.693 261.624 220.76C263.117 219.827 264.784 219.36 266.624 219.36C268.197 219.36 269.571 219.68 270.744 220.32C271.944 220.96 272.864 221.8 273.504 222.84V219.68H280.344V242H273.504V238.84C272.837 239.88 271.904 240.72 270.704 241.36C269.531 242 268.157 242.32 266.584 242.32C264.771 242.32 263.117 241.853 261.624 240.92C260.131 239.96 258.944 238.613 258.064 236.88C257.211 235.12 256.784 233.093 256.784 230.8ZM273.504 230.84C273.504 229.133 273.024 227.787 272.064 226.8C271.131 225.813 269.984 225.32 268.624 225.32C267.264 225.32 266.104 225.813 265.144 226.8C264.211 227.76 263.744 229.093 263.744 230.8C263.744 232.507 264.211 233.867 265.144 234.88C266.104 235.867 267.264 236.36 268.624 236.36C269.984 236.36 271.131 235.867 272.064 234.88C273.024 233.893 273.504 232.547 273.504 230.84ZM310.769 227.6C312.396 227.947 313.702 228.76 314.689 230.04C315.676 231.293 316.169 232.733 316.169 234.36C316.169 236.707 315.342 238.573 313.689 239.96C312.062 241.32 309.782 242 306.849 242H293.769V213.92H306.409C309.262 213.92 311.489 214.573 313.089 215.88C314.716 217.187 315.529 218.96 315.529 221.2C315.529 222.853 315.089 224.227 314.209 225.32C313.356 226.413 312.209 227.173 310.769 227.6ZM300.609 225.28H305.089C306.209 225.28 307.062 225.04 307.649 224.56C308.262 224.053 308.569 223.32 308.569 222.36C308.569 221.4 308.262 220.667 307.649 220.16C307.062 219.653 306.209 219.4 305.089 219.4H300.609V225.28ZM305.649 236.48C306.796 236.48 307.676 236.227 308.289 235.72C308.929 235.187 309.249 234.427 309.249 233.44C309.249 232.453 308.916 231.68 308.249 231.12C307.609 230.56 306.716 230.28 305.569 230.28H300.609V236.48H305.649ZM342.176 219.68V242H335.336V238.96C334.643 239.947 333.696 240.747 332.496 241.36C331.323 241.947 330.016 242.24 328.576 242.24C326.87 242.24 325.363 241.867 324.056 241.12C322.75 240.347 321.736 239.24 321.016 237.8C320.296 236.36 319.936 234.667 319.936 232.72V219.68H326.736V231.8C326.736 233.293 327.123 234.453 327.896 235.28C328.67 236.107 329.71 236.52 331.016 236.52C332.35 236.52 333.403 236.107 334.176 235.28C334.95 234.453 335.336 233.293 335.336 231.8V219.68H342.176ZM359.529 236.2V242H356.049C353.569 242 351.636 241.4 350.249 240.2C348.863 238.973 348.169 236.987 348.169 234.24V225.36H345.449V219.68H348.169V214.24H355.009V219.68H359.489V225.36H355.009V234.32C355.009 234.987 355.169 235.467 355.489 235.76C355.809 236.053 356.343 236.2 357.089 236.2H359.529ZM375.779 236.2V242H372.299C369.819 242 367.886 241.4 366.499 240.2C365.113 238.973 364.419 236.987 364.419 234.24V225.36H361.699V219.68H364.419V214.24H371.259V219.68H375.739V225.36H371.259V234.32C371.259 234.987 371.419 235.467 371.739 235.76C372.059 236.053 372.593 236.2 373.339 236.2H375.779ZM389.749 242.32C387.563 242.32 385.589 241.853 383.829 240.92C382.096 239.987 380.723 238.653 379.709 236.92C378.723 235.187 378.229 233.16 378.229 230.84C378.229 228.547 378.736 226.533 379.749 224.8C380.763 223.04 382.149 221.693 383.909 220.76C385.669 219.827 387.643 219.36 389.829 219.36C392.016 219.36 393.989 219.827 395.749 220.76C397.509 221.693 398.896 223.04 399.909 224.8C400.923 226.533 401.429 228.547 401.429 230.84C401.429 233.133 400.909 235.16 399.869 236.92C398.856 238.653 397.456 239.987 395.669 240.92C393.909 241.853 391.936 242.32 389.749 242.32ZM389.749 236.4C391.056 236.4 392.163 235.92 393.069 234.96C394.003 234 394.469 232.627 394.469 230.84C394.469 229.053 394.016 227.68 393.109 226.72C392.229 225.76 391.136 225.28 389.829 225.28C388.496 225.28 387.389 225.76 386.509 226.72C385.629 227.653 385.189 229.027 385.189 230.84C385.189 232.627 385.616 234 386.469 234.96C387.349 235.92 388.443 236.4 389.749 236.4ZM418.658 219.44C421.271 219.44 423.351 220.293 424.898 222C426.471 223.68 427.258 226 427.258 228.96V242H420.458V229.88C420.458 228.387 420.071 227.227 419.298 226.4C418.525 225.573 417.485 225.16 416.178 225.16C414.871 225.16 413.831 225.573 413.058 226.4C412.285 227.227 411.898 228.387 411.898 229.88V242H405.058V219.68H411.898V222.64C412.591 221.653 413.525 220.88 414.698 220.32C415.871 219.733 417.191 219.44 418.658 219.44Z" fill="black"/>
<rect width="600" height="129" transform="translate(4 374)" fill="black" fill-opacity="0.04"/>
<path d="M189.789 421.92V450H182.949V421.92H189.789ZM196.306 421.92H203.306L198.826 432.64H194.226L196.306 421.92ZM235.804 427.44C238.577 427.44 240.777 428.28 242.404 429.96C244.057 431.64 244.884 433.973 244.884 436.96V450H238.084V437.88C238.084 436.44 237.697 435.333 236.924 434.56C236.177 433.76 235.137 433.36 233.804 433.36C232.47 433.36 231.417 433.76 230.644 434.56C229.897 435.333 229.524 436.44 229.524 437.88V450H222.724V437.88C222.724 436.44 222.337 435.333 221.564 434.56C220.817 433.76 219.777 433.36 218.444 433.36C217.11 433.36 216.057 433.76 215.284 434.56C214.537 435.333 214.164 436.44 214.164 437.88V450H207.324V427.68H214.164V430.48C214.857 429.547 215.764 428.813 216.884 428.28C218.004 427.72 219.27 427.44 220.684 427.44C222.364 427.44 223.857 427.8 225.164 428.52C226.497 429.24 227.537 430.267 228.284 431.6C229.057 430.373 230.11 429.373 231.444 428.6C232.777 427.827 234.23 427.44 235.804 427.44ZM256.784 438.8C256.784 436.507 257.211 434.493 258.064 432.76C258.944 431.027 260.131 429.693 261.624 428.76C263.117 427.827 264.784 427.36 266.624 427.36C268.197 427.36 269.571 427.68 270.744 428.32C271.944 428.96 272.864 429.8 273.504 430.84V427.68H280.344V450H273.504V446.84C272.837 447.88 271.904 448.72 270.704 449.36C269.531 450 268.157 450.32 266.584 450.32C264.771 450.32 263.117 449.853 261.624 448.92C260.131 447.96 258.944 446.613 258.064 444.88C257.211 443.12 256.784 441.093 256.784 438.8ZM273.504 438.84C273.504 437.133 273.024 435.787 272.064 434.8C271.131 433.813 269.984 433.32 268.624 433.32C267.264 433.32 266.104 433.813 265.144 434.8C264.211 435.76 263.744 437.093 263.744 438.8C263.744 440.507 264.211 441.867 265.144 442.88C266.104 443.867 267.264 444.36 268.624 444.36C269.984 444.36 271.131 443.867 272.064 442.88C273.024 441.893 273.504 440.547 273.504 438.84ZM310.769 435.6C312.396 435.947 313.702 436.76 314.689 438.04C315.676 439.293 316.169 440.733 316.169 442.36C316.169 444.707 315.342 446.573 313.689 447.96C312.062 449.32 309.782 450 306.849 450H293.769V421.92H306.409C309.262 421.92 311.489 422.573 313.089 423.88C314.716 425.187 315.529 426.96 315.529 429.2C315.529 430.853 315.089 432.227 314.209 433.32C313.356 434.413 312.209 435.173 310.769 435.6ZM300.609 433.28H305.089C306.209 433.28 307.062 433.04 307.649 432.56C308.262 432.053 308.569 431.32 308.569 430.36C308.569 429.4 308.262 428.667 307.649 428.16C307.062 427.653 306.209 427.4 305.089 427.4H300.609V433.28ZM305.649 444.48C306.796 444.48 307.676 444.227 308.289 443.72C308.929 443.187 309.249 442.427 309.249 441.44C309.249 440.453 308.916 439.68 308.249 439.12C307.609 438.56 306.716 438.28 305.569 438.28H300.609V444.48H305.649ZM342.176 427.68V450H335.336V446.96C334.643 447.947 333.696 448.747 332.496 449.36C331.323 449.947 330.016 450.24 328.576 450.24C326.87 450.24 325.363 449.867 324.056 449.12C322.75 448.347 321.736 447.24 321.016 445.8C320.296 444.36 319.936 442.667 319.936 440.72V427.68H326.736V439.8C326.736 441.293 327.123 442.453 327.896 443.28C328.67 444.107 329.71 444.52 331.016 444.52C332.35 444.52 333.403 444.107 334.176 443.28C334.95 442.453 335.336 441.293 335.336 439.8V427.68H342.176ZM359.529 444.2V450H356.049C353.569 450 351.636 449.4 350.249 448.2C348.863 446.973 348.169 444.987 348.169 442.24V433.36H345.449V427.68H348.169V422.24H355.009V427.68H359.489V433.36H355.009V442.32C355.009 442.987 355.169 443.467 355.489 443.76C355.809 444.053 356.343 444.2 357.089 444.2H359.529ZM375.779 444.2V450H372.299C369.819 450 367.886 449.4 366.499 448.2C365.113 446.973 364.419 444.987 364.419 442.24V433.36H361.699V427.68H364.419V422.24H371.259V427.68H375.739V433.36H371.259V442.32C371.259 442.987 371.419 443.467 371.739 443.76C372.059 444.053 372.593 444.2 373.339 444.2H375.779ZM389.749 450.32C387.563 450.32 385.589 449.853 383.829 448.92C382.096 447.987 380.723 446.653 379.709 444.92C378.723 443.187 378.229 441.16 378.229 438.84C378.229 436.547 378.736 434.533 379.749 432.8C380.763 431.04 382.149 429.693 383.909 428.76C385.669 427.827 387.643 427.36 389.829 427.36C392.016 427.36 393.989 427.827 395.749 428.76C397.509 429.693 398.896 431.04 399.909 432.8C400.923 434.533 401.429 436.547 401.429 438.84C401.429 441.133 400.909 443.16 399.869 444.92C398.856 446.653 397.456 447.987 395.669 448.92C393.909 449.853 391.936 450.32 389.749 450.32ZM389.749 444.4C391.056 444.4 392.163 443.92 393.069 442.96C394.003 442 394.469 440.627 394.469 438.84C394.469 437.053 394.016 435.68 393.109 434.72C392.229 433.76 391.136 433.28 389.829 433.28C388.496 433.28 387.389 433.76 386.509 434.72C385.629 435.653 385.189 437.027 385.189 438.84C385.189 440.627 385.616 442 386.469 442.96C387.349 443.92 388.443 444.4 389.749 444.4ZM418.658 427.44C421.271 427.44 423.351 428.293 424.898 430C426.471 431.68 427.258 434 427.258 436.96V450H420.458V437.88C420.458 436.387 420.071 435.227 419.298 434.4C418.525 433.573 417.485 433.16 416.178 433.16C414.871 433.16 413.831 433.573 413.058 434.4C412.285 435.227 411.898 436.387 411.898 437.88V450H405.058V427.68H411.898V430.64C412.591 429.653 413.525 428.88 414.698 428.32C415.871 427.733 417.191 427.44 418.658 427.44Z" fill="black"/>
<rect x="4" y="711" width="600" height="129" fill="#FFDE00"/>
<path d="M189.789 758.92V787H182.949V758.92H189.789ZM196.306 758.92H203.306L198.826 769.64H194.226L196.306 758.92ZM235.804 764.44C238.577 764.44 240.777 765.28 242.404 766.96C244.057 768.64 244.884 770.973 244.884 773.96V787H238.084V774.88C238.084 773.44 237.697 772.333 236.924 771.56C236.177 770.76 235.137 770.36 233.804 770.36C232.47 770.36 231.417 770.76 230.644 771.56C229.897 772.333 229.524 773.44 229.524 774.88V787H222.724V774.88C222.724 773.44 222.337 772.333 221.564 771.56C220.817 770.76 219.777 770.36 218.444 770.36C217.11 770.36 216.057 770.76 215.284 771.56C214.537 772.333 214.164 773.44 214.164 774.88V787H207.324V764.68H214.164V767.48C214.857 766.547 215.764 765.813 216.884 765.28C218.004 764.72 219.27 764.44 220.684 764.44C222.364 764.44 223.857 764.8 225.164 765.52C226.497 766.24 227.537 767.267 228.284 768.6C229.057 767.373 230.11 766.373 231.444 765.6C232.777 764.827 234.23 764.44 235.804 764.44ZM256.784 775.8C256.784 773.507 257.211 771.493 258.064 769.76C258.944 768.027 260.131 766.693 261.624 765.76C263.117 764.827 264.784 764.36 266.624 764.36C268.197 764.36 269.571 764.68 270.744 765.32C271.944 765.96 272.864 766.8 273.504 767.84V764.68H280.344V787H273.504V783.84C272.837 784.88 271.904 785.72 270.704 786.36C269.531 787 268.157 787.32 266.584 787.32C264.771 787.32 263.117 786.853 261.624 785.92C260.131 784.96 258.944 783.613 258.064 781.88C257.211 780.12 256.784 778.093 256.784 775.8ZM273.504 775.84C273.504 774.133 273.024 772.787 272.064 771.8C271.131 770.813 269.984 770.32 268.624 770.32C267.264 770.32 266.104 770.813 265.144 771.8C264.211 772.76 263.744 774.093 263.744 775.8C263.744 777.507 264.211 778.867 265.144 779.88C266.104 780.867 267.264 781.36 268.624 781.36C269.984 781.36 271.131 780.867 272.064 779.88C273.024 778.893 273.504 777.547 273.504 775.84ZM310.769 772.6C312.396 772.947 313.702 773.76 314.689 775.04C315.676 776.293 316.169 777.733 316.169 779.36C316.169 781.707 315.342 783.573 313.689 784.96C312.062 786.32 309.782 787 306.849 787H293.769V758.92H306.409C309.262 758.92 311.489 759.573 313.089 760.88C314.716 762.187 315.529 763.96 315.529 766.2C315.529 767.853 315.089 769.227 314.209 770.32C313.356 771.413 312.209 772.173 310.769 772.6ZM300.609 770.28H305.089C306.209 770.28 307.062 770.04 307.649 769.56C308.262 769.053 308.569 768.32 308.569 767.36C308.569 766.4 308.262 765.667 307.649 765.16C307.062 764.653 306.209 764.4 305.089 764.4H300.609V770.28ZM305.649 781.48C306.796 781.48 307.676 781.227 308.289 780.72C308.929 780.187 309.249 779.427 309.249 778.44C309.249 777.453 308.916 776.68 308.249 776.12C307.609 775.56 306.716 775.28 305.569 775.28H300.609V781.48H305.649ZM342.176 764.68V787H335.336V783.96C334.643 784.947 333.696 785.747 332.496 786.36C331.323 786.947 330.016 787.24 328.576 787.24C326.87 787.24 325.363 786.867 324.056 786.12C322.75 785.347 321.736 784.24 321.016 782.8C320.296 781.36 319.936 779.667 319.936 777.72V764.68H326.736V776.8C326.736 778.293 327.123 779.453 327.896 780.28C328.67 781.107 329.71 781.52 331.016 781.52C332.35 781.52 333.403 781.107 334.176 780.28C334.95 779.453 335.336 778.293 335.336 776.8V764.68H342.176ZM359.529 781.2V787H356.049C353.569 787 351.636 786.4 350.249 785.2C348.863 783.973 348.169 781.987 348.169 779.24V770.36H345.449V764.68H348.169V759.24H355.009V764.68H359.489V770.36H355.009V779.32C355.009 779.987 355.169 780.467 355.489 780.76C355.809 781.053 356.343 781.2 357.089 781.2H359.529ZM375.779 781.2V787H372.299C369.819 787 367.886 786.4 366.499 785.2C365.113 783.973 364.419 781.987 364.419 779.24V770.36H361.699V764.68H364.419V759.24H371.259V764.68H375.739V770.36H371.259V779.32C371.259 779.987 371.419 780.467 371.739 780.76C372.059 781.053 372.593 781.2 373.339 781.2H375.779ZM389.749 787.32C387.563 787.32 385.589 786.853 383.829 785.92C382.096 784.987 380.723 783.653 379.709 781.92C378.723 780.187 378.229 778.16 378.229 775.84C378.229 773.547 378.736 771.533 379.749 769.8C380.763 768.04 382.149 766.693 383.909 765.76C385.669 764.827 387.643 764.36 389.829 764.36C392.016 764.36 393.989 764.827 395.749 765.76C397.509 766.693 398.896 768.04 399.909 769.8C400.923 771.533 401.429 773.547 401.429 775.84C401.429 778.133 400.909 780.16 399.869 781.92C398.856 783.653 397.456 784.987 395.669 785.92C393.909 786.853 391.936 787.32 389.749 787.32ZM389.749 781.4C391.056 781.4 392.163 780.92 393.069 779.96C394.003 779 394.469 777.627 394.469 775.84C394.469 774.053 394.016 772.68 393.109 771.72C392.229 770.76 391.136 770.28 389.829 770.28C388.496 770.28 387.389 770.76 386.509 771.72C385.629 772.653 385.189 774.027 385.189 775.84C385.189 777.627 385.616 779 386.469 779.96C387.349 780.92 388.443 781.4 389.749 781.4ZM418.658 764.44C421.271 764.44 423.351 765.293 424.898 767C426.471 768.68 427.258 771 427.258 773.96V787H420.458V774.88C420.458 773.387 420.071 772.227 419.298 771.4C418.525 770.573 417.485 770.16 416.178 770.16C414.871 770.16 413.831 770.573 413.058 771.4C412.285 772.227 411.898 773.387 411.898 774.88V787H405.058V764.68H411.898V767.64C412.591 766.653 413.525 765.88 414.698 765.32C415.871 764.733 417.191 764.44 418.658 764.44Z" fill="black"/>
<rect x="2" y="709" width="604" height="133" stroke="#FFDE00" stroke-opacity="0.3" stroke-width="4"/>
<rect x="4" y="919" width="600" height="129" fill="black" fill-opacity="0.04"/>
<path d="M189.789 966.92V995H182.949V966.92H189.789ZM196.306 966.92H203.306L198.826 977.64H194.226L196.306 966.92ZM235.804 972.44C238.577 972.44 240.777 973.28 242.404 974.96C244.057 976.64 244.884 978.973 244.884 981.96V995H238.084V982.88C238.084 981.44 237.697 980.333 236.924 979.56C236.177 978.76 235.137 978.36 233.804 978.36C232.47 978.36 231.417 978.76 230.644 979.56C229.897 980.333 229.524 981.44 229.524 982.88V995H222.724V982.88C222.724 981.44 222.337 980.333 221.564 979.56C220.817 978.76 219.777 978.36 218.444 978.36C217.11 978.36 216.057 978.76 215.284 979.56C214.537 980.333 214.164 981.44 214.164 982.88V995H207.324V972.68H214.164V975.48C214.857 974.547 215.764 973.813 216.884 973.28C218.004 972.72 219.27 972.44 220.684 972.44C222.364 972.44 223.857 972.8 225.164 973.52C226.497 974.24 227.537 975.267 228.284 976.6C229.057 975.373 230.11 974.373 231.444 973.6C232.777 972.827 234.23 972.44 235.804 972.44ZM256.784 983.8C256.784 981.507 257.211 979.493 258.064 977.76C258.944 976.027 260.131 974.693 261.624 973.76C263.117 972.827 264.784 972.36 266.624 972.36C268.197 972.36 269.571 972.68 270.744 973.32C271.944 973.96 272.864 974.8 273.504 975.84V972.68H280.344V995H273.504V991.84C272.837 992.88 271.904 993.72 270.704 994.36C269.531 995 268.157 995.32 266.584 995.32C264.771 995.32 263.117 994.853 261.624 993.92C260.131 992.96 258.944 991.613 258.064 989.88C257.211 988.12 256.784 986.093 256.784 983.8ZM273.504 983.84C273.504 982.133 273.024 980.787 272.064 979.8C271.131 978.813 269.984 978.32 268.624 978.32C267.264 978.32 266.104 978.813 265.144 979.8C264.211 980.76 263.744 982.093 263.744 983.8C263.744 985.507 264.211 986.867 265.144 987.88C266.104 988.867 267.264 989.36 268.624 989.36C269.984 989.36 271.131 988.867 272.064 987.88C273.024 986.893 273.504 985.547 273.504 983.84ZM310.769 980.6C312.396 980.947 313.702 981.76 314.689 983.04C315.676 984.293 316.169 985.733 316.169 987.36C316.169 989.707 315.342 991.573 313.689 992.96C312.062 994.32 309.782 995 306.849 995H293.769V966.92H306.409C309.262 966.92 311.489 967.573 313.089 968.88C314.716 970.187 315.529 971.96 315.529 974.2C315.529 975.853 315.089 977.227 314.209 978.32C313.356 979.413 312.209 980.173 310.769 980.6ZM300.609 978.28H305.089C306.209 978.28 307.062 978.04 307.649 977.56C308.262 977.053 308.569 976.32 308.569 975.36C308.569 974.4 308.262 973.667 307.649 973.16C307.062 972.653 306.209 972.4 305.089 972.4H300.609V978.28ZM305.649 989.48C306.796 989.48 307.676 989.227 308.289 988.72C308.929 988.187 309.249 987.427 309.249 986.44C309.249 985.453 308.916 984.68 308.249 984.12C307.609 983.56 306.716 983.28 305.569 983.28H300.609V989.48H305.649ZM342.176 972.68V995H335.336V991.96C334.643 992.947 333.696 993.747 332.496 994.36C331.323 994.947 330.016 995.24 328.576 995.24C326.87 995.24 325.363 994.867 324.056 994.12C322.75 993.347 321.736 992.24 321.016 990.8C320.296 989.36 319.936 987.667 319.936 985.72V972.68H326.736V984.8C326.736 986.293 327.123 987.453 327.896 988.28C328.67 989.107 329.71 989.52 331.016 989.52C332.35 989.52 333.403 989.107 334.176 988.28C334.95 987.453 335.336 986.293 335.336 984.8V972.68H342.176ZM359.529 989.2V995H356.049C353.569 995 351.636 994.4 350.249 993.2C348.863 991.973 348.169 989.987 348.169 987.24V978.36H345.449V972.68H348.169V967.24H355.009V972.68H359.489V978.36H355.009V987.32C355.009 987.987 355.169 988.467 355.489 988.76C355.809 989.053 356.343 989.2 357.089 989.2H359.529ZM375.779 989.2V995H372.299C369.819 995 367.886 994.4 366.499 993.2C365.113 991.973 364.419 989.987 364.419 987.24V978.36H361.699V972.68H364.419V967.24H371.259V972.68H375.739V978.36H371.259V987.32C371.259 987.987 371.419 988.467 371.739 988.76C372.059 989.053 372.593 989.2 373.339 989.2H375.779ZM389.749 995.32C387.563 995.32 385.589 994.853 383.829 993.92C382.096 992.987 380.723 991.653 379.709 989.92C378.723 988.187 378.229 986.16 378.229 983.84C378.229 981.547 378.736 979.533 379.749 977.8C380.763 976.04 382.149 974.693 383.909 973.76C385.669 972.827 387.643 972.36 389.829 972.36C392.016 972.36 393.989 972.827 395.749 973.76C397.509 974.693 398.896 976.04 399.909 977.8C400.923 979.533 401.429 981.547 401.429 983.84C401.429 986.133 400.909 988.16 399.869 989.92C398.856 991.653 397.456 992.987 395.669 993.92C393.909 994.853 391.936 995.32 389.749 995.32ZM389.749 989.4C391.056 989.4 392.163 988.92 393.069 987.96C394.003 987 394.469 985.627 394.469 983.84C394.469 982.053 394.016 980.68 393.109 979.72C392.229 978.76 391.136 978.28 389.829 978.28C388.496 978.28 387.389 978.76 386.509 979.72C385.629 980.653 385.189 982.027 385.189 983.84C385.189 985.627 385.616 987 386.469 987.96C387.349 988.92 388.443 989.4 389.749 989.4ZM418.658 972.44C421.271 972.44 423.351 973.293 424.898 975C426.471 976.68 427.258 979 427.258 981.96V995H420.458V982.88C420.458 981.387 420.071 980.227 419.298 979.4C418.525 978.573 417.485 978.16 416.178 978.16C414.871 978.16 413.831 978.573 413.058 979.4C412.285 980.227 411.898 981.387 411.898 982.88V995H405.058V972.68H411.898V975.64C412.591 974.653 413.525 973.88 414.698 973.32C415.871 972.733 417.191 972.44 418.658 972.44Z" fill="black"/>
<rect x="2" y="917" width="604" height="133" stroke="#F5F5F5" stroke-opacity="0.22" stroke-width="4"/>
<path d="M21.04 82.64C22.0533 82.8 22.9733 83.2133 23.8 83.88C24.6533 84.5467 25.32 85.3733 25.8 86.36C26.3067 87.3467 26.56 88.4 26.56 89.52C26.56 90.9333 26.2 92.2133 25.48 93.36C24.76 94.48 23.7067 95.3733 22.32 96.04C20.96 96.68 19.3467 97 17.48 97H7.08V69.12H17.08C18.9733 69.12 20.5867 69.44 21.92 70.08C23.2533 70.6933 24.2533 71.5333 24.92 72.6C25.5867 73.6667 25.92 74.8667 25.92 76.2C25.92 77.8533 25.4667 79.2267 24.56 80.32C23.68 81.3867 22.5067 82.16 21.04 82.64ZM10.72 81.16H16.84C18.5467 81.16 19.8667 80.76 20.8 79.96C21.7333 79.16 22.2 78.0533 22.2 76.64C22.2 75.2267 21.7333 74.12 20.8 73.32C19.8667 72.52 18.52 72.12 16.76 72.12H10.72V81.16ZM17.16 94C18.9733 94 20.3867 93.5733 21.4 92.72C22.4133 91.8667 22.92 90.68 22.92 89.16C22.92 87.6133 22.3867 86.4 21.32 85.52C20.2533 84.6133 18.8267 84.16 17.04 84.16H10.72V94H17.16ZM51.0513 75.08V97H47.4113V93.76C46.7179 94.88 45.7446 95.76 44.4913 96.4C43.2646 97.0133 41.9046 97.32 40.4113 97.32C38.7046 97.32 37.1713 96.9733 35.8113 96.28C34.4513 95.56 33.3713 94.4933 32.5713 93.08C31.7979 91.6667 31.4113 89.9467 31.4113 87.92V75.08H35.0113V87.44C35.0113 89.6 35.5579 91.2667 36.6513 92.44C37.7446 93.5867 39.2379 94.16 41.1313 94.16C43.0779 94.16 44.6113 93.56 45.7313 92.36C46.8513 91.16 47.4113 89.4133 47.4113 87.12V75.08H51.0513ZM61.6372 78.08V91C61.6372 92.0667 61.8639 92.8267 62.3172 93.28C62.7705 93.7067 63.5572 93.92 64.6772 93.92H67.3572V97H64.0772C62.0505 97 60.5305 96.5333 59.5172 95.6C58.5039 94.6667 57.9972 93.1333 57.9972 91V78.08H55.1572V75.08H57.9972V69.56H61.6372V75.08H67.3572V78.08H61.6372ZM76.2075 78.08V91C76.2075 92.0667 76.4342 92.8267 76.8875 93.28C77.3408 93.7067 78.1275 93.92 79.2475 93.92H81.9275V97H78.6475C76.6208 97 75.1008 96.5333 74.0875 95.6C73.0742 94.6667 72.5675 93.1333 72.5675 91V78.08H69.7275V75.08H72.5675V69.56H76.2075V75.08H81.9275V78.08H76.2075ZM95.8978 97.36C93.8445 97.36 91.9778 96.8933 90.2978 95.96C88.6445 95.0267 87.3378 93.7067 86.3778 92C85.4445 90.2667 84.9778 88.2667 84.9778 86C84.9778 83.76 85.4578 81.7867 86.4178 80.08C87.4045 78.3467 88.7378 77.0267 90.4178 76.12C92.0978 75.1867 93.9778 74.72 96.0578 74.72C98.1378 74.72 100.018 75.1867 101.698 76.12C103.378 77.0267 104.698 78.3333 105.658 80.04C106.644 81.7467 107.138 83.7333 107.138 86C107.138 88.2667 106.631 90.2667 105.618 92C104.631 93.7067 103.284 95.0267 101.578 95.96C99.8711 96.8933 97.9778 97.36 95.8978 97.36ZM95.8978 94.16C97.2045 94.16 98.4311 93.8533 99.5778 93.24C100.724 92.6267 101.644 91.7067 102.338 90.48C103.058 89.2533 103.418 87.76 103.418 86C103.418 84.24 103.071 82.7467 102.378 81.52C101.684 80.2933 100.778 79.3867 99.6578 78.8C98.5378 78.1867 97.3245 77.88 96.0178 77.88C94.6845 77.88 93.4578 78.1867 92.3378 78.8C91.2445 79.3867 90.3645 80.2933 89.6978 81.52C89.0311 82.7467 88.6978 84.24 88.6978 86C88.6978 87.7867 89.0178 89.2933 89.6578 90.52C90.3245 91.7467 91.2045 92.6667 92.2978 93.28C93.3911 93.8667 94.5911 94.16 95.8978 94.16ZM122.604 74.68C125.27 74.68 127.43 75.4933 129.084 77.12C130.737 78.72 131.564 81.04 131.564 84.08V97H127.964V84.6C127.964 82.4133 127.417 80.7467 126.324 79.6C125.23 78.4267 123.737 77.84 121.844 77.84C119.924 77.84 118.39 78.44 117.244 79.64C116.124 80.84 115.564 82.5867 115.564 84.88V97H111.924V75.08H115.564V78.2C116.284 77.08 117.257 76.2133 118.484 75.6C119.737 74.9867 121.11 74.68 122.604 74.68ZM145.27 97.36C143.59 97.36 142.083 97.08 140.75 96.52C139.416 95.9333 138.363 95.1333 137.59 94.12C136.816 93.08 136.39 91.8933 136.31 90.56H140.07C140.176 91.6533 140.683 92.5467 141.59 93.24C142.523 93.9333 143.736 94.28 145.23 94.28C146.616 94.28 147.71 93.9733 148.51 93.36C149.31 92.7467 149.71 91.9733 149.71 91.04C149.71 90.08 149.283 89.3733 148.43 88.92C147.576 88.44 146.256 87.9733 144.47 87.52C142.843 87.0933 141.51 86.6667 140.47 86.24C139.456 85.7867 138.576 85.1333 137.83 84.28C137.11 83.4 136.75 82.2533 136.75 80.84C136.75 79.72 137.083 78.6933 137.75 77.76C138.416 76.8267 139.363 76.0933 140.59 75.56C141.816 75 143.216 74.72 144.79 74.72C147.216 74.72 149.176 75.3333 150.67 76.56C152.163 77.7867 152.963 79.4667 153.07 81.6H149.43C149.35 80.4533 148.883 79.5333 148.03 78.84C147.203 78.1467 146.083 77.8 144.67 77.8C143.363 77.8 142.323 78.08 141.55 78.64C140.776 79.2 140.39 79.9333 140.39 80.84C140.39 81.56 140.616 82.16 141.07 82.64C141.55 83.0933 142.136 83.4667 142.83 83.76C143.55 84.0267 144.536 84.3333 145.79 84.68C147.363 85.1067 148.643 85.5333 149.63 85.96C150.616 86.36 151.456 86.9733 152.15 87.8C152.87 88.6267 153.243 89.7067 153.27 91.04C153.27 92.24 152.936 93.32 152.27 94.28C151.603 95.24 150.656 96 149.43 96.56C148.23 97.0933 146.843 97.36 145.27 97.36Z" fill="black"/>
<path d="M8.24 646.24C7.54667 646.24 6.96 646 6.48 645.52C6 645.04 5.76 644.453 5.76 643.76C5.76 643.067 6 642.48 6.48 642C6.96 641.52 7.54667 641.28 8.24 641.28C8.90667 641.28 9.46667 641.52 9.92 642C10.4 642.48 10.64 643.067 10.64 643.76C10.64 644.453 10.4 645.04 9.92 645.52C9.46667 646 8.90667 646.24 8.24 646.24ZM8.24 629.12C7.54667 629.12 6.96 628.88 6.48 628.4C6 627.92 5.76 627.333 5.76 626.64C5.76 625.947 6 625.36 6.48 624.88C6.96 624.4 7.54667 624.16 8.24 624.16C8.90667 624.16 9.46667 624.4 9.92 624.88C10.4 625.36 10.64 625.947 10.64 626.64C10.64 627.333 10.4 627.92 9.92 628.4C9.46667 628.88 8.90667 629.12 8.24 629.12ZM26.4756 623.68C28.129 623.68 29.6223 624.04 30.9556 624.76C32.289 625.453 33.329 626.507 34.0756 627.92C34.849 629.333 35.2356 631.053 35.2356 633.08V646H31.6356V633.6C31.6356 631.413 31.089 629.747 29.9956 628.6C28.9023 627.427 27.409 626.84 25.5156 626.84C23.5956 626.84 22.0623 627.44 20.9156 628.64C19.7956 629.84 19.2356 631.587 19.2356 633.88V646H15.5956V616.4H19.2356V627.2C19.9556 626.08 20.9423 625.213 22.1956 624.6C23.4756 623.987 24.9023 623.68 26.4756 623.68ZM50.7416 646.36C48.6882 646.36 46.8216 645.893 45.1416 644.96C43.4882 644.027 42.1816 642.707 41.2216 641C40.2882 639.267 39.8216 637.267 39.8216 635C39.8216 632.76 40.3016 630.787 41.2616 629.08C42.2482 627.347 43.5816 626.027 45.2616 625.12C46.9416 624.187 48.8216 623.72 50.9016 623.72C52.9816 623.72 54.8616 624.187 56.5416 625.12C58.2216 626.027 59.5416 627.333 60.5016 629.04C61.4882 630.747 61.9816 632.733 61.9816 635C61.9816 637.267 61.4749 639.267 60.4616 641C59.4749 642.707 58.1282 644.027 56.4216 644.96C54.7149 645.893 52.8216 646.36 50.7416 646.36ZM50.7416 643.16C52.0482 643.16 53.2749 642.853 54.4216 642.24C55.5682 641.627 56.4882 640.707 57.1816 639.48C57.9016 638.253 58.2616 636.76 58.2616 635C58.2616 633.24 57.9149 631.747 57.2216 630.52C56.5282 629.293 55.6216 628.387 54.5016 627.8C53.3816 627.187 52.1682 626.88 50.8616 626.88C49.5282 626.88 48.3016 627.187 47.1816 627.8C46.0882 628.387 45.2082 629.293 44.5416 630.52C43.8749 631.747 43.5416 633.24 43.5416 635C43.5416 636.787 43.8616 638.293 44.5016 639.52C45.1682 640.747 46.0482 641.667 47.1416 642.28C48.2349 642.867 49.4349 643.16 50.7416 643.16ZM74.9275 642.64L81.7275 624.08H85.6075L77.0075 646H72.7675L64.1675 624.08H68.0875L74.9275 642.64ZM109.189 634.2C109.189 634.893 109.149 635.627 109.069 636.4H91.5494C91.6827 638.56 92.416 640.253 93.7494 641.48C95.1094 642.68 96.7494 643.28 98.6694 643.28C100.243 643.28 101.549 642.92 102.589 642.2C103.656 641.453 104.403 640.467 104.829 639.24H108.749C108.163 641.347 106.989 643.067 105.229 644.4C103.469 645.707 101.283 646.36 98.6694 646.36C96.5894 646.36 94.7227 645.893 93.0694 644.96C91.4427 644.027 90.1627 642.707 89.2294 641C88.296 639.267 87.8294 637.267 87.8294 635C87.8294 632.733 88.2827 630.747 89.1894 629.04C90.096 627.333 91.3627 626.027 92.9894 625.12C94.6427 624.187 96.536 623.72 98.6694 623.72C100.749 623.72 102.589 624.173 104.189 625.08C105.789 625.987 107.016 627.24 107.869 628.84C108.749 630.413 109.189 632.2 109.189 634.2ZM105.429 633.44C105.429 632.053 105.123 630.867 104.509 629.88C103.896 628.867 103.056 628.107 101.989 627.6C100.949 627.067 99.7894 626.8 98.5094 626.8C96.6694 626.8 95.096 627.387 93.7894 628.56C92.5094 629.733 91.776 631.36 91.5894 633.44H105.429ZM117.634 627.64C118.274 626.387 119.181 625.413 120.354 624.72C121.554 624.027 123.007 623.68 124.714 623.68V627.44H123.754C119.674 627.44 117.634 629.653 117.634 634.08V646H113.994V624.08H117.634V627.64Z" fill="black"/>
</svg>
